<svg xmlns="http://www.w3.org/2000/svg" viewBox="0 0 230.29 231.54"><defs><style>.cls-1{fill:#c92d2d;}.cls-1,.cls-7,.cls-8,.cls-9{stroke:#510000;stroke-miterlimit:10;stroke-width:3px;}.cls-2{fill:#ba1515;}.cls-3{fill:#d83636;}.cls-4{fill:#ef5454;}.cls-5{fill:#9b1313;}.cls-6{fill:#ff9292;}.cls-7,.cls-8{fill:none;}.cls-8{stroke-linecap:round;}.cls-9{fill:#683512;}.cls-10{fill:#89421f;}.cls-11{fill:#511e05;}</style></defs><g id="Layer_2" data-name="Layer 2"><path class="cls-1" d="M160.41,185c8.82-8.09,23.16-22.06,79.78-23.9s79.42,14.71,89.34,22.06,46.7,37.13,23.17,102.58-60.67,84-74.27,84-23.08-7.54-30.88-6.06-11.77,6.06-32,6.06-40.08-11.2-70.59-67.09S151.59,193.06,160.41,185Z" transform="translate(-131.64 -139.68)"/></g><g id="Layer_3" data-name="Layer 3"><path class="cls-2" d="M262.14,360.6s-13.34-3.35-43.59-17.34-41.7-58.62-40.14-89.64,34.31-67.07,51.49-71.26c-12.49-5.32-42.3-9.32-60.16-5.05s-42.67,64.4-36.6,90.31c2.3,18.06,12.64,45.63,31.81,67.56s43.29,33.53,43.29,33.53l30.4-2.25,23.5-5.86" transform="translate(-131.64 -139.68)"/><path class="cls-3" d="M252.21,183.85c20.23-2.27,39.5-19.83,49.28-15.49s35.62,14.06,42.81,29c13.83,17.16,25.91,54.6,2.22,103.85-7.23,13.38-10.57,20.62-21.14,36.22a234.14,234.14,0,0,0-3.09-69.62c-7.12-37-24.26-59.77-32.83-66.53-13.43-10.59-37.25-17.39-37.25-17.39" transform="translate(-131.64 -139.68)"/></g><g id="Layer_6" data-name="Layer 6"><path class="cls-4" d="M297,179.37c12.82,1.39,26.54,2.56,41,25.51,12.26,22.72,5.45,64.43,1.57,65.11s-9.06-7.93-12.54-38.33S284.12,178,297,179.37Z" transform="translate(-131.64 -139.68)"/><path class="cls-5" d="M273.86,369.18s-14.34-13-24.32-13-18.15,5.39-36.3,4.26-42.94-19-70.63-64.52c17,41.26,40.47,58.2,50,66.75s34.22,6.92,34.22,6.92,14.89-5.8,21.63-6.06,25.38,5.65,25.38,5.65" transform="translate(-131.64 -139.68)"/><path class="cls-5" d="M219.26,179.31s33.14,6.81,42.88,2.27C241.3,176.47,219.26,179.31,219.26,179.31Z" transform="translate(-131.64 -139.68)"/><path class="cls-6" d="M302.41,183.14c0-1.56,15.51,5.15,18.72,7S332.2,199,335.6,206.35C328.51,199.16,314,188.57,302.41,183.14Z" transform="translate(-131.64 -139.68)"/></g><g id="Layer_4" data-name="Layer 4"><path class="cls-7" d="M160.41,185c8.82-8.09,23.16-22.06,79.78-23.9s79.42,14.71,89.34,22.06,46.7,37.13,23.17,102.58-60.67,84-74.27,84-23.08-7.54-30.88-6.06-11.77,6.06-32,6.06-40.08-11.2-70.59-67.09S151.59,193.06,160.41,185Z" transform="translate(-131.64 -139.68)"/></g><g id="Layer_5" data-name="Layer 5"><path class="cls-8" d="M218.55,179.31s25.95,10.21,51.9,0" transform="translate(-131.64 -139.68)"/><path class="cls-9" d="M241.51,183.74c-3.17-19.72-17.86-32.8-13.6-37.62s8.33-7.66,13.6,1.42,10.58,36.1,7.93,36.2S241.51,183.74,241.51,183.74Z" transform="translate(-131.64 -139.68)"/></g><g id="Layer_8" data-name="Layer 8"><path class="cls-10" d="M235.43,147.12c3.54,2.44,9.49,18.4,11,35.2,2.2.08,3.73,0,3.73,0l-5-27.07-6.45-12.18S231.9,144.68,235.43,147.12Z" transform="translate(-131.64 -139.68)"/><path class="cls-11" d="M227.14,147.57l7.1-6.92s4.85-.81,4.4,2.42-8.07,7.61-10.82,7.3c-.22-.61-.68-2.8-.68-2.8" transform="translate(-131.64 -139.68)"/></g><g id="Layer_7" data-name="Layer 7"><path class="cls-7" d="M241.51,183.31c-3.17-19.72-17.86-32.8-13.6-37.62s8.33-7.66,13.6,1.42,10.58,36.1,7.93,36.2S241.51,183.31,241.51,183.31Z" transform="translate(-131.64 -139.68)"/></g></svg>