<svg xmlns="http://www.w3.org/2000/svg" viewBox="0 0 263.94 175.02"><defs><style>.cls-1{fill:#f7cd1c;}.cls-1,.cls-8{stroke:#512c00;stroke-miterlimit:10;stroke-width:3px;}.cls-2{fill:#f9e419;}.cls-3{fill:#efb614;}.cls-4{fill:#fff297;}.cls-5{fill:#512c00;}.cls-6{fill:#663b0c;}.cls-7{fill:#563311;}.cls-8{fill:none;}</style></defs><g id="Layer_2" data-name="Layer 2"><path class="cls-1" d="M153.65,200c8,7.52,5.42-.42,31.48,24.66,35.17,33.21,133,34,155.06,33.31s34.15,13.57,39.52,18.42,3.4,16.14,1,18.84-10.11,13.37-34.09,22.72C220,366.56,127.27,275.14,123.06,247.09s8.08-36.92,12.1-43.87-9.07-31.16-6.11-35.53,10.42-6.68,14.24-7.47,12-.23,14.14,3.88S148.1,194,153.65,200Z" transform="translate(-120.69 -158.41)"/></g><g id="Layer_5" data-name="Layer 5"><path class="cls-2" d="M142.69,173.7S141,198,144.58,206.45s7.26,25.68,34.35,49.95S263.36,311.13,334.41,290c40-10.18,48.27-5.27,48.27-5.27l-1.87-6.36s-16.19-16.32-26-18.21-1.31-1.22-31.45-2c-35.73,1.52-113.68-12.39-126.94-24.69-11.33-8.9-32.75-27.15-32.75-27.15a18.66,18.66,0,0,1-10.47-6.19c-4.81-5.45,5.39-34.06,3.79-35.88s-14.34,9.38-14.34,9.38" transform="translate(-120.69 -158.41)"/><path class="cls-3" d="M125.55,217.6c-1.3,13.28-1.79,16.56,8.56,33.53,23.3,36.66,93,66.56,104.14,69.64s59.43,17,135.91-18.87c-3.44,4.27-23.75,18.93-44.55,21.89-11.74,3.12-55.33,12.89-87.49,5.67-30.87-.44-79.74-34.2-79.74-34.2s-40.37-30.79-38.9-44.59C121.83,238.84,121.33,223,125.55,217.6Z" transform="translate(-120.69 -158.41)"/></g><g id="Layer_6" data-name="Layer 6"><path class="cls-3" d="M379.28,287.49l-74.7,8.62a282.31,282.31,0,0,0,32.82-6.83c19-5,30.37-5.73,33.82-5.64l7.49.18Z" transform="translate(-120.69 -158.41)"/><path class="cls-4" d="M142.69,173.7s-1.17,23,.93,29.64,3.43,12.23,6.53,16.82S175.84,242.3,196.93,234l-31.28-26S153.9,202,151.8,198.58s5.63-34.48,5.63-34.48Z" transform="translate(-120.69 -158.41)"/><path class="cls-3" d="M138,172.41s-1.21,21.66,1.87,32.15,23.19,49.92,42.66,55c-20.14-13.93-37.44-48-38.95-56.2s-.93-29.64-.93-29.64Z" transform="translate(-120.69 -158.41)"/></g><g id="Layer_4" data-name="Layer 4"><path class="cls-5" d="M128.89,169.89l13.8,3.81S157,167.32,157,164.32s-6.16-5.82-16-3.44-12.12,9-12.12,9" transform="translate(-120.69 -158.41)"/><path class="cls-5" d="M379.3,276.58l-2.71,7.06,3.71,11.79s3.47-5.81,2.38-10.67a25.54,25.54,0,0,0-3.38-8.18" transform="translate(-120.69 -158.41)"/><path class="cls-6" d="M142.69,173.7a29.33,29.33,0,0,1-1-5.59c3-.5,13-6.8,13-6.8s3,1.66,2.05,3.9S142.69,173.7,142.69,173.7Z" transform="translate(-120.69 -158.41)"/><path class="cls-7" d="M131.11,165.27s8.74,2,10.54,2.84a46.87,46.87,0,0,0,11.71-6c2.54-2.08-11.14-1.64-11.14-1.64l-11.11,4.81" transform="translate(-120.69 -158.41)"/></g><g id="Layer_3" data-name="Layer 3"><path class="cls-8" d="M153.65,200c8,7.52,5.42-.42,31.48,24.66,35.17,33.21,133,34,155.06,33.31s34.15,13.57,39.52,18.42,3.4,16.14,1,18.84-10.11,13.37-34.09,22.72C220,366.56,127.27,275.14,123.06,247.09s8.08-36.92,12.1-43.87-9.07-31.16-6.11-35.53,10.42-6.68,14.24-7.47,12-.23,14.14,3.88S148.1,194,153.65,200Z" transform="translate(-120.69 -158.41)"/></g></svg>