<svg xmlns="http://www.w3.org/2000/svg" viewBox="0 0 241.21 167.63"><defs><style>.cls-1,.cls-2{fill:#139146;}.cls-1,.cls-2,.cls-5{stroke:#1f4922;}.cls-1,.cls-12,.cls-2,.cls-5,.cls-6,.cls-8{stroke-miterlimit:10;}.cls-1,.cls-12,.cls-2,.cls-5,.cls-8{stroke-width:3px;}.cls-12,.cls-2{stroke-linecap:round;}.cls-3{fill:#50cc62;}.cls-4{fill:#13631a;}.cls-12,.cls-5,.cls-8{fill:none;}.cls-6{fill:#3d467c;}.cls-6,.cls-8{stroke:#231f20;}.cls-7{fill:#4358a6;}.cls-9{fill:#27325b;}.cls-10{fill:#2c3a67;}.cls-11{fill:#182242;}.cls-12{stroke:#b7c9f9;}</style></defs><g id="Layer_9" data-name="Layer 9"><path class="cls-1" d="M246.16,202.34c45.31-34.1,96.89-20.15,110.2-15.67a2.91,2.91,0,0,1,1.6,4.2c-9.38,16.43-56.77,93.45-106.14,65.52C196.67,225.2,193.63,241.88,246.16,202.34Z" transform="translate(-118.63 -170.65)"/><path class="cls-2" d="M273.68,216.42c18.37-16.51,76.7-26,76.7-26" transform="translate(-118.63 -170.65)"/><path class="cls-3" d="M275.69,197s35-14.46,80.67-10.3c-47.89-16.08-89.05,2.19-89.57,5.27S275.69,197,275.69,197Z" transform="translate(-118.63 -170.65)"/><path class="cls-4" d="M298.91,233.5c15.38-1.44,45.78-22,45.78-22s-17,23.56-28.83,32.34S283.53,235,298.91,233.5Z" transform="translate(-118.63 -170.65)"/><path class="cls-5" d="M246.16,202.34c45.31-34.1,96.89-20.15,110.2-15.67a2.91,2.91,0,0,1,1.6,4.2c-9.38,16.43-56.77,93.45-106.14,65.52C196.67,225.2,193.63,241.88,246.16,202.34Z" transform="translate(-118.63 -170.65)"/><path class="cls-1" d="M207.25,247.78c-55.08,11.31-80.8,57.09-86.83,69.45a2.6,2.6,0,0,0,1.84,3.76c18,3.5,104.53,17.45,119-35.45C257.31,226.45,271.09,234.66,207.25,247.78Z" transform="translate(-118.63 -170.65)"/><path class="cls-2" d="M209.37,285.06c-24.37-.65-75.89,28.19-75.89,28.19" transform="translate(-118.63 -170.65)"/><path class="cls-3" d="M194.37,259.07s-35.55,13-67.12,45.71c25.6-42.32,68.2-56.74,70.56-55S194.37,259.07,194.37,259.07Z" transform="translate(-118.63 -170.65)"/><path class="cls-4" d="M192.76,305.12c-11.59,10.16-46.91,19.2-46.91,19.2s28.22,2.45,42.49-.56S204.36,295,192.76,305.12Z" transform="translate(-118.63 -170.65)"/><path class="cls-5" d="M207.25,247.78c-55.08,11.31-80.8,57.09-86.83,69.45a2.6,2.6,0,0,0,1.84,3.76c18,3.5,104.53,17.45,119-35.45C257.31,226.45,271.09,234.66,207.25,247.78Z" transform="translate(-118.63 -170.65)"/><path class="cls-1" d="M232.1,200.51c-42.85-36.41-94.76-28.46-108.2-25.59a2.6,2.6,0,0,0-1.83,3.77c8.31,16.31,50.66,93.07,101.21,71.84C279.74,226.8,281.77,242.71,232.1,200.51Z" transform="translate(-118.63 -170.65)"/><path class="cls-2" d="M204,225.15c-14.51-19.59-69-42.39-69-42.39" transform="translate(-118.63 -170.65)"/><path class="cls-3" d="M215.27,197.33s-32.16-20-77.36-24.7c49.11-5.91,86.71,18.75,86.78,21.7S215.27,197.33,215.27,197.33Z" transform="translate(-118.63 -170.65)"/><path class="cls-4" d="M178,224.44c-15.15-2.87-44-25.12-44-25.12s15.46,23.74,26.62,33.12S193.15,227.31,178,224.44Z" transform="translate(-118.63 -170.65)"/><path class="cls-5" d="M232.1,200.51c-42.85-36.41-94.76-28.46-108.2-25.59a2.6,2.6,0,0,0-1.83,3.77c8.31,16.31,50.66,93.07,101.21,71.84C279.74,226.8,281.77,242.71,232.1,200.51Z" transform="translate(-118.63 -170.65)"/></g><g id="back_berry" data-name="back berry"><circle class="cls-6" cx="159.34" cy="64.31" r="49.38"/><path class="cls-7" d="M240.07,203.51c39.63-43.94,94.83,1.07,85.75,35.05C299.31,205.29,283.44,199.77,240.07,203.51Z" transform="translate(-118.63 -170.65)"/><circle class="cls-8" cx="159.34" cy="64.31" r="49.38"/><path class="cls-9" d="M242.38,213s-4.63,54.81,49.64,33.62C265.33,246.77,242.38,213,242.38,213Z" transform="translate(-118.63 -170.65)"/></g><g id="Layer_5" data-name="Layer 5"><path class="cls-10" d="M267,205.17a.43.43,0,0,0-.65.47c.37,1.63.86,4.83-.27,6.94s-5.25,3.75-7.62,4.58a.44.44,0,0,0,0,.84c2,.44,5.21,1.46,6.46,3.65,1.43,2.51,1.33,8.16,1.2,10.78a.43.43,0,0,0,.77.3,18.47,18.47,0,0,1,7.82-5.4c4.13-1.33,11-2,13.9-2.26a.43.43,0,0,0,.19-.81c-1.73-1.07-4.82-3.22-5.72-5.45-1-2.57.77-8.4,1.47-10.46a.44.44,0,0,0-.51-.57,31.4,31.4,0,0,1-8.86.77C272.36,208.2,268.64,206.17,267,205.17Z" transform="translate(-118.63 -170.65)"/><circle class="cls-11" cx="154.66" cy="47.05" r="7.26"/></g><g id="front_right_berry" data-name="front right berry"><circle class="cls-6" cx="186.58" cy="110.26" r="51.71"/><path class="cls-7" d="M293.48,230.52c28.23,4.36,70.56,23.79,46.25,88.61C384.5,272.64,334.86,220.15,293.48,230.52Z" transform="translate(-118.63 -170.65)"/><path class="cls-9" d="M275.8,238.56c-18.65,7-42.32,88.63,29.42,94.25C264.44,310.35,268.71,267.23,275.8,238.56Z" transform="translate(-118.63 -170.65)"/><circle class="cls-8" cx="186.58" cy="110.44" r="51.71"/></g><g id="Layer_6" data-name="Layer 6"><path class="cls-10" d="M312.12,238.78a.71.71,0,0,0-1.28,0c-1.31,2.45-4.3,7.8-6.72,10.19s-9.95,5.72-13.37,7.16a.72.72,0,0,0,0,1.34c2.56,1,7.14,3.18,8.28,6.31,1.6,4.4-.94,17.48-.27,17.15s8.67-6.75,13.34-6.75c3.53,0,9.3,2.74,11.93,4.08a.72.72,0,0,0,1-.79c-.66-3-2-9.66-1.36-12.56s6.29-6.86,8.93-8.56a.72.72,0,0,0-.18-1.3c-2.83-.86-8.88-2.81-12.08-4.67S313.52,241.66,312.12,238.78Z" transform="translate(-118.63 -170.65)"/><circle class="cls-11" cx="192.9" cy="89.67" r="9.96"/></g><g id="back_left_berry" data-name="back left berry"><circle class="cls-6" cx="86.35" cy="47.99" r="45.66"/><path class="cls-7" d="M183.56,179c37.68,5.63,52.76,15.23,64.52,56.29C262.87,182.12,208.25,163.08,183.56,179Z" transform="translate(-118.63 -170.65)"/><path class="cls-9" d="M214.63,251c-43.77-12.48-55.3-34.52-41.35-64.48C160.41,186.56,138.66,273.1,214.63,251Z" transform="translate(-118.63 -170.65)"/><circle class="cls-8" cx="86.78" cy="48.34" r="45.66"/></g><g id="Layer_7" data-name="Layer 7"><path class="cls-10" d="M185.41,205.65a1.19,1.19,0,0,1,2.14.19c1,2.75,2.71,7,3.68,7.88s6.88,1.15,10.06,1.17a1.19,1.19,0,0,1,1,1.79c-1.68,2.91-4.81,8.49-4.81,9.85,0,1.08,2.51,3.33,4.63,5a1.19,1.19,0,0,1-.77,2.12c-4.52-.06-11.9-.12-13.94.06s-6.82,2.19-9.94,3.56a1.19,1.19,0,0,1-1.58-1.55c1.19-2.88,2.78-7.17,2.52-8.95s-4.12-5.37-6.6-7.43a1.19,1.19,0,0,1,.52-2.09c2.35-.47,5.68-1.38,7.15-2.89C181.11,212.72,183.81,208.34,185.41,205.65Z" transform="translate(-118.63 -170.65)"/><circle class="cls-11" cx="68.79" cy="52.78" r="7.26"/></g><g id="front_berry" data-name="front berry"><circle class="cls-6" cx="99.24" cy="110.44" r="55.69"/><path class="cls-7" d="M198.62,228.82c42,8,68.26,21.78,69.68,75.93C291.49,241.44,227.44,214.4,198.62,228.82Z" transform="translate(-118.63 -170.65)"/><path class="cls-9" d="M170.68,252.11c-18.15,24.37-7.91,92.16,59.61,83.29C189.36,321,171.57,291.6,170.68,252.11Z" transform="translate(-118.63 -170.65)"/><circle class="cls-8" cx="99.24" cy="110.44" r="55.69"/></g><g id="Layer_8" data-name="Layer 8"><path class="cls-10" d="M229.39,254a1.09,1.09,0,0,0-1.92-.16c-2.1,3.21-6.58,9.94-8.49,11.92s-12.47,4.23-17.83,5.29a1.09,1.09,0,0,0-.31,2c3.7,2,9.78,5.75,9.87,8.56.1,3.1-3.31,13.82-4.91,18.67a1.09,1.09,0,0,0,1.49,1.33c4.62-2.13,14.86-6.66,18.38-6.66s13.41,2.71,17.69,3.94a1.09,1.09,0,0,0,1.34-1.4c-1.46-4.23-4.61-14-4.1-17.48.47-3.2,5.8-7.69,8.89-10.05A1.09,1.09,0,0,0,249,268c-3.84-.54-10.69-1.71-13-3.38S230.72,257.06,229.39,254Z" transform="translate(-118.63 -170.65)"/><circle class="cls-11" cx="107.04" cy="108.79" r="11.05"/></g><g id="Layer_11" data-name="Layer 11"><path class="cls-12" d="M325.82,238.56c6.25,1.09,26.16,16.93,26.87,37.56" transform="translate(-118.63 -170.65)"/><path class="cls-12" d="M353.12,281.82a38.88,38.88,0,0,1-1.68,12.33" transform="translate(-118.63 -170.65)"/><path class="cls-12" d="M280.28,190c6.25-1,30.28,7.31,37.79,26.54" transform="translate(-118.63 -170.65)"/><path class="cls-12" d="M267,190.81a21.91,21.91,0,0,1,7.48-.88" transform="translate(-118.63 -170.65)"/><path class="cls-12" d="M232,232.21c17.06,5.58,30.51,18,35.14,34.2" transform="translate(-118.63 -170.65)"/><path class="cls-12" d="M209,177.5c13.75,2.41,25.9,8.15,34.16,24" transform="translate(-118.63 -170.65)"/></g></svg>