<svg xmlns="http://www.w3.org/2000/svg" viewBox="0 0 269.12 147.6"><defs><style>.cls-1{fill:#472a1d;}.cls-2{fill:#442511;}.cls-3{fill:#60371b;}.cls-4{fill:#633d24;}.cls-5{fill:#724b35;}.cls-6{fill:none;stroke:#301300;stroke-miterlimit:10;stroke-width:3px;}</style></defs><g id="Layer_4" data-name="Layer 4"><polygon class="cls-1" points="134.59 1.18 193.22 26.24 193.07 28.92 198.71 28.59 260.02 54.8 260.02 74.07 126.66 146.49 1.89 87.79 2.07 66.88 65.74 35.31 71.71 36.11 73.14 31.65 134.59 1.18"/></g><g id="Layer_5" data-name="Layer 5"><polygon class="cls-2" points="67.69 97.6 61.6 99.49 60.37 93.7 0.96 66.34 0.96 88.4 126.66 147.6 127.55 125.2 67.69 97.6"/><path class="cls-3" d="M249.25,325.14" transform="translate(-121.7 -199.94)"/><polygon class="cls-4" points="127.55 125.2 190.51 92.05 196.03 94.31 197.06 88.18 260.02 55.02 260.02 74.07 126.66 146.49 127.55 125.2"/></g><g id="Layer_7" data-name="Layer 7"><polygon class="cls-5" points="67.69 97.6 127.55 65.13 190.51 92.05 127.55 125.2 67.69 97.6"/><polygon class="cls-5" points="2.07 66.88 65.06 35.65 122.42 61.63 60.43 93.75 2.07 66.88"/><polygon class="cls-5" points="72.23 32.1 134.59 1.18 193.39 26.11 129.1 58.14 72.23 32.1"/><polygon class="cls-5" points="133.75 62.44 198.5 28.72 260.02 55.02 197.06 88.18 133.75 62.44"/></g><g id="Layer_6" data-name="Layer 6"><path class="cls-6" d="M257.65,201.7,315,226.22l-.26,2.64,5.51-.39L380,254a2.87,2.87,0,0,1,1.75,2.64v15.49a3.16,3.16,0,0,1-1.66,2.78L249.91,345.58a3.5,3.5,0,0,1-3.15.09L125.11,288.45a2.63,2.63,0,0,1-1.51-2.4l.15-17.4a3,3,0,0,1,1.66-2.64l62-30.76,6,.8,1.42-4.47L255,201.77A3.2,3.2,0,0,1,257.65,201.7Z" transform="translate(-121.7 -199.94)"/></g><g id="Layer_11" data-name="Layer 11"><polygon class="cls-5" points="57.45 3.84 1.52 27.7 60.71 39.39 111.32 12.79 57.45 3.84"/><polygon class="cls-2" points="62.57 55.59 60.71 39.39 1.52 27.7 1.89 42.1 62.57 55.59"/><polygon class="cls-4" points="111.32 12.79 113.66 26.87 62.57 55.59 60.71 39.39 111.32 12.79"/><polygon class="cls-1" points="267.82 108.45 233.56 33.3 214.23 28.15 208.13 29.94 197.65 26.54 189.15 31.64 175.7 28.31 157.87 29.94 167.39 56.74 166.61 62.01 170 64.09 195.32 135.35 267.82 108.45"/><polygon class="cls-2" points="157.87 29.94 152.68 40.33 189.15 146.07 195.32 135.35 170 64.09 166.61 62.01 167.39 56.74 157.87 29.94"/><polygon class="cls-4" points="267.82 108.45 263.83 117.76 189.15 146.07 195.32 135.35 267.82 108.45"/><polyline class="cls-5" points="238.67 44.49 170 64.09 195.32 135.35 267.82 108.45 238.67 44.49"/><polyline class="cls-5" points="235.95 38.52 167.39 56.74 157.87 29.81 176.04 28.31 189.34 31.64 197.82 26.59 208.46 29.94 214.44 28.14 233.56 33.3 235.95 38.52"/><path class="cls-5" d="M353.75,228.66l-6.37-23.14a1,1,0,0,1,.74-1.27l4.58-1.16a1,1,0,0,1,1,.25l25,23.54a1,1,0,0,1-.71,1.78H353.75" transform="translate(-121.7 -199.94)"/><polyline class="cls-2" points="225.4 4.57 232.06 28.72 210.24 19.25 205.28 9.66 225.4 4.57"/></g><g id="Layer_12" data-name="Layer 12"><polygon class="cls-6" points="62.57 55.59 113.66 26.87 111.32 12.79 57.45 3.84 1.52 27.7 1.89 42.1 62.57 55.59"/><path class="cls-6" d="M328.21,209.29l24.47-6.19a1,1,0,0,1,1,.26l24.86,23.43a1.08,1.08,0,0,1-.74,1.87H354a1.23,1.23,0,0,1-.46-.1L331,218.13a1.11,1.11,0,0,1-.54-.55l-2.95-6.81A1.08,1.08,0,0,1,328.21,209.29Z" transform="translate(-121.7 -199.94)"/><path class="cls-6" d="M389.15,309.23l-3.28,7.66A2,2,0,0,1,384.7,318l-71.86,27.24a2.07,2.07,0,0,1-2.69-1.26L274.66,241a2.07,2.07,0,0,1,.1-1.6l4.28-8.65a2.09,2.09,0,0,1,1.69-1.14l16.66-1.38a2.15,2.15,0,0,1,.67.06l12.15,3a2.07,2.07,0,0,0,1.56-.22l7-4.14a2.06,2.06,0,0,1,1.68-.19l9.15,2.88a2.08,2.08,0,0,0,1.21,0l4.81-1.44a2.1,2.1,0,0,1,1.14,0L354.32,233a2.08,2.08,0,0,1,1.35,1.14l1.71,3.77a2.05,2.05,0,0,1,.16,1.2l-.29,1.72a2.07,2.07,0,0,0,.86,2l1.79,1.25a2.27,2.27,0,0,1,.7.84l28.53,62.62A2.07,2.07,0,0,1,389.15,309.23Z" transform="translate(-121.7 -199.94)"/></g></svg>