<svg id="Layer_11" data-name="Layer 11" xmlns="http://www.w3.org/2000/svg" viewBox="0 0 1415.83 325.44"><defs><style>.cls-1{fill:#f7cd1c;}.cls-1,.cls-8{stroke:#512c00;}.cls-1,.cls-15,.cls-16,.cls-17,.cls-24,.cls-25,.cls-31,.cls-32,.cls-34,.cls-35,.cls-36,.cls-37,.cls-39,.cls-40,.cls-42,.cls-43,.cls-45,.cls-49,.cls-8,.cls-9{stroke-miterlimit:10;}.cls-1,.cls-15,.cls-16,.cls-17,.cls-24,.cls-25,.cls-31,.cls-32,.cls-34,.cls-36,.cls-37,.cls-39,.cls-40,.cls-42,.cls-45,.cls-49,.cls-8,.cls-9{stroke-width:3px;}.cls-2{fill:#f9e419;}.cls-3{fill:#efb614;}.cls-4{fill:#fff297;}.cls-5{fill:#512c00;}.cls-6{fill:#663b0c;}.cls-7{fill:#563311;}.cls-15,.cls-16,.cls-24,.cls-31,.cls-36,.cls-37,.cls-42,.cls-45,.cls-49,.cls-8{fill:none;}.cls-13,.cls-9{fill:#ed912e;}.cls-16,.cls-9{stroke:#602700;}.cls-10{fill:#e57b33;}.cls-11{fill:#e8b331;}.cls-12{fill:#e25d34;}.cls-14{fill:#602700;}.cls-15{stroke:#ffc6b0;}.cls-15,.cls-37,.cls-40,.cls-49{stroke-linecap:round;}.cls-17{fill:#ffe817;stroke:#3e5e00;}.cls-18{fill:#ceb20d;}.cls-19{fill:#99990a;}.cls-20{fill:#6b7c08;}.cls-21{fill:#ffffca;}.cls-22{fill:#b79a0d;}.cls-23{fill:#563e28;}.cls-24{stroke:#394700;}.cls-25{fill:#ce6b19;}.cls-25,.cls-31{stroke:#492300;}.cls-26{fill:#ea781b;}.cls-27{fill:#ad5310;}.cls-28{fill:#ffdaa9;}.cls-29{fill:#ef840f;}.cls-30{fill:#eda411;}.cls-32{fill:#009640;}.cls-32,.cls-36{stroke:#541211;}.cls-33{fill:#1c693b;}.cls-34{fill:#c52126;stroke:#361f0f;}.cls-35{fill:#911a1d;stroke:#911a1d;}.cls-37{stroke:#eebbba;}.cls-38{fill:#13631a;}.cls-39,.cls-40{fill:#139146;}.cls-39,.cls-40,.cls-42{stroke:#1f4922;}.cls-41{fill:#50cc62;}.cls-43{fill:#3d467c;}.cls-43,.cls-45{stroke:#231f20;}.cls-44{fill:#4358a6;}.cls-46{fill:#27325b;}.cls-47{fill:#2c3a67;}.cls-48{fill:#182242;}.cls-49{stroke:#b7c9f9;}</style></defs><g id="Layer_2" data-name="Layer 2"><path class="cls-1" d="M8.05,564.32c4.57,10,5.18,1.66,19.83,34.73,20,44,110.3,81.73,131,89.42s26.49,25.47,29.63,32-2.95,16.23-6.2,17.82-14.41,8.56-40.14,8.15C6.56,743.6-44.76,623.92-38.06,596.36s21.43-31.13,27.78-36S-6.91,528-2.52,525.11s12.18-2.25,16-1.54,11.2,4.32,11.63,8.94S5.18,556.67,8.05,564.32Z" transform="translate(48.47 -521.46)"/></g><g id="Layer_5" data-name="Layer 5"><path class="cls-2" d="M7.84,535.83s-10.74,21.86-10.62,31-3,26.52,12.93,59.23,57.5,82.57,131.26,89.85c40.88,5.69,46.69,13.36,46.69,13.36l.67-6.59s-8.83-21.23-17.2-26.69-.75-1.62-28.36-13.73C109.56,670.2,42.64,627.87,35,611.47,27.88,599,14.94,574,14.94,574a18.69,18.69,0,0,1-7.35-9.69c-2.4-6.86,17.86-29.5,17.06-31.79s-16.82,3.27-16.82,3.27" transform="translate(48.47 -521.46)"/><path class="cls-3" d="M-24.61,570c-6.22,11.8-7.92,14.65-4.75,34.28C-21.63,647,31.6,701,40.75,708.1s48.61,38.2,133,33.88c-4.8,2.65-29.14,8.55-49.52,3.44-12-1.55-56.1-9-83.15-27.81-28.41-12.07-60.9-61.79-60.9-61.79s-25.75-43.76-19.17-56C-36.08,588.26-30.56,573.4-24.61,570Z" transform="translate(48.47 -521.46)"/></g><g id="Layer_6" data-name="Layer 6"><path class="cls-3" d="M183.91,730.57l-72.42-20.24a281,281,0,0,0,33,6.08c19.48,2.55,30.29,6.17,33.45,7.55l6.86,3Z" transform="translate(48.47 -521.46)"/><path class="cls-4" d="M7.84,535.83s-9.77,20.85-10.33,27.79-1.45,12.62-.31,18,15.42,30.21,38.08,30.49L16.14,576.26s-8.61-10-9.26-14,18.24-29.8,18.24-29.8Z" transform="translate(48.47 -521.46)"/><path class="cls-3" d="M4,532.86s-9.31,19.6-10.42,30.48,2.61,55,18.72,67C-1.09,609.87-4.24,571.79-2.54,563.63S7.8,535.83,7.8,535.83Z" transform="translate(48.47 -521.46)"/></g><g id="Layer_4" data-name="Layer 4"><path class="cls-5" d="M-3.49,527.09l11.33,8.74s15.66-.5,16.8-3.28-3.51-7.72-13.52-9.23S-3.5,527.07-3.5,527.07" transform="translate(48.47 -521.46)"/><path class="cls-5" d="M188.05,720.48,182.87,726l-1,12.32s5.41-4.07,6.23-9a25.54,25.54,0,0,0,0-8.85" transform="translate(48.47 -521.46)"/><path class="cls-6" d="M7.84,535.83A30.09,30.09,0,0,1,9,530.27c3,.68,14.6-1.38,14.6-1.38s2.16,2.67.43,4.39S7.84,535.83,7.84,535.83Z" transform="translate(48.47 -521.46)"/><path class="cls-7" d="M.31,523.65S7.64,528.8,9,530.26a47,47,0,0,0,13.11-1.13c3.14-1-9.69-5.73-9.69-5.73L.3,523.66" transform="translate(48.47 -521.46)"/></g><g id="Layer_3" data-name="Layer 3"><path class="cls-8" d="M8.05,564.32c4.57,10,5.18,1.66,19.83,34.73,20,44,110.3,81.73,131,89.42s26.49,25.47,29.63,32-2.95,16.23-6.2,17.82-14.41,8.56-40.14,8.15C6.56,743.6-44.76,623.92-38.06,596.36s21.43-31.13,27.78-36S-6.91,528-2.52,525.11s12.18-2.25,16-1.54,11.2,4.32,11.63,8.94S5.18,556.67,8.05,564.32Z" transform="translate(48.47 -521.46)"/></g><g id="Layer_2-2" data-name="Layer 2"><path class="cls-9" d="M1304.07,631.75c-3.72,34-7.81,60.26,26.14,92.09,7.38,6.92,20.09,13.66,35.65,19.27V553.2C1329.37,568.73,1306.47,609.88,1304.07,631.75Z" transform="translate(48.47 -521.46)"/></g><g id="Layer_3-2" data-name="Layer 3"><path class="cls-10" d="M1347.73,563.66c-12.3,10-35.57,33.4-41.32,57.4-6.25,17.73-7.63,60.29,4.64,79.31,14.6-27.78,33-49,54.81-62.77V553.39A69.42,69.42,0,0,0,1347.73,563.66Z" transform="translate(48.47 -521.46)"/><path class="cls-11" d="M1339.07,730.71l20,9.8s2.53,1,6.8,2.39V731.36C1357.51,731.21,1348.62,731,1339.07,730.71Z" transform="translate(48.47 -521.46)"/></g><g id="Layer_5-2" data-name="Layer 5"><path class="cls-12" d="M1331.37,578.26c-28.23,32.39-29.74,67.91-29.74,67.91l0,.05c23.08-36.63,47.53-56.21,64.26-66.27V552.46C1355.11,556.82,1343.3,564.57,1331.37,578.26Z" transform="translate(48.47 -521.46)"/></g><g id="Layer_6-2" data-name="Layer 6"><path class="cls-13" d="M1336.53,590.55c3.77.71,5.54,23.11,2.83,30.58s-15.67,28.93-19.55,28.76-1.77-27.79.37-35.42S1332.76,589.83,1336.53,590.55Z" transform="translate(48.47 -521.46)"/><path class="cls-14" d="M1327.16,608.18c.9,2.5-1.65,18.68-3.21,19.91s-3.71-4.68-3.71-4.68-5.52-4.48-5.47-6,7.61-5,7.61-5S1326.28,605.69,1327.16,608.18Z" transform="translate(48.47 -521.46)"/><path class="cls-15" d="M1435.88,562.6" transform="translate(48.47 -521.46)"/><path class="cls-15" d="M1364.69,559.72" transform="translate(48.47 -521.46)"/></g><g id="Layer_4-2" data-name="Layer 4"><path class="cls-16" d="M1304.07,631.75c-3.72,34-7.81,60.26,26.14,92.09,7.38,6.92,20.09,13.66,35.65,19.27V553.2C1329.37,568.73,1306.47,609.88,1304.07,631.75Z" transform="translate(48.47 -521.46)"/></g><g id="Layer_2-3" data-name="Layer 2"><polygon class="cls-17" points="1414.33 176.37 1362.07 117.38 1339.54 110.2 1223.44 246.72 1414.33 246.19 1414.33 176.37"/></g><g id="Layer_3-3" data-name="Layer 3"><polygon class="cls-18" points="1362.09 117.38 1339.57 110.19 1223.5 246.72 1259.72 246.62 1362.09 117.38"/><line class="cls-18" x1="1259.73" y1="246.62" x2="1223.5" y2="246.72"/></g><g id="Layer_5-3" data-name="Layer 5"><path class="cls-19" d="M1185.46,767.15a11.18,11.18,0,0,1-4.39,0,13.51,13.51,0,0,1-4-2.26l-.14,0-2.82,3.31,11.5,0A8.46,8.46,0,0,1,1185.46,767.15Z" transform="translate(48.47 -521.46)"/><path class="cls-20" d="M1175.9,767.15l-.07,0-.92,1.07h1.51C1176.09,767.58,1175.9,767.15,1175.9,767.15Z" transform="translate(48.47 -521.46)"/></g><g id="Layer_6-3" data-name="Layer 6"><path class="cls-21" d="M1313.63,638.85l-22.53-7.18-29.77,35c-.79.89,9.22-7.91,16.48-8.11s-15.54,42.1-23.85,55.6c30.24-33.93,47.42-66.81,58.44-65.13,5.91.9,31.24,26.6,53.46,50.22v-1.42Z" transform="translate(48.47 -521.46)"/><polygon class="cls-21" points="1289.44 242.35 1321.27 206.51 1296.71 230.82 1326.53 177.69 1279.37 246.56 1283.31 246.55 1289.44 242.35"/><line class="cls-21" x1="1283.31" y1="246.55" x2="1279.37" y2="246.56"/><line class="cls-21" x1="1311.54" y1="246.47" x2="1309.63" y2="246.48"/><path class="cls-21" d="M1305.38,696.65s-32.82,60.15-34.58,60.4,5.51-13.28,5.51-13.28l-15.15,24.17h1.91l4.72-6.28-.21,6.27h3.87Z" transform="translate(48.47 -521.46)"/><line class="cls-21" x1="1319.92" y1="246.45" x2="1316.05" y2="246.46"/><polygon class="cls-21" points="1363.88 212.78 1358.86 243.43 1362.09 155.39 1356.02 246.35 1361.27 246.34 1363.88 212.78"/><polygon class="cls-21" points="1336.56 164.91 1356.11 139.35 1343.07 159.15 1336.56 164.91"/><polygon class="cls-21" points="1395.45 177.7 1414.33 201.16 1414.33 197.72 1395.45 177.7"/><path class="cls-21" d="M1361.52,706.71l4.34,6.39v-1Z" transform="translate(48.47 -521.46)"/><path class="cls-21" d="M1338.71,727.23l5.52,37.66-5.52-14.11,1.93,16.94,7.17,0Z" transform="translate(48.47 -521.46)"/><polygon class="cls-21" points="1367.89 145.36 1376.41 180.2 1373.15 155.39 1367.89 145.36"/><path class="cls-21" d="M1288.07,754l-5.29,13.84h2.09C1285.53,764.05,1288.07,754,1288.07,754Z" transform="translate(48.47 -521.46)"/><path class="cls-21" d="M1294.33,743s-6.58,19.34-8.83,24.86h2.39Z" transform="translate(48.47 -521.46)"/><path class="cls-21" d="M1365.86,765.54l-6.73-19.32s2.54,10.8,5,21.43h1.73Z" transform="translate(48.47 -521.46)"/><path class="cls-21" d="M1365.86,767.65h-1.73" transform="translate(48.47 -521.46)"/><polygon class="cls-22" points="1278.67 213.84 1253.85 241.85 1255.19 232.73 1250.61 246.64 1252.89 246.63 1278.67 213.84"/><line class="cls-22" x1="1252.89" y1="246.63" x2="1250.61" y2="246.64"/><polygon class="cls-22" points="1299.97 167.98 1262.31 214.66 1291.37 192.23 1279.79 197.12 1299.97 167.98"/><path class="cls-23" d="M1195.85,764.89c-2.53-2.26-6.21-2.33-6.21,0a7.17,7.17,0,0,0,1.11,3.24l7,0A6.65,6.65,0,0,0,1195.85,764.89Z" transform="translate(48.47 -521.46)"/><path class="cls-23" d="M1197.76,768.11l-7,0" transform="translate(48.47 -521.46)"/></g><g id="Layer_4-3" data-name="Layer 4"><polygon class="cls-24" points="1414.33 176.37 1362.07 117.38 1339.54 110.2 1223.44 246.72 1414.33 246.19 1414.33 176.37"/></g><g id="Layer_2-4" data-name="Layer 2"><path class="cls-25" d="M168.29,664.22c-24.2-23-67.18-24.57-119.33-10S-29.8,703-36.16,713.45s-16.27,30-7.09,55.92S1,847.81,71.06,845.31c43.4,0,97.64-32.55,111.83-80.53S192.49,687.15,168.29,664.22Z" transform="translate(48.47 -521.46)"/></g><g id="Layer_7" data-name="Layer 7"><path class="cls-26" d="M141.43,820.57c21.23-25.74,33.43-83.89,31-94.72s6.77-49,6.77-49,15.77,25.5,11.75,50.91-3.79,21-12.21,48.39c-12,26.08-37.24,44.43-37.24,44.43" transform="translate(48.47 -521.46)"/><path class="cls-27" d="M63.75,845.36c-41.49-16.54-68.37-36.83-73.2-57.22s-35-22.62-35-22.62S-30.42,800.66-17.38,810c7.93,6.41,28.3,23.67,41.33,27.77s39.8,7.61,39.8,7.61" transform="translate(48.47 -521.46)"/></g><g id="Layer_3-4" data-name="Layer 3"><path class="cls-26" d="M39.73,657.35C-9.54,673.21-47,717-46.59,745.44c.38,27.26,8,41.87,59.37,48.55s127.57-27.55,149.05-50.91c15.16-14.61,29.91-53,11.37-73.85C151.3,641.69,101.2,635.66,39.73,657.35Z" transform="translate(48.47 -521.46)"/><path class="cls-28" d="M41.21,660.44c-47,15.09-82.73,56.74-82.36,83.79.35,25.93,7.63,39.83,56.62,46.18S137.27,764.21,157.7,742c14.47-13.89,28.54-50.41,10.86-70.26C147.69,645.54,99.87,639.8,41.21,660.44Z" transform="translate(48.47 -521.46)"/></g><g id="Layer_5-4" data-name="Layer 5"><path class="cls-29" d="M63.14,727.75c-2.19,0-46.62,56-45.37,57.58s15.54,1.33,20.3.62,17.09-2.19,20-4.69S65.33,727.75,63.14,727.75Z" transform="translate(48.47 -521.46)"/><path class="cls-29" d="M69.09,725.87c-2.82,1.07-4.4,52.26-2.82,54.14s16.91-2.66,22.39-4.7,18.61-8.76,18.61-10.68S71.9,724.78,69.09,725.87Z" transform="translate(48.47 -521.46)"/><path class="cls-29" d="M74.42,723.37c1.41-1.88,69,10.21,71.34,12.2s-6.73,11.27-10.68,14.71-17.21,10.33-21.59,10.33S73,725.25,74.42,723.37Z" transform="translate(48.47 -521.46)"/><path class="cls-29" d="M77.23,718.62c.63-1.64,84.52-18.62,87-16.27s-1.38,12.82-3.75,16.58-7.2,12.05-9.7,12.82S76.61,720.27,77.23,718.62Z" transform="translate(48.47 -521.46)"/><path class="cls-29" d="M78.49,714.93c0-1.55,77.44-42.1,80.41-41s6.11,6.88,6.89,10.48,1.56,11.28,0,12.68S78.49,716.47,78.49,714.93Z" transform="translate(48.47 -521.46)"/><path class="cls-29" d="M74.42,713.36c-1.58-2.19,50-54.82,52.22-55.89s12.71.33,16.31,1.9,11,6.41,10,9.23S76,715.54,74.42,713.36Z" transform="translate(48.47 -521.46)"/><path class="cls-29" d="M70.36,711.17c-2.72-.63,5-53.37,6.88-55.09s10.8-3.6,18.78-3.6,20,1.07,21,3.6S73.06,711.79,70.36,711.17Z" transform="translate(48.47 -521.46)"/><path class="cls-29" d="M66.27,658.59c-3.13-1.12-16.11,2.66-21.59,4.69S27.47,671.1,27.47,674s34.61,40.21,37.24,39.43S69.4,659.71,66.27,658.59Z" transform="translate(48.47 -521.46)"/><path class="cls-29" d="M59.67,716.8c1.88-1.88-39.11-37.87-41.93-38.46S7.06,682.09.84,687.88s-14.23,11.75-12.51,14.24S57.82,718.68,59.67,716.8Z" transform="translate(48.47 -521.46)"/><path class="cls-29" d="M55.63,719.93c0-2-72.59-11.9-75.72-10.33s-9,9.74-10.33,12.2-4.64,14.3-2.47,15.75S55.62,722,55.63,719.93Z" transform="translate(48.47 -521.46)"/><path class="cls-29" d="M55.63,724.31c-1.4-1.15-89,19.9-90.74,21.13s-.94,8.28,0,11.41,7.89,10.91,10.52,10.91S57,725.44,55.63,724.31Z" transform="translate(48.47 -521.46)"/><path class="cls-29" d="M57.82,727.75c-1.56-1.07-77.6,44.12-77.6,46s10.42,7.2,13.3,7.82,13.77,3.13,16.74,2.19S59.39,728.82,57.82,727.75Z" transform="translate(48.47 -521.46)"/></g><g id="Layer_6-4" data-name="Layer 6"><polygon class="cls-30" points="119.13 254.69 118.04 223.61 120.32 239.15 122.83 235.08 119.13 254.69"/><polygon class="cls-30" points="179.21 216.19 128.72 204.39 139.36 212.66 137 208.06 179.21 216.19"/><polygon class="cls-30" points="162.18 234.39 141.85 216.19 160.44 228.54 158.73 223.61 165.46 233.51 162.18 234.39"/><polygon class="cls-30" points="205.09 184.48 138.53 196.39 156.89 200.34 147.09 196.59 205.09 184.48"/><polygon class="cls-30" points="196.74 206.27 158.73 197.22 191.1 202.81 187.56 198.13 196.74 206.27"/><polygon class="cls-30" points="145.21 185.95 186.72 165.71 179.21 174.89 179.21 171.76 145.21 185.95"/><path class="cls-30" d="M161.17,694.46c-.62.42-26.71,6.48-26.71,6.48L156.57,693l-7.09-2.51L161.17,692Z" transform="translate(48.47 -521.46)"/><polygon class="cls-30" points="174.41 139.22 137 180.67 150 173 146.67 173 174.41 139.22"/><polygon class="cls-30" points="184.84 141.72 157.1 169.05 181.51 149.03 180.88 152.44 188.19 141.72 184.84 141.72"/><polygon class="cls-30" points="106.34 216.19 83.04 261.05 83.04 245.62 84.7 250.83 106.34 216.19"/><polygon class="cls-30" points="90.97 258.99 101.19 235.67 94.68 254.69 99.73 252.5 90.97 258.99"/><polygon class="cls-30" points="159.81 135.64 122.83 182.62 152.1 137.97 143.96 141.72 158.73 133.79 159.81 135.64"/><polygon class="cls-30" points="122.83 171.34 128.72 141.72 126.96 160.37 131.18 158.2 122.83 171.34"/><polygon class="cls-30" points="79.49 152.44 98.69 174.26 88.47 158.2 94.68 159.94 79.49 152.44"/><polygon class="cls-30" points="94.68 146.1 102.65 152.44 111 186.78 105.15 148.61 94.68 146.1"/><polygon class="cls-30" points="100.36 191.91 65.1 159.94 70.31 171.34 71.36 169.05 100.36 191.91"/><polygon class="cls-30" points="80.74 184.48 44.65 177.81 58.23 174.26 56.13 176.15 80.74 184.48"/><polygon class="cls-30" points="20.66 210.35 78.24 200.34 30.46 205.35 37.56 200.34 20.66 210.35"/><polygon class="cls-30" points="31.09 193.56 49.45 197.22 45.7 193.56 60.92 195.38 35.06 189.71 31.09 193.56"/><polygon class="cls-30" points="23.79 242.27 79.49 214.53 28.69 236.85 32.13 231.69 23.79 240.4 23.79 242.27"/><polygon class="cls-30" points="39.02 226.63 63.64 216.19 42.36 220.44 47.37 221.41 39.02 226.63"/><polygon class="cls-30" points="96.14 216.19 56.54 260.01 60.92 243.53 60.92 249.58 96.14 216.19"/><polygon class="cls-30" points="70.73 231.69 34.23 251.66 47.99 250 46.01 247.32 70.73 231.69"/><path class="cls-30" d="M98.2,763.74c-.84-.21-26.24-32-26.24-32l15.39,25.39-10.12-8.21,12.82,14.21Z" transform="translate(48.47 -521.46)"/></g><g id="Layer_4-4" data-name="Layer 4"><path class="cls-31" d="M168.29,664.22c-24.2-23-67.18-24.57-119.33-10S-29.8,703-36.16,713.45s-16.27,30-7.09,55.92S1,847.81,71.06,845.31c43.4,0,97.64-32.55,111.83-80.53S192.49,687.15,168.29,664.22Z" transform="translate(48.47 -521.46)"/></g><g id="Layer_13" data-name="Layer 13"><path class="cls-32" d="M256.66,720.62s-12-16.36-3.22-12.65,9.24,7.72,11.09,8.7,4.17-6.92,5.94-3.28.91,13.34.91,13.34,10.64.28,11.81,4.09-3.37,11.06-3.37,11.06-1.46-1.68,3,10.59-12.41-7-12.41-7Z" transform="translate(48.47 -521.46)"/><path class="cls-33" d="M252.83,727.71s-10-12.85-2-10.4,8.12,5.77,9.79,6.45,4.51-6.2,5.89-3.26-.22,11.2-.22,11.2,10.07-.63,10.85,2.52S273,743.8,273,743.8s-1.26-1.33,2,8.74-11.19-4.89-11.19-4.89Z" transform="translate(48.47 -521.46)"/><path class="cls-34" d="M185.14,785.44c-8.43-15.25,18.63-62.36,46.27-73.78s60.82,50.66,37.89,68.5S193.57,800.68,185.14,785.44Z" transform="translate(48.47 -521.46)"/><path class="cls-35" d="M271.13,739.47c-5.66-14.2,6.36,12.8-4.24,26.21s-63.47,31-82.36,18.64c11.27,20.69,80.36,6.16,88-8.51S276.79,753.66,271.13,739.47Z" transform="translate(48.47 -521.46)"/><path class="cls-36" d="M185.14,785.44c-8.43-15.25,18.63-62.36,46.27-73.78s60.83,50.66,37.89,68.5S193.57,800.68,185.14,785.44Z" transform="translate(48.47 -521.46)"/><path class="cls-35" d="M191.74,780.33c1.14,2.26,8.78-1.82,7.74-3.88S190.61,778.06,191.74,780.33Z" transform="translate(48.47 -521.46)"/><path class="cls-35" d="M213.4,780.05c.85,2.38,8.93-.73,8.18-2.9S212.55,777.66,213.4,780.05Z" transform="translate(48.47 -521.46)"/><path class="cls-35" d="M247.6,769.56c1.08,2.29,8.81-1.61,7.82-3.7S246.52,767.28,247.6,769.56Z" transform="translate(48.47 -521.46)"/><path class="cls-35" d="M256.84,748.32c1.54,2,8.27-3.44,6.86-5.27S255.3,746.31,256.84,748.32Z" transform="translate(48.47 -521.46)"/><path class="cls-35" d="M222.83,755.31c1.45,2.08,8.41-3.08,7.08-5S221.37,753.24,222.83,755.31Z" transform="translate(48.47 -521.46)"/><path class="cls-35" d="M233.74,726.62c.85,2.38,8.93-.72,8.18-2.9S232.89,724.23,233.74,726.62Z" transform="translate(48.47 -521.46)"/><path class="cls-35" d="M218.79,736.42c1.56,2,8.25-3.5,6.84-5.32S217.24,734.42,218.79,736.42Z" transform="translate(48.47 -521.46)"/><path class="cls-35" d="M208,752.22c1.88,1.66,7.41-5,5.66-6.54S206.13,750.57,208,752.22Z" transform="translate(48.47 -521.46)"/><path class="cls-35" d="M201.62,766c1.51,2,8.32-3.32,6.92-5.17S200.11,763.92,201.62,766Z" transform="translate(48.47 -521.46)"/><path class="cls-35" d="M245.22,741.57c.84,2.37,8.92-.73,8.17-2.91S244.37,739.18,245.22,741.57Z" transform="translate(48.47 -521.46)"/><path class="cls-35" d="M219.67,767.38c.85,2.39,8.93-.72,8.18-2.9S218.82,765,219.67,767.38Z" transform="translate(48.47 -521.46)"/><path class="cls-35" d="M231.75,777.26c1,2.31,8.85-1.35,7.93-3.47S230.73,774.94,231.75,777.26Z" transform="translate(48.47 -521.46)"/><path class="cls-35" d="M239.05,759.88c1.32,2.16,8.59-2.52,7.39-4.51S237.75,757.72,239.05,759.88Z" transform="translate(48.47 -521.46)"/><path class="cls-35" d="M228.68,741c.85,2.37,8.93-.73,8.18-2.91S227.83,738.6,228.68,741Z" transform="translate(48.47 -521.46)"/><path class="cls-35" d="M259.49,761.7c1.81,1.76,7.69-4.6,6-6.21S257.68,759.93,259.49,761.7Z" transform="translate(48.47 -521.46)"/><path class="cls-35" d="M248,729.29c.84,2.39,8.92-.73,8.17-2.9S247.1,726.91,248,729.29Z" transform="translate(48.47 -521.46)"/><path class="cls-37" d="M221.76,722.71s9.11-7.92,16-7.92a20.9,20.9,0,0,1,11,2.75" transform="translate(48.47 -521.46)"/></g><g id="Layer_11-2" data-name="Layer 11"><path class="cls-32" d="M177.05,723.39s14.47-19.72,3.89-15.25-11.15,9.31-13.38,10.5-5-8.38-7.16-4-1.1,16.08-1.1,16.08-12.83.34-14.24,5S149.12,749,149.12,749s1.75-2-3.64,12.78,14.94-8.4,14.94-8.4Z" transform="translate(48.47 -521.46)"/><path class="cls-33" d="M181.68,732s12.08-15.5,2.45-12.58-9.8,7-11.81,7.78-5.45-7.48-7.11-3.92.26,13.5.26,13.5-12.12-.75-13.09,3,4.94,11.6,4.94,11.6,1.49-1.56-2.42,10.51S168.39,756,168.39,756Z" transform="translate(48.47 -521.46)"/><path class="cls-34" d="M263.34,801.6c10.17-18.38-22.48-75.23-55.82-89s-73.38,61.12-45.71,82.64S253.17,820,263.34,801.6Z" transform="translate(48.47 -521.46)"/><path class="cls-35" d="M159.57,746.14c6.8-17.13-7.66,15.44,5.11,31.62s76.58,37.41,99.39,22.48c-13.6,25-96.95,7.43-106.11-10.26S152.77,763.26,159.57,746.14Z" transform="translate(48.47 -521.46)"/><path class="cls-36" d="M263.34,801.6c10.17-18.38-22.48-75.23-55.83-89s-73.37,61.12-45.7,82.64S253.17,820,263.34,801.6Z" transform="translate(48.47 -521.46)"/><path class="cls-35" d="M255.37,795.43c-1.37,2.73-10.58-2.19-9.33-4.68S256.74,792.7,255.37,795.43Z" transform="translate(48.47 -521.46)"/><path class="cls-35" d="M229.25,795.09c-1,2.88-10.77-.88-9.84-3.5S230.27,792.22,229.25,795.09Z" transform="translate(48.47 -521.46)"/><path class="cls-35" d="M188,782.44c-1.3,2.76-10.63-2-9.44-4.46S189.3,779.68,188,782.44Z" transform="translate(48.47 -521.46)"/><path class="cls-35" d="M176.84,756.82c-1.89,2.42-10-4.15-8.28-6.36S178.7,754.42,176.84,756.82Z" transform="translate(48.47 -521.46)"/><path class="cls-35" d="M217.88,765.25c-1.75,2.52-10.15-3.71-8.55-6S219.62,762.75,217.88,765.25Z" transform="translate(48.47 -521.46)"/><path class="cls-35" d="M204.7,730.64c-1,2.87-10.77-.88-9.83-3.5S205.71,727.76,204.7,730.64Z" transform="translate(48.47 -521.46)"/><path class="cls-35" d="M222.74,742.47c-1.89,2.4-10-4.22-8.24-6.42S224.61,740.05,222.74,742.47Z" transform="translate(48.47 -521.46)"/><path class="cls-35" d="M235.72,761.53c-2.31,2-8.94-6.08-6.84-7.91S238,759.53,235.72,761.53Z" transform="translate(48.47 -521.46)"/><path class="cls-35" d="M243.45,778.08c-1.82,2.45-10.06-4-8.37-6.23S245.28,775.64,243.45,778.08Z" transform="translate(48.47 -521.46)"/><path class="cls-35" d="M190.86,748.67c-1,2.87-10.77-.88-9.83-3.51S191.87,745.79,190.86,748.67Z" transform="translate(48.47 -521.46)"/><path class="cls-35" d="M221.69,779.81c-1,2.88-10.78-.87-9.84-3.5S222.69,776.94,221.69,779.81Z" transform="translate(48.47 -521.46)"/><path class="cls-35" d="M207.12,791.73c-1.22,2.79-10.7-1.63-9.58-4.18S208.34,788.93,207.12,791.73Z" transform="translate(48.47 -521.46)"/><path class="cls-35" d="M198.27,770.78c-1.58,2.6-10.36-3-8.91-5.44S199.87,768.16,198.27,770.78Z" transform="translate(48.47 -521.46)"/><path class="cls-35" d="M210.81,748c-1,2.87-10.77-.88-9.84-3.5S211.83,745.09,210.81,748Z" transform="translate(48.47 -521.46)"/><path class="cls-35" d="M173.63,773c-2.19,2.13-9.28-5.54-7.29-7.49S175.84,770.82,173.63,773Z" transform="translate(48.47 -521.46)"/><path class="cls-35" d="M187.57,733.86c-1,2.87-10.77-.88-9.83-3.5S188.59,731,187.57,733.86Z" transform="translate(48.47 -521.46)"/></g><g id="Layer_15" data-name="Layer 15"><path class="cls-37" d="M194.94,718.23a24.62,24.62,0,0,0-9.4,4.48" transform="translate(48.47 -521.46)"/><path class="cls-37" d="M198.71,717.55a19.26,19.26,0,0,1,8.42,1.44c20.92,8.65,41.52,36.6,48.33,57.74" transform="translate(48.47 -521.46)"/></g><path class="cls-38" d="M1101.16,719.36l-18.59,0" transform="translate(48.47 -521.46)"/><path class="cls-39" d="M1158,767.6c33.84,6.06,45.49-47.5,47.55-58.78a2,2,0,0,0,0-.34,1.77,1.77,0,0,0-1.79-1.74c-8.51.11-40.81,2.48-59.88,31.08C1121.84,771,1120.23,760.83,1158,767.6Z" transform="translate(48.47 -521.46)"/><path class="cls-40" d="M1162.51,740.35c7.19-13.13,38.65-30.27,38.65-30.27" transform="translate(48.47 -521.46)"/><path class="cls-41" d="M1159.76,728.84a113.37,113.37,0,0,1,44.07-22.08c-30.62.41-50.49,19.12-50.17,21S1159.76,728.84,1159.76,728.84Z" transform="translate(48.47 -521.46)"/><path class="cls-38" d="M1180.37,745.05c8.5-3.91,21.76-21.77,21.76-21.77s-5,16.89-10,24.28S1171.87,749,1180.37,745.05Z" transform="translate(48.47 -521.46)"/><path class="cls-42" d="M1158,767.6c33.84,6.06,45.49-47.5,47.55-58.78a2,2,0,0,0,0-.34,1.77,1.77,0,0,0-1.79-1.74c-8.51.11-40.81,2.48-59.88,31.08C1121.84,771,1120.23,760.83,1158,767.6Z" transform="translate(48.47 -521.46)"/><path class="cls-39" d="M1135.53,739.6c-31.81-12.23-59.9,2.74-67,7.08a1.57,1.57,0,0,0-.59,2.15,1.52,1.52,0,0,0,.3.37,139.61,139.61,0,0,0,25.45,19.21l48.75-.13C1168.24,745.47,1171.55,753.43,1135.53,739.6Z" transform="translate(48.47 -521.46)"/><path class="cls-40" d="M1124.41,759.33c-12.23-8.29-48-10.4-48-10.4" transform="translate(48.47 -521.46)"/><path class="cls-41" d="M1125.27,741.15a120.92,120.92,0,0,0-49.2,1.41c26.9-13.24,53.35-6.69,54-5S1125.27,741.15,1125.27,741.15Z" transform="translate(48.47 -521.46)"/><path class="cls-38" d="M1109.4,764.14c-9.24,1.4-30.21-5.54-30.21-5.54a168.46,168.46,0,0,0,14.38,9.81l18.59,0C1114,765.92,1113.75,763.48,1109.4,764.14Z" transform="translate(48.47 -521.46)"/><path class="cls-42" d="M1135.53,739.68c-31.81-12.22-59.9,2.74-67,7.08a1.58,1.58,0,0,0-.29,2.53,140.08,140.08,0,0,0,25.45,19.21l48.75-.13C1168.24,745.56,1171.55,753.51,1135.53,739.68Z" transform="translate(48.47 -521.46)"/><g id="back_berry" data-name="back berry"><path class="cls-43" d="M1190.93,740.18a29.93,29.93,0,1,0-52,28.09l47.65-.13A29.93,29.93,0,0,0,1190.93,740.18Z" transform="translate(48.47 -521.46)"/><path class="cls-43" d="M1186.56,768.14l-47.65.13" transform="translate(48.47 -521.46)"/><path class="cls-44" d="M1134.7,739.71c13.84-33.08,54.45-18.42,56.07,2.84C1168.93,728.84,1158.75,728.87,1134.7,739.71Z" transform="translate(48.47 -521.46)"/><path class="cls-45" d="M1190.93,740.18a29.93,29.93,0,1,0-52,28.09l47.65-.13A29.93,29.93,0,0,0,1190.93,740.18Z" transform="translate(48.47 -521.46)"/><path class="cls-45" d="M1186.56,768.14l-47.65.13" transform="translate(48.47 -521.46)"/><path class="cls-46" d="M1137.92,744.68s8.35,32.27,35.14,9.26C1157.82,759.38,1137.92,744.68,1137.92,744.68Z" transform="translate(48.47 -521.46)"/></g><g id="Layer_5-5" data-name="Layer 5"><path class="cls-47" d="M1150.43,735.26a.25.25,0,0,0-.31.19.24.24,0,0,0,0,.2,6.75,6.75,0,0,1,1.24,4c-.22,1.43-2.25,3.2-3.44,4.15a.26.26,0,0,0,0,.37.27.27,0,0,0,.22.11c1.23-.15,3.27-.21,4.43.79,1.32,1.15,2.4,4.4,2.85,5.92a.25.25,0,0,0,.31.19.27.27,0,0,0,.19-.17,11.15,11.15,0,0,1,3.39-4.66,46.4,46.4,0,0,1,7.49-4.08.25.25,0,0,0,.15-.34.24.24,0,0,0-.2-.16c-1.2-.27-3.4-.88-4.37-2-1.08-1.27-1.24-5-1.25-6.28a.27.27,0,0,0-.27-.26.23.23,0,0,0-.14,0,19.24,19.24,0,0,1-4.91,2.22A15.31,15.31,0,0,1,1150.43,735.26Z" transform="translate(48.47 -521.46)"/><circle class="cls-48" cx="1205.02" cy="219.7" r="4.4"/></g><g id="front_right_berry" data-name="front right berry"><path class="cls-43" d="M1217.06,760.52a31.34,31.34,0,0,0-60.8,7.7l62.44-.17A31.56,31.56,0,0,0,1217.06,760.52Z" transform="translate(48.47 -521.46)"/><path class="cls-44" d="M1170.66,744.44c14.2-2.65,36.12-1.26,42.47,23.63l5.6,0C1217.56,744.09,1188.32,732.8,1170.66,744.44Z" transform="translate(48.47 -521.46)"/><path class="cls-44" d="M1218.73,768.05l-5.6,0" transform="translate(48.47 -521.46)"/><path class="cls-46" d="M1162.17,752.59c-2.75,2.29-4.43,8.43-4.34,15.63l7.06,0A93.34,93.34,0,0,1,1162.17,752.59Z" transform="translate(48.47 -521.46)"/><path class="cls-45" d="M1217.1,760.63a31.35,31.35,0,0,0-60.8,7.59l62.43-.17A31.55,31.55,0,0,0,1217.1,760.63Z" transform="translate(48.47 -521.46)"/></g><g id="Layer_6-5" data-name="Layer 6"><path class="cls-47" d="M1190.08,765.67c2-.71,5.86-.3,7.64-.06a.44.44,0,0,0,.47-.4.51.51,0,0,0-.06-.25c-1-1.59-3.08-5.13-3.3-6.91s2.22-5.19,3.39-6.69a.43.43,0,0,0-.07-.61.45.45,0,0,0-.29-.1,42.22,42.22,0,0,1-7.85-.24c-2.2-.43-5.65-3.62-7-5a.43.43,0,0,0-.61,0,.42.42,0,0,0-.12.26,31.46,31.46,0,0,1-1.8,7.18c-.9,1.85-4.54,5.26-6.21,6.77a.44.44,0,0,0,0,.62.42.42,0,0,0,.31.15c1.67.06,4.72.39,6,2,.89,1.08,1.63,3.59,2.18,5.8h4.25A8.81,8.81,0,0,1,1190.08,765.67Z" transform="translate(48.47 -521.46)"/><path class="cls-47" d="M1186.94,768.14h-4.25" transform="translate(48.47 -521.46)"/><circle class="cls-48" cx="1235.44" cy="236.4" r="6.04"/></g><g id="back_left_berry" data-name="back left berry"><path class="cls-43" d="M1143.78,746.24a27.68,27.68,0,1,0-52.23,18.33,28.59,28.59,0,0,0,1.67,3.83l48.94-.14A27.58,27.58,0,0,0,1143.78,746.24Z" transform="translate(48.47 -521.46)"/><path class="cls-43" d="M1142.16,768.26l-48.94.14" transform="translate(48.47 -521.46)"/><path class="cls-44" d="M1097.46,737c22.68-4.35,33.23-1.88,48.19,19.24C1143.44,722.9,1108.38,723,1097.46,737Z" transform="translate(48.47 -521.46)"/><path class="cls-46" d="M1093.09,743.4c-3.59,1.27-4.25,14.77.56,25l10.69,0C1095.41,763.85,1091.91,755.36,1093.09,743.4Z" transform="translate(48.47 -521.46)"/><path class="cls-46" d="M1104.34,768.37l-10.69,0" transform="translate(48.47 -521.46)"/><path class="cls-45" d="M1144.09,746.36a27.67,27.67,0,1,0-52.22,18.33,27.33,27.33,0,0,0,1.61,3.71l49.06-.14A27.55,27.55,0,0,0,1144.09,746.36Z" transform="translate(48.47 -521.46)"/><path class="cls-45" d="M1142.54,768.26l-49.06.14" transform="translate(48.47 -521.46)"/></g><g id="Layer_7-2" data-name="Layer 7"><path class="cls-47" d="M1109.39,768.35l-4.88,0" transform="translate(48.47 -521.46)"/><path class="cls-47" d="M1110.63,767.56c1.13-.52,5.37-2,8-2.84a.69.69,0,0,0,.46-.45.71.71,0,0,0-.44-.91c-1.55-.53-3.44-1.32-3.65-1.93-.28-.78.39-4.6.77-6.6a.72.72,0,0,0-.93-.83c-1.82.63-5.26,1.66-6,1.35s-2.56-2.39-3.68-3.76a.73.73,0,0,0-.42-.25.73.73,0,0,0-.85.57,35.33,35.33,0,0,1-1.65,6.17c-.53,1.16-2.26,2.35-3.5,3.09a.72.72,0,0,0-.32.37.73.73,0,0,0,.44.93c1.83.68,4.76,2,5.26,2.92a8,8,0,0,1,.42,3l4.88,0A7.14,7.14,0,0,1,1110.63,767.56Z" transform="translate(48.47 -521.46)"/><circle class="cls-48" cx="1157.05" cy="240.21" r="4.4"/></g><g id="front_berry" data-name="front berry"><path class="cls-43" d="M1126.39,756.69a33.6,33.6,0,0,0-15.88,11.66l54-.15A33.78,33.78,0,0,0,1126.39,756.69Z" transform="translate(48.47 -521.46)"/><path class="cls-44" d="M1116.07,762.51c16.08-2.42,29.07-2.29,39.4,5.72l9.27,0C1152.53,750.82,1126.27,752,1116.07,762.51Z" transform="translate(48.47 -521.46)"/><path class="cls-45" d="M1126.39,756.69a33.6,33.6,0,0,0-15.88,11.66l54-.15A33.78,33.78,0,0,0,1126.39,756.69Z" transform="translate(48.47 -521.46)"/></g><g id="Layer_11-3" data-name="Layer 11"><path class="cls-49" d="M1190.77,742.55c3.8-.64,18.36,4.43,22.91,16.08" transform="translate(48.47 -521.46)"/><path class="cls-49" d="M1215.07,761.81c.9,2.36.43,1.69.43,3.69" transform="translate(48.47 -521.46)"/><path class="cls-49" d="M1155,723.91c3.37-1.82,18.79-1.89,26.94,7.6" transform="translate(48.47 -521.46)"/><path class="cls-49" d="M1147.55,727a13.13,13.13,0,0,1,4.1-2" transform="translate(48.47 -521.46)"/><path class="cls-49" d="M1135.84,757.75c10.88-.24,14.66.75,21.66,7.75" transform="translate(48.47 -521.46)"/><path class="cls-49" d="M1111.7,731.07c8.35-1.38,16.45-.54,24.36,6.87" transform="translate(48.47 -521.46)"/></g></svg>