<svg id="fruits" xmlns="http://www.w3.org/2000/svg" viewBox="0 0 1366 768"><defs><style>.cls-1{fill:#f7cd1c;}.cls-1,.cls-8{stroke:#512c00;}.cls-1,.cls-15,.cls-16,.cls-17,.cls-24,.cls-25,.cls-31,.cls-32,.cls-34,.cls-35,.cls-36,.cls-37,.cls-38,.cls-39,.cls-42,.cls-43,.cls-45,.cls-49,.cls-8,.cls-9{stroke-miterlimit:10;}.cls-1,.cls-15,.cls-16,.cls-17,.cls-24,.cls-25,.cls-31,.cls-32,.cls-34,.cls-36,.cls-37,.cls-38,.cls-39,.cls-42,.cls-45,.cls-49,.cls-8,.cls-9{stroke-width:3px;}.cls-2{fill:#f9e419;}.cls-3{fill:#efb614;}.cls-4{fill:#fff297;}.cls-5{fill:#512c00;}.cls-6{fill:#663b0c;}.cls-7{fill:#563311;}.cls-15,.cls-16,.cls-24,.cls-31,.cls-36,.cls-37,.cls-42,.cls-45,.cls-49,.cls-8{fill:none;}.cls-13,.cls-9{fill:#ed912e;}.cls-16,.cls-9{stroke:#602700;}.cls-10{fill:#e57b33;}.cls-11{fill:#e8b331;}.cls-12{fill:#e25d34;}.cls-14{fill:#602700;}.cls-15{stroke:#ffc6b0;}.cls-15,.cls-37,.cls-39,.cls-49{stroke-linecap:round;}.cls-17{fill:#ffe817;stroke:#3e5e00;}.cls-18{fill:#ceb20d;}.cls-19{fill:#99990a;}.cls-20{fill:#6b7c08;}.cls-21{fill:#ffffca;}.cls-22{fill:#b79a0d;}.cls-23{fill:#563e28;}.cls-24{stroke:#394700;}.cls-25{fill:#ce6b19;}.cls-25,.cls-31{stroke:#492300;}.cls-26{fill:#ea781b;}.cls-27{fill:#ad5310;}.cls-28{fill:#ffdaa9;}.cls-29{fill:#ef840f;}.cls-30{fill:#eda411;}.cls-32{fill:#009640;}.cls-32,.cls-36{stroke:#541211;}.cls-33{fill:#1c693b;}.cls-34{fill:#c52126;stroke:#361f0f;}.cls-35{fill:#911a1d;stroke:#911a1d;}.cls-37{stroke:#eebbba;}.cls-38,.cls-39{fill:#139146;}.cls-38,.cls-39,.cls-42{stroke:#1f4922;}.cls-40{fill:#50cc62;}.cls-41{fill:#13631a;}.cls-43{fill:#3d467c;}.cls-43,.cls-45{stroke:#231f20;}.cls-44{fill:#4358a6;}.cls-46{fill:#27325b;}.cls-47{fill:#2c3a67;}.cls-48{fill:#182242;}.cls-49{stroke:#b7c9f9;}</style></defs><g id="Layer_2" data-name="Layer 2"><path class="cls-1" d="M8.46,564.78c4.56,10,5.18,1.66,19.83,34.73,20,44,110.29,81.73,131,89.43s26.49,25.46,29.63,32-3,16.23-6.19,17.82-14.41,8.56-40.15,8.16C7,744.07-44.36,624.39-37.66,596.83s21.43-31.13,27.78-36.05,3.38-32.28,7.77-35.21,12.17-2.24,16-1.53,11.19,4.32,11.62,8.93S5.59,557.13,8.46,564.78Z"/></g><g id="Layer_5" data-name="Layer 5"><path class="cls-2" d="M8.25,536.29s-10.75,21.86-10.63,31-3,26.52,12.94,59.22,57.49,82.58,131.26,89.86c40.88,5.68,46.68,13.36,46.68,13.36l.67-6.6s-8.82-21.23-17.19-26.68-.75-1.63-28.36-13.74C110,670.66,43,628.33,35.41,611.93c-7.12-12.52-20.06-37.51-20.06-37.51A18.66,18.66,0,0,1,8,564.73C5.6,557.87,25.85,535.23,25.06,533s-16.82,3.26-16.82,3.26"/><path class="cls-3" d="M-24.21,570.46c-6.22,11.81-7.91,14.66-4.74,34.28,7.72,42.75,61,96.76,70.11,103.83s48.6,38.19,133,33.87c-4.79,2.66-29.14,8.56-49.51,3.44-12-1.55-56.1-9-83.15-27.81C13,706-19.45,656.28-19.45,656.28s-25.74-43.76-19.17-56C-35.68,588.72-30.16,573.87-24.21,570.46Z"/></g><g id="Layer_6" data-name="Layer 6"><path class="cls-3" d="M184.31,731l-72.42-20.25a281.57,281.57,0,0,0,33,6.08c19.48,2.55,30.28,6.17,33.44,7.56l6.87,3Z"/><path class="cls-4" d="M8.25,536.29s-9.78,20.86-10.34,27.8-1.45,12.62-.31,18S13,612.33,35.68,612.62l-19.13-35.9s-8.62-10-9.27-14S25.52,533,25.52,533Z"/><path class="cls-3" d="M4.39,533.33S-4.91,552.92-6,563.8s2.61,55,18.71,67C-.69,610.33-3.83,572.25-2.13,564.09S8.2,536.3,8.2,536.3Z"/></g><g id="Layer_4" data-name="Layer 4"><path class="cls-5" d="M-3.09,527.55l11.34,8.74S23.91,535.79,25,533s-3.5-7.71-13.51-9.23S-3.1,527.54-3.1,527.54"/><path class="cls-5" d="M188.45,720.94l-5.18,5.52-1,12.31s5.41-4.07,6.24-9a25.54,25.54,0,0,0,0-8.85"/><path class="cls-6" d="M8.25,536.29a29.34,29.34,0,0,1,1.18-5.55c3,.67,14.61-1.39,14.61-1.39s2.15,2.67.42,4.39S8.25,536.29,8.25,536.29Z"/><path class="cls-7" d="M.71,524.11s7.34,5.16,8.69,6.61a47,47,0,0,0,13.11-1.13c3.13-1-9.7-5.72-9.7-5.72l-12.1.25"/></g><g id="Layer_3" data-name="Layer 3"><path class="cls-8" d="M8.46,564.78c4.56,10,5.18,1.66,19.83,34.73,20,44,110.29,81.73,131,89.43s26.49,25.46,29.63,32-3,16.23-6.19,17.82-14.41,8.56-40.15,8.16C7,744.07-44.36,624.39-37.66,596.83s21.43-31.13,27.78-36.05,3.38-32.28,7.77-35.21,12.17-2.24,16-1.53,11.19,4.32,11.62,8.93S5.59,557.13,8.46,564.78Z"/></g><g id="Layer_2-2" data-name="Layer 2"><path class="cls-9" d="M1304.47,632.22c3.73-34,57-114.6,133.84-73.09,42.78,18,110.49,88.52,91.66,156.75s-165.41,40.26-199.36,8.43S1300.75,666.18,1304.47,632.22Z"/></g><g id="Layer_3-2" data-name="Layer 3"><path class="cls-10" d="M1311.45,700.84c41.86-79.67,115-105,209.79-58.28-14.48-27.41-39.27-61.25-82.93-83.43s-77.88-5-90.18,5-35.57,33.4-41.32,57.4C1300.56,639.26,1299.18,681.82,1311.45,700.84Z"/><path class="cls-11" d="M1339.47,731.18c111.38,3.24,135.41-1.32,193.47-32.63,1.81,8.84-5.55,27-10.2,32.43s-57.43,25.86-87.85,26.37S1359.46,741,1359.46,741"/></g><g id="Layer_5-2" data-name="Layer 5"><path class="cls-12" d="M1302,646.69c40.39-64.11,85-76,85-76s34.49-9.6,96.73,20.34c-40.28-36.54-67.54-42.65-81.84-43.3s-41.89-1.39-70.12,31S1302,646.64,1302,646.64"/></g><g id="Layer_6-2" data-name="Layer 6"><path class="cls-13" d="M1336.93,591c3.77.71,5.54,23.11,2.83,30.58s-15.67,28.93-19.55,28.76-1.77-27.79.37-35.42S1333.16,590.3,1336.93,591Z"/><path class="cls-14" d="M1327.56,608.65c.9,2.5-1.65,18.68-3.21,19.91s-3.71-4.68-3.71-4.68-5.52-4.48-5.47-6,7.61-5,7.61-5S1326.68,606.16,1327.56,608.65Z"/><path class="cls-15" d="M1365.09,560.19c10.34-4.93,31.33-16,71.19,2.88"/></g><g id="Layer_4-2" data-name="Layer 4"><path class="cls-16" d="M1304.47,632.22c3.73-34,57-114.6,133.84-73.09,42.78,18,110.49,88.52,91.66,156.75s-165.41,40.26-199.36,8.43S1300.75,666.18,1304.47,632.22Z"/></g><g id="Layer_2-3" data-name="Layer 2"><path class="cls-17" d="M1291.47,632.12,1314,639.3l116.94,132c-81.33,81.9-192.86,39.79-233.89,15.59L1172.55,772Z"/></g><g id="Layer_3-3" data-name="Layer 3"><polygon class="cls-18" points="1291.5 632.11 1172.58 771.99 1197.08 786.94 1314.02 639.3 1291.5 632.11"/></g><g id="Layer_5-3" data-name="Layer 5"><path class="cls-19" d="M1177.47,765.35a13.41,13.41,0,0,0,4,2.26,11.18,11.18,0,0,0,4.39,0,12,12,0,0,0,1.38,4.48c1.13,1.75,1.89,1.22,4.24,3.07s3.53,2.72,5.66,3.19a14,14,0,0,1,4.4,2.17s11.24,9.36,14,9.62,5.16-3.16,5.16-3.16,2,4,4,4.78,20.8,10.27,24.93,9.77,9-4.63,9-4.63-1,3.38.26,3.51,7.39-3.26,7.39-3.26-2.26,5.51-1,8.64c5.89,2.64,21.3,4.52,23.68,4.52s4.89-3.64,4.89-3.64a16.75,16.75,0,0,0,3.88,4c2,1.25,22.2,2.87,27.44,2s20.3-3.89,23.06-3.39,1.13-5.76,1.13-5.76,3,1.46,4.35,1.46,1-5.85,1-5.85,5.39,5.64,6.64,6,1.5.25,4.76-.63,5.64-5.76,5.64-5.76,12.53.49,15.54-1.64,8.62-3.53,12.78-6.26,12.45-8.4,16-10.53l11.16-6.6c-110.9,99.33-253.63-4-253.63-4l3.73-4.38"/><path class="cls-20" d="M1176.3,767.61s1.79,3.93,3.67,4.44,4.76-2.22,4.76-2.22-2.13,3.47-1,5.22,5.42,1.15,7.77,3,2.64,3.29,4.76,3.76l4.15.92s13.14,10.09,15.9,10.36,5-3,5-3-.29,4.28,1.76,5,23.93,10.53,28.07,10,5-5.27,5-5.27,0,5.14,1.25,5.27,6.27-5.52,6.27-5.52-3.51,6.65-2.26,9.78c5.89,2.63,24.94,4.51,27.32,4.51s4-5,4-5-.25,3.76,1.75,5,26.09,2.87,31.33,2,20-4.26,22.81-3.76,4.26-5.76,4.26-5.76,1.38,2.51,2.75,2.51,0-7.27,0-7.27,2.51,7.14,3.76,7.52,7.52-1.88,10.78-2.76,2.51-5,2.51-5,10.52.12,13.53-2,8.62-3.53,12.78-6.26,12.45-8.4,16-10.53l11.16-6.6c-110.91,99.33-253.63-4-253.63-4l3.72-4.39"/></g><g id="Layer_6-3" data-name="Layer 6"><path class="cls-21" d="M1402.31,739s-78.49-87.82-89.51-89.5-28.2,31.2-58.44,65.13c8.31-13.5,31.11-55.8,23.85-55.6s-17.27,9-16.48,8.11l29.77-35,22.53,7.18L1402.31,739"/><polygon class="cls-21" points="1227.84 773.54 1278.46 699.61 1248.64 752.74 1273.2 728.43 1241.37 764.27 1227.84 773.54"/><path class="cls-21" d="M1251.9,783.82l24.81-39.59s-7.27,13.53-5.51,13.28,34.58-60.4,34.58-60.4l-38.09,80,.5-15Z"/><polygon class="cls-21" points="1305.78 800.86 1314.02 677.31 1310.79 765.35 1315.81 734.7 1312.3 779.81 1305.78 800.86"/><polygon class="cls-21" points="1288.49 686.83 1308.04 661.27 1295 681.07 1288.49 686.83"/><path class="cls-21" d="M1411.79,769.82c-1.75-3-49.87-62.65-49.87-62.65l19,28.06-33.59-35.61,43.36,53.88Z"/><path class="cls-21" d="M1344.63,798.36c-.25-.75-5.52-47.12-5.52-47.12l5.52,14.11-5.52-37.66,11.78,52.38-5.89-4.52Z"/><polygon class="cls-21" points="1319.82 667.28 1328.34 702.12 1325.08 677.31 1319.82 667.28"/><path class="cls-21" d="M1272.7,795.82l15.77-41.32s-4,15.79-3.26,15.29,9.52-26.32,9.52-26.32l-10,38.6Z"/><path class="cls-21" d="M1369.05,788.54c0-1.51-9.52-41.86-9.52-41.86l9.52,27.32,3.76-6.39Z"/><polygon class="cls-22" points="1200.9 773.54 1230.6 735.76 1205.78 763.77 1207.12 754.65 1200.9 773.54"/><polygon class="cls-22" points="1251.9 689.9 1214.24 736.58 1243.3 714.15 1231.72 719.04 1251.9 689.9"/><path class="cls-23" d="M1190,765.35c0-2.33,3.68-2.26,6.21,0s3.1,7.22,0,7.22S1190,767.68,1190,765.35Z"/></g><g id="Layer_4-3" data-name="Layer 4"><path class="cls-24" d="M1291.47,632.12,1314,639.3l116.94,132c-81.33,81.9-192.86,39.79-233.89,15.59L1172.55,772Z"/></g><g id="Layer_2-4" data-name="Layer 2"><path class="cls-25" d="M168.7,664.69c-24.2-23-67.18-24.58-119.34-10s-78.76,48.8-85.12,59.24S-52,744-42.85,769.83,1.38,848.27,71.46,845.77c43.4,0,97.64-32.55,111.83-80.53S192.89,687.61,168.7,664.69Z"/></g><g id="Layer_7" data-name="Layer 7"><path class="cls-26" d="M141.84,821c21.23-25.74,33.43-83.89,31-94.72s6.77-49,6.77-49,15.77,25.51,11.75,50.91-3.79,21-12.21,48.4c-12,26.08-37.24,44.42-37.24,44.42"/><path class="cls-27" d="M64.16,845.83C22.66,829.29-4.22,809-9,788.61s-35-22.62-35-22.62S-30,801.13-17,810.43c7.92,6.41,28.3,23.68,41.32,27.78s39.81,7.61,39.81,7.61"/></g><g id="Layer_3-4" data-name="Layer 3"><path class="cls-26" d="M40.13,657.82c-49.26,15.85-86.7,59.64-86.31,88.08.37,27.27,8,41.87,59.37,48.55s127.57-27.54,149-50.91c15.16-14.6,29.92-53,11.37-73.84C151.71,642.16,101.6,636.12,40.13,657.82Z"/><path class="cls-28" d="M41.62,660.9c-47,15.09-82.74,56.75-82.36,83.8.35,25.92,7.62,39.82,56.62,46.17s121.79-26.2,142.23-48.42c14.46-13.89,28.53-50.4,10.85-70.25C148.1,646,100.28,640.26,41.62,660.9Z"/></g><g id="Layer_5-4" data-name="Layer 5"><path class="cls-29" d="M63.55,728.21c-2.19,0-46.62,56-45.37,57.59s15.53,1.32,20.29.61,17.1-2.19,20-4.69S65.74,728.21,63.55,728.21Z"/><path class="cls-29" d="M69.5,726.33c-2.82,1.07-4.4,52.26-2.82,54.14s16.9-2.66,22.38-4.7,18.61-8.76,18.61-10.68S72.31,725.24,69.5,726.33Z"/><path class="cls-29" d="M74.82,723.83c1.41-1.88,69,10.21,71.34,12.2s-6.73,11.27-10.68,14.71-17.21,10.33-21.59,10.33S73.41,725.71,74.82,723.83Z"/><path class="cls-29" d="M77.63,719.09c.63-1.65,84.53-18.62,87-16.27s-1.38,12.82-3.75,16.58-7.21,12.05-9.71,12.82S77,720.73,77.63,719.09Z"/><path class="cls-29" d="M78.89,715.39c0-1.55,77.44-42.09,80.41-41s6.12,6.88,6.9,10.48,1.56,11.27,0,12.67S78.89,716.93,78.89,715.39Z"/><path class="cls-29" d="M74.82,713.82c-1.57-2.19,50-54.82,52.22-55.89s12.71.34,16.31,1.91,11,6.41,10,9.23S76.38,716,74.82,713.82Z"/><path class="cls-29" d="M70.76,711.63c-2.71-.63,5-53.36,6.88-55.08s10.8-3.6,18.78-3.6,20,1.06,21,3.6S73.46,712.25,70.76,711.63Z"/><path class="cls-29" d="M66.68,659.06c-3.13-1.13-16.11,2.66-21.59,4.69s-17.21,7.82-17.21,10.68,34.6,40.21,37.24,39.43S69.81,660.18,66.68,659.06Z"/><path class="cls-29" d="M60.08,717.26C62,715.38,21,679.4,18.14,678.8s-10.68,3.75-16.9,9.54S-13,700.09-11.27,702.58,58.23,719.14,60.08,717.26Z"/><path class="cls-29" d="M56,720.39c0-2-72.6-11.9-75.73-10.33s-9,9.74-10.33,12.2-4.63,14.31-2.47,15.76S56,722.42,56,720.39Z"/><path class="cls-29" d="M56,724.77c-1.4-1.14-89,19.9-90.75,21.13s-.94,8.28,0,11.41,7.9,10.91,10.53,10.91S57.45,725.9,56,724.77Z"/><path class="cls-29" d="M58.23,728.21c-1.56-1.07-77.61,44.12-77.61,46S-9,781.42-6.08,782s13.77,3.13,16.74,2.19S59.8,729.28,58.23,728.21Z"/></g><g id="Layer_6-4" data-name="Layer 6"><polygon class="cls-30" points="71.06 776.61 69.97 745.53 72.25 761.07 74.77 757 71.06 776.61"/><polygon class="cls-30" points="131.14 738.12 80.65 726.31 91.29 734.58 88.93 729.99 131.14 738.12"/><polygon class="cls-30" points="114.11 756.31 93.78 738.12 112.37 750.47 110.66 745.53 117.39 755.43 114.11 756.31"/><polygon class="cls-30" points="157.02 706.41 90.46 718.31 108.83 722.26 99.02 718.51 157.02 706.41"/><polygon class="cls-30" points="148.68 728.19 110.66 719.14 143.03 724.73 139.49 720.05 148.68 728.19"/><polygon class="cls-30" points="97.14 707.87 138.65 687.63 131.14 696.81 131.14 693.68 97.14 707.87"/><path class="cls-30" d="M161.57,694.92c-.62.43-26.71,6.49-26.71,6.49L157,693.48l-7.1-2.51,11.69,1.46Z"/><polygon class="cls-30" points="126.35 661.14 88.93 702.59 101.93 694.92 98.6 694.92 126.35 661.14"/><polygon class="cls-30" points="136.77 663.64 109.03 690.97 133.44 670.95 132.81 674.37 140.12 663.64 136.77 663.64"/><polygon class="cls-30" points="58.27 738.12 34.97 782.98 34.97 767.54 36.64 772.75 58.27 738.12"/><polygon class="cls-30" points="42.9 780.91 53.12 757.59 46.62 776.61 51.66 774.42 42.9 780.91"/><polygon class="cls-30" points="111.74 657.56 74.77 704.54 104.03 659.89 95.89 663.64 110.66 655.71 111.74 657.56"/><polygon class="cls-30" points="74.77 693.26 80.65 663.64 78.89 682.29 83.11 680.12 74.77 693.26"/><polygon class="cls-30" points="31.42 674.37 50.62 696.18 40.4 680.12 46.62 681.87 31.42 674.37"/><polygon class="cls-30" points="46.62 668.02 54.59 674.37 62.93 708.7 57.09 670.53 46.62 668.02"/><polygon class="cls-30" points="52.29 713.83 17.03 681.87 22.25 693.26 23.29 690.97 52.29 713.83"/><polygon class="cls-30" points="32.67 706.41 -3.42 699.73 10.16 696.18 8.06 698.07 32.67 706.41"/><polygon class="cls-30" points="-27.41 732.27 30.17 722.26 -17.6 727.27 -10.51 722.26 -27.41 732.27"/><polygon class="cls-30" points="-16.97 715.48 1.38 719.14 -2.37 715.48 12.86 717.3 -13.01 711.63 -16.97 715.48"/><polygon class="cls-30" points="-24.28 764.19 31.42 736.45 -19.38 758.78 -15.94 753.62 -24.28 762.32 -24.28 764.19"/><polygon class="cls-30" points="-9.05 748.55 15.57 738.12 -5.71 742.36 -0.7 743.33 -9.05 748.55"/><polygon class="cls-30" points="48.07 738.12 8.47 781.93 12.86 765.45 12.86 771.5 48.07 738.12"/><polygon class="cls-30" points="22.66 753.62 -13.84 773.58 -0.08 771.92 -2.06 769.25 22.66 753.62"/><path class="cls-30" d="M98.6,764.2c-.83-.21-26.24-32-26.24-32l15.4,25.38-10.13-8.2,12.82,14.2Z"/></g><g id="Layer_4-4" data-name="Layer 4"><path class="cls-31" d="M168.7,664.69c-24.2-23-67.18-24.58-119.34-10s-78.76,48.8-85.12,59.24S-52,744-42.85,769.83,1.38,848.27,71.46,845.77c43.4,0,97.64-32.55,111.83-80.53S192.89,687.61,168.7,664.69Z"/></g><g id="Layer_13" data-name="Layer 13"><path class="cls-32" d="M257.07,721.08s-11.95-16.35-3.23-12.64,9.25,7.71,11.09,8.7,4.17-6.92,5.94-3.29.91,13.34.91,13.34,10.64.28,11.81,4.09-3.37,11.06-3.37,11.06-1.45-1.68,3,10.59-12.4-7-12.4-7Z"/><path class="cls-33" d="M253.23,728.17s-10-12.84-2-10.4,8.13,5.77,9.79,6.46,4.51-6.21,5.89-3.26-.21,11.2-.21,11.2,10.06-.63,10.84,2.51-4.09,9.58-4.09,9.58-1.25-1.32,2,8.74-11.18-4.88-11.18-4.88Z"/><path class="cls-34" d="M185.54,785.91c-8.43-15.25,18.64-62.37,46.28-73.79s60.82,50.67,37.88,68.51S194,801.15,185.54,785.91Z"/><path class="cls-35" d="M271.54,739.93c-5.66-14.19,6.35,12.81-4.24,26.21s-63.48,31-82.37,18.64c11.28,20.7,80.37,6.16,88-8.51S277.2,754.13,271.54,739.93Z"/><path class="cls-36" d="M185.54,785.9c-8.43-15.24,18.64-62.36,46.28-73.78s60.82,50.67,37.89,68.51S194,801.14,185.54,785.9Z"/><path class="cls-35" d="M248,770c1.09,2.29,8.81-1.61,7.82-3.7S246.92,767.74,248,770Z"/><path class="cls-35" d="M257.24,748.79c1.55,2,8.28-3.45,6.87-5.28S255.7,746.78,257.24,748.79Z"/><path class="cls-35" d="M223.23,755.77c1.45,2.08,8.41-3.07,7.08-5S221.78,753.7,223.23,755.77Z"/><path class="cls-35" d="M234.15,727.09c.84,2.38,8.93-.73,8.17-2.91S233.3,724.69,234.15,727.09Z"/><path class="cls-35" d="M219.2,736.88c1.55,2,8.25-3.49,6.83-5.32S217.64,734.88,219.2,736.88Z"/><path class="cls-35" d="M208.44,752.69c1.89,1.65,7.41-5,5.66-6.55S206.53,751,208.44,752.69Z"/><path class="cls-35" d="M202,766.41c1.51,2,8.31-3.31,6.91-5.17S200.51,764.39,202,766.41Z"/><path class="cls-35" d="M245.62,742c.85,2.38,8.93-.73,8.18-2.91S244.77,739.65,245.62,742Z"/><path class="cls-35" d="M220.07,767.85c.85,2.38,8.93-.73,8.18-2.9S219.22,765.46,220.07,767.85Z"/><path class="cls-35" d="M239.45,760.34c1.32,2.17,8.6-2.51,7.4-4.5S238.16,758.18,239.45,760.34Z"/><path class="cls-35" d="M229.09,741.45c.85,2.38,8.92-.73,8.18-2.91S228.24,739.07,229.09,741.45Z"/><path class="cls-35" d="M259.89,762.16c1.81,1.76,7.69-4.59,6-6.2S258.08,760.39,259.89,762.16Z"/><path class="cls-35" d="M248.35,729.76c.85,2.38,8.93-.73,8.18-2.91S247.5,727.37,248.35,729.76Z"/><path class="cls-37" d="M222.16,723.17s9.12-7.91,16-7.91a20.9,20.9,0,0,1,11,2.75"/></g><g id="Layer_11" data-name="Layer 11"><path class="cls-32" d="M177.45,723.86s14.47-19.73,3.9-15.26-11.16,9.31-13.38,10.51-5-8.38-7.16-4-1.11,16.08-1.11,16.08-12.82.35-14.23,4.95,4.05,13.34,4.05,13.34,1.76-2-3.64,12.78,14.94-8.4,14.94-8.4Z"/><path class="cls-33" d="M182.08,732.41s12.09-15.49,2.46-12.58-9.81,7-11.82,7.79-5.44-7.49-7.11-3.93.26,13.5.26,13.5-12.12-.75-13.08,3,4.93,11.6,4.93,11.6,1.5-1.57-2.42,10.5,13.49-5.89,13.49-5.89Z"/><path class="cls-34" d="M263.75,802.07c10.16-18.39-22.48-75.24-55.83-89s-73.37,61.12-45.7,82.65S253.58,820.45,263.75,802.07Z"/><path class="cls-35" d="M160,746.6c6.8-17.13-7.66,15.45,5.12,31.62s76.57,37.42,99.39,22.48c-13.6,25-97,7.44-106.12-10.26S153.17,763.73,160,746.6Z"/><path class="cls-36" d="M263.74,802.07c10.17-18.39-22.47-75.24-55.83-89s-73.36,61.12-45.7,82.64S253.58,820.45,263.74,802.07Z"/><path class="cls-35" d="M177.25,757.28c-1.89,2.42-10-4.15-8.29-6.36S179.1,754.89,177.25,757.28Z"/><path class="cls-35" d="M218.28,765.71c-1.75,2.52-10.15-3.71-8.55-6S220,763.22,218.28,765.71Z"/><path class="cls-35" d="M205.11,731.1c-1,2.88-10.77-.87-9.83-3.5S206.11,728.23,205.11,731.1Z"/><path class="cls-35" d="M223.14,742.94c-1.88,2.4-9.95-4.23-8.24-6.42S225,740.51,223.14,742.94Z"/><path class="cls-35" d="M236.12,762c-2.31,2-8.94-6.08-6.83-7.9S238.43,760,236.12,762Z"/><path class="cls-35" d="M191.27,749.13c-1,2.88-10.77-.88-9.84-3.5S192.27,746.26,191.27,749.13Z"/><path class="cls-35" d="M198.68,771.24c-1.59,2.61-10.36-3-8.92-5.43S200.27,768.62,198.68,771.24Z"/><path class="cls-35" d="M211.22,748.43c-1,2.88-10.78-.88-9.84-3.5S212.24,745.56,211.22,748.43Z"/><path class="cls-35" d="M174,773.41c-2.19,2.13-9.28-5.54-7.28-7.48S176.24,771.29,174,773.41Z"/><path class="cls-35" d="M188,734.32c-1,2.88-10.78-.87-9.84-3.5S189,731.45,188,734.32Z"/></g><g id="Layer_15" data-name="Layer 15"><path class="cls-37" d="M195.34,718.69a24.84,24.84,0,0,0-9.4,4.48"/><path class="cls-37" d="M199.12,718a19.29,19.29,0,0,1,8.42,1.45c20.92,8.64,41.51,36.6,48.32,57.73"/></g><g id="Layer_9" data-name="Layer 9"><path class="cls-38" d="M1138.35,738.28c19.07-28.59,51.37-31,59.88-31.08a1.76,1.76,0,0,1,1.78,1.74,1.27,1.27,0,0,1,0,.34c-2.07,11.28-13.71,64.84-47.56,58.78C1114.63,761.29,1116.24,771.44,1138.35,738.28Z"/><path class="cls-39" d="M1156.91,740.81c7.2-13.13,38.65-30.26,38.65-30.26"/><path class="cls-40" d="M1154.16,729.3a113.53,113.53,0,0,1,44.07-22.08c-30.61.42-50.49,19.13-50.17,21S1154.16,729.3,1154.16,729.3Z"/><path class="cls-41" d="M1174.77,745.52c8.51-3.91,21.77-21.77,21.77-21.77s-5,16.88-10,24.28S1166.28,749.46,1174.77,745.52Z"/><path class="cls-42" d="M1138.35,738.28c19.07-28.59,51.37-31,59.88-31.08a1.76,1.76,0,0,1,1.78,1.74,1.27,1.27,0,0,1,0,.34c-2.07,11.28-13.71,64.84-47.56,58.78C1114.63,761.29,1116.24,771.44,1138.35,738.28Z"/><path class="cls-38" d="M1125.21,772.08c-29.23,17.53-34.75,48.87-35.72,57.15a1.58,1.58,0,0,0,1.34,1.78,1.24,1.24,0,0,0,.47,0c11-1.61,63.29-11,60.94-44.16C1149.56,749.83,1159.09,751.76,1125.21,772.08Z"/><path class="cls-42" d="M1125.21,772.08c-29.23,17.53-34.75,48.87-35.72,57.15a1.58,1.58,0,0,0,1.34,1.78,1.24,1.24,0,0,0,.47,0c11-1.61,63.29-11,60.94-44.16C1149.56,749.83,1159.09,751.76,1125.21,772.08Z"/><path class="cls-38" d="M1129.94,740.06c-31.82-12.22-59.91,2.74-67,7.08a1.58,1.58,0,0,0-.59,2.15,1.35,1.35,0,0,0,.3.37c8,7.66,47.65,43.07,72.3,20.78C1162.46,745.53,1166.82,754.22,1129.94,740.06Z"/><path class="cls-39" d="M1118.81,759.79c-12.23-8.29-48-10.39-48-10.39"/><path class="cls-40" d="M1119.68,741.62a121.06,121.06,0,0,0-49.21,1.4c26.9-13.24,53.36-6.68,54-5S1119.68,741.62,1119.68,741.62Z"/><path class="cls-41" d="M1103.8,764.6c-9.24,1.4-30.21-5.53-30.21-5.53s13.61,10.47,21.88,13.6S1113,763.2,1103.8,764.6Z"/><path class="cls-42" d="M1129.94,740.06c-31.82-12.22-59.91,2.74-67,7.08a1.58,1.58,0,0,0-.59,2.15,1.35,1.35,0,0,0,.3.37c8,7.66,47.65,43.07,72.3,20.78C1162.46,745.53,1166.82,754.22,1129.94,740.06Z"/></g><g id="back_berry" data-name="back berry"><circle class="cls-43" cx="1163.09" cy="750.56" r="29.93"/><path class="cls-44" d="M1135.1,740.18c13.85-33.09,54.45-18.43,56.08,2.83C1169.34,729.3,1159.15,729.33,1135.1,740.18Z"/><circle class="cls-45" cx="1163.09" cy="750.56" r="29.93"/><path class="cls-46" d="M1138.33,745.14s8.35,32.28,35.13,9.26C1158.23,759.85,1138.33,745.14,1138.33,745.14Z"/></g><g id="Layer_5-5" data-name="Layer 5"><path class="cls-47" d="M1150.83,735.72a.26.26,0,0,0-.31.19.26.26,0,0,0,0,.21,6.74,6.74,0,0,1,1.24,4c-.23,1.44-2.25,3.2-3.44,4.15a.26.26,0,0,0-.06.37.28.28,0,0,0,.23.11c1.23-.15,3.27-.21,4.42.79,1.32,1.15,2.4,4.4,2.85,5.93a.27.27,0,0,0,.32.19.25.25,0,0,0,.18-.18,11.29,11.29,0,0,1,3.39-4.65,46.59,46.59,0,0,1,7.5-4.09.26.26,0,0,0,.15-.33.27.27,0,0,0-.21-.17c-1.2-.26-3.4-.87-4.36-2-1.09-1.27-1.25-5-1.26-6.27a.27.27,0,0,0-.27-.27.33.33,0,0,0-.14,0,18.75,18.75,0,0,1-4.91,2.22A15.09,15.09,0,0,1,1150.83,735.72Z"/><circle class="cls-48" cx="1156.95" cy="741.62" r="4.4"/></g><g id="front_right_berry" data-name="front right berry"><circle class="cls-43" cx="1187.89" cy="771.37" r="31.34"/><path class="cls-44" d="M1171.07,744.9c17-3.17,45.13-.55,44.23,41.4C1231.58,750.72,1192.65,730.67,1171.07,744.9Z"/><path class="cls-46" d="M1162.57,753.05c-9.26,7.75-6.42,59.18,35.74,48C1170.48,796.39,1164.27,770.87,1162.57,753.05Z"/><circle class="cls-45" cx="1187.93" cy="771.47" r="31.34" transform="translate(-188.45 436.91) rotate(-19.34)"/></g><g id="Layer_6-5" data-name="Layer 6"><path class="cls-47" d="M1183.39,745.89a.43.43,0,0,0-.61,0,.41.41,0,0,0-.13.25,31.16,31.16,0,0,1-1.79,7.18c-.91,1.85-4.55,5.27-6.21,6.78a.43.43,0,0,0,.27.76c1.66.06,4.72.39,6,1.95,1.8,2.2,3,10.19,3.28,9.86s3.61-5.6,6.28-6.53c2-.71,5.87-.3,7.64-.07a.44.44,0,0,0,.47-.4.39.39,0,0,0-.06-.25c-1-1.58-3.08-5.12-3.29-6.91s2.22-5.18,3.39-6.69a.44.44,0,0,0-.07-.61.41.41,0,0,0-.3-.09,43,43,0,0,1-7.84-.25C1188.21,750.45,1184.76,747.25,1183.39,745.89Z"/><circle class="cls-48" cx="1187.37" cy="758.32" r="6.04"/></g><g id="back_left_berry" data-name="back left berry"><circle class="cls-43" cx="1118.07" cy="755.87" r="27.68"/><path class="cls-44" d="M1097.86,737.5c22.68-4.34,33.23-1.88,48.2,19.24C1143.85,723.37,1108.79,723.44,1097.86,737.5Z"/><path class="cls-46" d="M1130.08,772.44c-27.54,1.65-38.55-8.64-36.59-28.58C1086.14,746.47,1091.07,800.33,1130.08,772.44Z"/><circle class="cls-45" cx="1118.38" cy="755.99" r="27.68"/></g><g id="Layer_7-2" data-name="Layer 7"><path class="cls-47" d="M1104.27,752.37a.73.73,0,0,1,.85-.57.77.77,0,0,1,.41.25c1.12,1.37,3,3.46,3.69,3.77s4.16-.73,6-1.35a.71.71,0,0,1,.91.46.74.74,0,0,1,0,.36c-.38,2-1.05,5.82-.78,6.6.22.62,2.11,1.4,3.65,1.93a.72.72,0,0,1,.45.92.76.76,0,0,1-.46.45c-2.6.87-6.83,2.32-8,2.83a29.47,29.47,0,0,0-5,4,.72.72,0,0,1-1,0,.71.71,0,0,1-.2-.54c.11-1.89.15-4.66-.35-5.62s-3.44-2.25-5.27-2.93a.72.72,0,0,1-.43-.92.68.68,0,0,1,.31-.38c1.25-.74,3-1.93,3.51-3.09A36,36,0,0,0,1104.27,752.37Z"/><circle class="cls-48" cx="1108.99" cy="762.14" r="4.4"/></g><g id="front_berry" data-name="front berry"><circle class="cls-43" cx="1137.97" cy="789" r="33.75"/><path class="cls-44" d="M1116.47,763c25.63-3.85,43.41-1.24,55.1,29.44C1172.12,751.55,1130.06,748.94,1116.47,763Z"/><circle class="cls-45" cx="1137.97" cy="789" r="33.75"/></g><g id="Layer_11-2" data-name="Layer 11"><path class="cls-49" d="M1191.18,743c3.79-.63,18.36,4.43,22.9,16.09"/><path class="cls-49" d="M1215.47,762.27a23.69,23.69,0,0,1,1.52,7.39"/><path class="cls-49" d="M1155.38,724.38c3.38-1.83,18.79-1.9,26.94,7.59"/><path class="cls-49" d="M1148,727.51a13.38,13.38,0,0,1,4.1-2"/><path class="cls-49" d="M1136.24,758.21c10.88-.23,21.07,4.17,27,12.51"/><path class="cls-49" d="M1112.11,731.54c8.35-1.39,16.45-.54,24.35,6.87"/></g></svg>