<svg id="Layer_11" data-name="Layer 11" xmlns="http://www.w3.org/2000/svg" viewBox="0 0 1368.75 248.54"><defs><style>.cls-1{fill:#f7cd1c;}.cls-1,.cls-8{stroke:#512c00;}.cls-1,.cls-15,.cls-16,.cls-17,.cls-24,.cls-25,.cls-30,.cls-31,.cls-33,.cls-34,.cls-35,.cls-36,.cls-37,.cls-38,.cls-41,.cls-42,.cls-44,.cls-48,.cls-8,.cls-9{stroke-miterlimit:10;}.cls-1,.cls-15,.cls-16,.cls-17,.cls-24,.cls-25,.cls-30,.cls-31,.cls-33,.cls-35,.cls-36,.cls-37,.cls-38,.cls-41,.cls-44,.cls-48,.cls-8,.cls-9{stroke-width:3px;}.cls-2{fill:#f9e419;}.cls-3{fill:#efb614;}.cls-4{fill:#fff297;}.cls-5{fill:#512c00;}.cls-6{fill:#663b0c;}.cls-7{fill:#563311;}.cls-15,.cls-16,.cls-24,.cls-30,.cls-35,.cls-36,.cls-41,.cls-44,.cls-48,.cls-8{fill:none;}.cls-13,.cls-9{fill:#ed912e;}.cls-16,.cls-9{stroke:#602700;}.cls-10{fill:#e57b33;}.cls-11{fill:#e8b331;}.cls-12{fill:#e25d34;}.cls-14{fill:#602700;}.cls-15{stroke:#ffc6b0;}.cls-15,.cls-36,.cls-38,.cls-48{stroke-linecap:round;}.cls-17{fill:#ffe817;stroke:#3e5e00;}.cls-18{fill:#ceb20d;}.cls-19{fill:#99990a;}.cls-20{fill:#6b7c08;}.cls-21{fill:#ffffca;}.cls-22{fill:#b79a0d;}.cls-23{fill:#563e28;}.cls-24{stroke:#394700;}.cls-25{fill:#ce6b19;}.cls-25,.cls-30{stroke:#492300;}.cls-26{fill:#ea781b;}.cls-27{fill:#ffdaa9;}.cls-28{fill:#ef840f;}.cls-29{fill:#eda411;}.cls-31{fill:#009640;}.cls-31,.cls-35{stroke:#541211;}.cls-32{fill:#1c693b;}.cls-33{fill:#c52126;stroke:#361f0f;}.cls-34{fill:#911a1d;stroke:#911a1d;}.cls-36{stroke:#eebbba;}.cls-37,.cls-38{fill:#139146;}.cls-37,.cls-38,.cls-41{stroke:#1f4922;}.cls-39{fill:#50cc62;}.cls-40{fill:#13631a;}.cls-42{fill:#3d467c;}.cls-42,.cls-44{stroke:#231f20;}.cls-43{fill:#4358a6;}.cls-45{fill:#27325b;}.cls-46{fill:#2c3a67;}.cls-47{fill:#182242;}.cls-48{stroke:#b7c9f9;}</style></defs><g id="Layer_2" data-name="Layer 2"><path class="cls-1" d="M188.5,720.46c-3.14-6.52-8.95-24.29-29.63-32s-111-45.39-131-89.42C13.23,566,12.62,574.3,8.05,564.32c-2.87-7.65,17.5-27.2,17.07-31.81s-7.79-8.22-11.63-8.94c-3.15-.58-9-1.14-13.38.3V682.3c29,33.07,75.34,62.74,142,64.13,25.73.41,36.9-6.56,40.14-8.15S191.64,727,188.5,720.46Z" transform="translate(1.39 -521.46)"/></g><g id="Layer_5" data-name="Layer 5"><path class="cls-2" d="M171.57,696c-8.36-5.45-.75-1.62-28.36-13.73C109.56,670.2,42.64,627.87,35,611.47,27.88,599,14.94,574,14.94,574a18.69,18.69,0,0,1-7.35-9.69c-2.4-6.86,17.86-29.5,17.06-31.79s-16.82,3.27-16.82,3.27v.08A191.9,191.9,0,0,0,.11,554.19v45.46a143.24,143.24,0,0,0,10,26.44c15.91,32.71,57.5,82.57,131.26,89.85,40.88,5.69,46.69,13.36,46.69,13.36l.67-6.59S179.94,701.48,171.57,696Z" transform="translate(1.39 -521.46)"/><path class="cls-3" d="M40.75,708.1C35.68,704.18,17,685.81.11,662.92v19.47c11.65,13.88,26.8,29.21,40.94,35.22,27.05,18.84,71.1,26.26,83.15,27.81,20.38,5.11,44.72-.79,49.52-3.44C89.36,746.3,49.91,715.16,40.75,708.1Z" transform="translate(1.39 -521.46)"/></g><g id="Layer_6" data-name="Layer 6"><path class="cls-3" d="M183.91,730.57l-72.42-20.24a281,281,0,0,0,33,6.08c19.48,2.55,30.29,6.17,33.45,7.55l6.86,3Z" transform="translate(1.39 -521.46)"/><path class="cls-4" d="M35.28,612.15,16.14,576.26s-8.61-10-9.26-14,18.24-29.8,18.24-29.8L7.84,535.83S3.18,545.78.11,554.22v33.89C5.5,597.37,17.93,611.93,35.28,612.15Z" transform="translate(1.39 -521.46)"/><path class="cls-3" d="M7.8,535.83l-3.81-3s-1.78,3.75-3.88,8.88v13.2C3.26,546.16,7.8,535.83,7.8,535.83Z" transform="translate(1.39 -521.46)"/><path class="cls-3" d="M12.29,630.38c-5.89-9-9.79-21.45-12.18-33.24v13.12C3,618.89,7,626.39,12.29,630.38Z" transform="translate(1.39 -521.46)"/></g><g id="Layer_4" data-name="Layer 4"><path class="cls-5" d="M11.12,523.32a19,19,0,0,0-11,1.29v5.26l7.73,6s15.66-.5,16.8-3.28S21.13,524.83,11.12,523.32Z" transform="translate(1.39 -521.46)"/><path class="cls-5" d="M188.05,720.48,182.87,726l-1,12.32s5.41-4.07,6.23-9a25.54,25.54,0,0,0,0-8.85" transform="translate(1.39 -521.46)"/><path class="cls-6" d="M7.84,535.83A30.09,30.09,0,0,1,9,530.27c3,.68,14.6-1.38,14.6-1.38s2.16,2.67.43,4.39S7.84,535.83,7.84,535.83Z" transform="translate(1.39 -521.46)"/><path class="cls-7" d="M.31,523.65S7.64,528.8,9,530.26a47,47,0,0,0,13.11-1.13c3.14-1-9.69-5.73-9.69-5.73L.3,523.66" transform="translate(1.39 -521.46)"/></g><g id="Layer_3" data-name="Layer 3"><path class="cls-8" d="M188.5,720.46c-3.14-6.52-8.95-24.29-29.63-32s-111-45.39-131-89.42C13.23,566,12.62,574.3,8.05,564.32c-2.87-7.65,17.5-27.2,17.07-31.81s-7.79-8.22-11.63-8.94c-3.15-.58-9-1.14-13.38.3V682.3c29,33.07,75.34,62.74,142,64.13,25.73.41,36.9-6.56,40.14-8.15S191.64,727,188.5,720.46Z" transform="translate(1.39 -521.46)"/></g><g id="Layer_2-2" data-name="Layer 2"><path class="cls-9" d="M1304.07,631.75c-3.72,34-7.81,60.26,26.14,92.09,7.38,6.92,20.09,13.66,35.65,19.27V553.2C1329.37,568.73,1306.47,609.88,1304.07,631.75Z" transform="translate(1.39 -521.46)"/></g><g id="Layer_3-2" data-name="Layer 3"><path class="cls-10" d="M1347.73,563.66c-12.3,10-35.57,33.4-41.32,57.4-6.25,17.73-7.63,60.29,4.64,79.31,14.6-27.78,33-49,54.81-62.77V553.39A69.42,69.42,0,0,0,1347.73,563.66Z" transform="translate(1.39 -521.46)"/><path class="cls-11" d="M1339.07,730.71l20,9.8s2.53,1,6.8,2.39V731.36C1357.51,731.21,1348.62,731,1339.07,730.71Z" transform="translate(1.39 -521.46)"/></g><g id="Layer_5-2" data-name="Layer 5"><path class="cls-12" d="M1331.37,578.26c-28.23,32.39-29.74,67.91-29.74,67.91l0,.05c23.08-36.63,47.53-56.21,64.26-66.27V552.46C1355.11,556.82,1343.3,564.57,1331.37,578.26Z" transform="translate(1.39 -521.46)"/></g><g id="Layer_6-2" data-name="Layer 6"><path class="cls-13" d="M1336.53,590.55c3.77.71,5.54,23.11,2.83,30.58s-15.67,28.93-19.55,28.76-1.77-27.79.37-35.42S1332.76,589.83,1336.53,590.55Z" transform="translate(1.39 -521.46)"/><path class="cls-14" d="M1327.16,608.18c.9,2.5-1.65,18.68-3.21,19.91s-3.71-4.68-3.71-4.68-5.52-4.48-5.47-6,7.61-5,7.61-5S1326.28,605.69,1327.16,608.18Z" transform="translate(1.39 -521.46)"/><path class="cls-15" d="M1435.88,562.6" transform="translate(1.39 -521.46)"/><path class="cls-15" d="M1364.69,559.72" transform="translate(1.39 -521.46)"/></g><g id="Layer_4-2" data-name="Layer 4"><path class="cls-16" d="M1304.07,631.75c-3.72,34-7.81,60.26,26.14,92.09,7.38,6.92,20.09,13.66,35.65,19.27V553.2C1329.37,568.73,1306.47,609.88,1304.07,631.75Z" transform="translate(1.39 -521.46)"/></g><g id="Layer_2-3" data-name="Layer 2"><polygon class="cls-17" points="1367.25 176.37 1314.98 117.38 1292.45 110.2 1176.35 246.71 1367.25 246.19 1367.25 176.37"/></g><g id="Layer_3-3" data-name="Layer 3"><polygon class="cls-18" points="1315 117.38 1292.48 110.19 1176.41 246.71 1212.64 246.61 1315 117.38"/><line class="cls-18" x1="1212.64" y1="246.61" x2="1176.42" y2="246.71"/></g><g id="Layer_5-3" data-name="Layer 5"><path class="cls-19" d="M1185.46,767.15a11.18,11.18,0,0,1-4.39,0,13.51,13.51,0,0,1-4-2.26l-.14,0-2.82,3.31,11.5,0A8.46,8.46,0,0,1,1185.46,767.15Z" transform="translate(1.39 -521.46)"/><path class="cls-20" d="M1175.9,767.15l-.07,0-.92,1.07h1.51C1176.09,767.58,1175.9,767.15,1175.9,767.15Z" transform="translate(1.39 -521.46)"/></g><g id="Layer_6-3" data-name="Layer 6"><path class="cls-21" d="M1313.63,638.85l-22.53-7.18-29.77,35c-.79.89,9.22-7.91,16.48-8.11s-15.54,42.1-23.85,55.6c30.24-33.93,47.42-66.81,58.44-65.13,5.91.9,31.24,26.6,53.46,50.22v-1.42Z" transform="translate(1.39 -521.46)"/><polygon class="cls-21" points="1242.35 242.35 1274.18 206.51 1249.62 230.82 1279.44 177.69 1232.29 246.56 1236.22 246.55 1242.35 242.35"/><line class="cls-21" x1="1236.22" y1="246.55" x2="1232.29" y2="246.56"/><line class="cls-21" x1="1264.46" y1="246.47" x2="1262.55" y2="246.48"/><path class="cls-21" d="M1305.38,696.65s-32.82,60.15-34.58,60.4,5.51-13.28,5.51-13.28l-15.15,24.17h1.91l4.72-6.28-.21,6.27h3.87Z" transform="translate(1.39 -521.46)"/><line class="cls-21" x1="1272.84" y1="246.45" x2="1268.97" y2="246.46"/><polygon class="cls-21" points="1316.79 212.78 1311.77 243.43 1315 155.39 1308.94 246.35 1314.18 246.33 1316.79 212.78"/><polygon class="cls-21" points="1289.47 164.91 1309.02 139.35 1295.98 159.15 1289.47 164.91"/><polygon class="cls-21" points="1348.36 177.7 1367.25 201.16 1367.25 197.71 1348.36 177.7"/><path class="cls-21" d="M1361.52,706.71l4.34,6.39v-1Z" transform="translate(1.39 -521.46)"/><path class="cls-21" d="M1338.71,727.23l5.52,37.66-5.52-14.11,1.93,16.94,7.17,0Z" transform="translate(1.39 -521.46)"/><polygon class="cls-21" points="1320.8 145.36 1329.32 180.2 1326.06 155.39 1320.8 145.36"/><path class="cls-21" d="M1288.07,754l-5.29,13.84h2.09C1285.53,764.05,1288.07,754,1288.07,754Z" transform="translate(1.39 -521.46)"/><path class="cls-21" d="M1294.33,743s-6.58,19.34-8.83,24.86h2.39Z" transform="translate(1.39 -521.46)"/><path class="cls-21" d="M1365.86,765.54l-6.73-19.32s2.54,10.8,5,21.43h1.73Z" transform="translate(1.39 -521.46)"/><path class="cls-21" d="M1365.86,767.65h-1.73" transform="translate(1.39 -521.46)"/><polygon class="cls-22" points="1231.58 213.84 1206.76 241.85 1208.1 232.73 1203.52 246.64 1205.8 246.63 1231.58 213.84"/><line class="cls-22" x1="1205.8" y1="246.63" x2="1203.52" y2="246.64"/><polygon class="cls-22" points="1252.88 167.98 1215.22 214.66 1244.28 192.23 1232.7 197.12 1252.88 167.98"/><path class="cls-23" d="M1195.85,764.89c-2.53-2.26-6.21-2.33-6.21,0a7.17,7.17,0,0,0,1.11,3.24l7,0A6.65,6.65,0,0,0,1195.85,764.89Z" transform="translate(1.39 -521.46)"/><path class="cls-23" d="M1197.76,768.11l-7,0" transform="translate(1.39 -521.46)"/></g><g id="Layer_4-3" data-name="Layer 4"><polygon class="cls-24" points="1367.25 176.37 1314.98 117.38 1292.45 110.2 1176.35 246.71 1367.25 246.19 1367.25 176.37"/></g><g id="Layer_2-4" data-name="Layer 2"><path class="cls-25" d="M181.89,767.9H.11" transform="translate(1.39 -521.46)"/><path class="cls-25" d="M182.89,764.78c14.18-48,9.6-77.63-14.6-100.56s-67.18-24.57-119.33-10A160.83,160.83,0,0,0,.11,677.08V767.9H181.89C182.24,766.87,182.57,765.83,182.89,764.78Z" transform="translate(1.39 -521.46)"/></g><g id="Layer_7" data-name="Layer 7"><path class="cls-26" d="M190.94,727.75c4-25.41-11.75-50.91-11.75-50.91s-9.22,38.17-6.77,49c1.22,5.44-1.25,22.83-6.7,42h15.57C187.15,749.35,187.38,750.25,190.94,727.75Z" transform="translate(1.39 -521.46)"/><path class="cls-26" d="M181.29,767.9H165.72" transform="translate(1.39 -521.46)"/></g><g id="Layer_3-4" data-name="Layer 3"><path class="cls-26" d="M161.83,743.08c15.16-14.61,29.91-53,11.37-73.85-21.9-27.54-72-33.57-133.47-11.88A146.13,146.13,0,0,0,.11,677.42V767.9H125.53C141.68,759.69,154.74,750.79,161.83,743.08Z" transform="translate(1.39 -521.46)"/><path class="cls-26" d="M125.53,767.9H.11" transform="translate(1.39 -521.46)"/><path class="cls-27" d="M157.7,742c14.47-13.89,28.54-50.41,10.86-70.26-20.87-26.19-68.69-31.93-127.35-11.29a140.52,140.52,0,0,0-41.1,21.5v86h118.3C136,759.47,150.29,750.05,157.7,742Z" transform="translate(1.39 -521.46)"/><path class="cls-27" d="M118.41,767.9H.11" transform="translate(1.39 -521.46)"/></g><g id="Layer_5-4" data-name="Layer 5"><path class="cls-28" d="M63.14,727.75c-1.41,0-20.31,23.2-33.27,40.15H61C63.08,752,64.66,727.75,63.14,727.75Z" transform="translate(1.39 -521.46)"/><path class="cls-28" d="M61,767.9H29.87" transform="translate(1.39 -521.46)"/><path class="cls-28" d="M107.27,764.63c0-1.93-35.37-39.85-38.18-38.76-2,.75-3.35,26.29-3.44,42h37.84C105.73,766.5,107.27,765.28,107.27,764.63Z" transform="translate(1.39 -521.46)"/><path class="cls-28" d="M103.49,767.9H65.65" transform="translate(1.39 -521.46)"/><path class="cls-28" d="M74.42,723.37c1.41-1.88,69,10.21,71.34,12.2s-6.73,11.27-10.68,14.71-17.21,10.33-21.59,10.33S73,725.25,74.42,723.37Z" transform="translate(1.39 -521.46)"/><path class="cls-28" d="M77.23,718.62c.63-1.64,84.52-18.62,87-16.27s-1.38,12.82-3.75,16.58-7.2,12.05-9.7,12.82S76.61,720.27,77.23,718.62Z" transform="translate(1.39 -521.46)"/><path class="cls-28" d="M78.49,714.93c0-1.55,77.44-42.1,80.41-41s6.11,6.88,6.89,10.48,1.56,11.28,0,12.68S78.49,716.47,78.49,714.93Z" transform="translate(1.39 -521.46)"/><path class="cls-28" d="M74.42,713.36c-1.58-2.19,50-54.82,52.22-55.89s12.71.33,16.31,1.9,11,6.41,10,9.23S76,715.54,74.42,713.36Z" transform="translate(1.39 -521.46)"/><path class="cls-28" d="M70.36,711.17c-2.72-.63,5-53.37,6.88-55.09s10.8-3.6,18.78-3.6,20,1.07,21,3.6S73.06,711.79,70.36,711.17Z" transform="translate(1.39 -521.46)"/><path class="cls-28" d="M66.27,658.59c-3.13-1.12-16.11,2.66-21.59,4.69S27.47,671.1,27.47,674s34.61,40.21,37.24,39.43S69.4,659.71,66.27,658.59Z" transform="translate(1.39 -521.46)"/><path class="cls-28" d="M17.74,678.34c-2.82-.6-10.68,3.75-16.9,9.54l-.73.67v17.22c19.92,4.92,58.18,12.43,59.56,11C61.55,714.92,20.56,678.93,17.74,678.34Z" transform="translate(1.39 -521.46)"/><path class="cls-28" d="M55.63,719.93c0-1.38-33.06-6.32-55.52-8.9v21.36C25.28,727.61,55.63,721.13,55.63,719.93Z" transform="translate(1.39 -521.46)"/><path class="cls-28" d="M55.63,724.31c-.8-.66-30.35,6.07-55.52,12.12v19C24,742.88,56.54,725,55.63,724.31Z" transform="translate(1.39 -521.46)"/><path class="cls-28" d="M57.82,727.75c-1-.71-35.06,19.06-57.71,32.93v7.22H25.28C39.63,751.58,58.85,728.44,57.82,727.75Z" transform="translate(1.39 -521.46)"/><path class="cls-28" d="M25.28,767.9H.11" transform="translate(1.39 -521.46)"/></g><g id="Layer_6-4" data-name="Layer 6"><polygon class="cls-29" points="75.75 235.08 73.24 239.15 70.95 223.6 71.75 246.44 73.6 246.44 75.75 235.08"/><line class="cls-29" x1="73.6" y1="246.44" x2="71.75" y2="246.44"/><polygon class="cls-29" points="132.13 216.19 81.64 204.38 92.28 212.65 89.92 208.06 132.13 216.19"/><polygon class="cls-29" points="115.1 234.38 94.77 216.19 113.36 228.54 111.65 223.6 118.38 233.51 115.1 234.38"/><polygon class="cls-29" points="158 184.48 91.44 196.38 109.81 200.34 100 196.59 158 184.48"/><polygon class="cls-29" points="149.66 206.27 111.65 197.22 144.02 202.8 140.47 198.13 149.66 206.27"/><polygon class="cls-29" points="98.12 185.95 139.64 165.71 132.13 174.89 132.13 171.76 98.12 185.95"/><path class="cls-29" d="M161.17,694.46c-.62.42-26.71,6.48-26.71,6.48L156.57,693l-7.09-2.51L161.17,692Z" transform="translate(1.39 -521.46)"/><polygon class="cls-29" points="127.33 139.22 89.92 180.67 102.92 173 99.58 173 127.33 139.22"/><polygon class="cls-29" points="137.76 141.72 110.01 169.04 134.42 149.02 133.79 152.44 141.1 141.72 137.76 141.72"/><polygon class="cls-29" points="35.95 245.61 35.95 246.44 36.22 246.44 35.95 245.61"/><line class="cls-29" x1="36.22" y1="246.44" x2="35.95" y2="246.44"/><line class="cls-29" x1="43.54" y1="246.44" x2="40.36" y2="246.44"/><polygon class="cls-29" points="59.26 216.19 40.36 246.44 43.54 246.44 59.26 216.19"/><polygon class="cls-29" points="54.11 235.67 49.38 246.44 50.42 246.44 54.11 235.67"/><line class="cls-29" x1="50.42" y1="246.44" x2="49.38" y2="246.44"/><polygon class="cls-29" points="112.73 135.64 75.75 182.61 105.01 137.97 96.87 141.72 111.65 133.79 112.73 135.64"/><polygon class="cls-29" points="75.75 171.34 81.64 141.72 79.87 160.37 84.09 158.2 75.75 171.34"/><polygon class="cls-29" points="32.41 152.44 51.61 174.26 41.38 158.2 47.6 159.94 32.41 152.44"/><polygon class="cls-29" points="47.6 146.1 55.57 152.44 63.91 186.78 58.07 148.61 47.6 146.1"/><polygon class="cls-29" points="53.27 191.91 18.02 159.94 23.23 171.34 24.28 169.04 53.27 191.91"/><polygon class="cls-29" points="9.04 176.15 11.15 174.26 1.5 176.78 1.5 178.53 33.66 184.48 9.04 176.15"/><polygon class="cls-29" points="1.5 203.45 1.5 205.49 31.16 200.34 1.5 203.45"/><polygon class="cls-29" points="13.84 195.38 1.5 192.67 1.5 193.9 13.84 195.38"/><polygon class="cls-29" points="1.5 196.37 1.5 197.04 2.37 197.22 1.5 196.37"/><polygon class="cls-29" points="1.5 228.11 1.5 229.92 32.41 214.52 1.5 228.11"/><polygon class="cls-29" points="1.5 219.19 1.5 222.57 16.55 216.19 1.5 219.19"/><polygon class="cls-29" points="13.84 243.53 13.06 246.44 13.84 246.44 13.84 243.53"/><line class="cls-29" x1="13.84" y1="246.44" x2="13.06" y2="246.44"/><line class="cls-29" x1="21.71" y1="246.44" x2="17.14" y2="246.44"/><polygon class="cls-29" points="49.05 216.19 17.14 246.44 21.71 246.44 49.05 216.19"/><polygon class="cls-29" points="1.5 243.81 1.5 245.69 23.65 231.69 1.5 243.81"/><path class="cls-29" d="M98.2,763.74c-.84-.21-26.24-32-26.24-32l15.39,25.39-10.12-8.21,12.82,14.21Z" transform="translate(1.39 -521.46)"/></g><g id="Layer_4-4" data-name="Layer 4"><path class="cls-30" d="M182.89,764.78c14.18-48,9.6-77.63-14.6-100.56s-67.18-24.57-119.33-10A160.83,160.83,0,0,0,.11,677.08V767.9H181.89C182.24,766.87,182.57,765.83,182.89,764.78Z" transform="translate(1.39 -521.46)"/><path class="cls-30" d="M181.89,767.9H.11" transform="translate(1.39 -521.46)"/></g><g id="Layer_13" data-name="Layer 13"><path class="cls-31" d="M256.66,720.62s-12-16.36-3.22-12.65,9.24,7.72,11.09,8.7,4.17-6.92,5.94-3.28.91,13.34.91,13.34,10.64.28,11.81,4.09-3.37,11.06-3.37,11.06-1.46-1.68,3,10.59-12.41-7-12.41-7Z" transform="translate(1.39 -521.46)"/><path class="cls-32" d="M252.83,727.71s-10-12.85-2-10.4,8.12,5.77,9.79,6.45,4.51-6.2,5.89-3.26-.22,11.2-.22,11.2,10.07-.63,10.85,2.52S273,743.8,273,743.8s-1.26-1.33,2,8.74-11.19-4.89-11.19-4.89Z" transform="translate(1.39 -521.46)"/><path class="cls-33" d="M231.41,711.66c-20.33,8.4-40.33,36.1-46.14,56.24h91.14C281.18,743.45,254.39,702.17,231.41,711.66Z" transform="translate(1.39 -521.46)"/><path class="cls-33" d="M276.41,767.9H185.27" transform="translate(1.39 -521.46)"/><path class="cls-34" d="M271.13,739.47c-5.66-14.2,6.36,12.8-4.24,26.21a19.37,19.37,0,0,1-2.1,2.22h11C278.7,758,275.68,750.88,271.13,739.47Z" transform="translate(1.39 -521.46)"/><path class="cls-34" d="M275.76,767.9h-11" transform="translate(1.39 -521.46)"/><path class="cls-35" d="M276.41,767.9H185.27" transform="translate(1.39 -521.46)"/><path class="cls-35" d="M231.41,711.66c-20.33,8.4-40.33,36.11-46.14,56.24h91.14C281.18,743.45,254.39,702.17,231.41,711.66Z" transform="translate(1.39 -521.46)"/><path class="cls-34" d="M255.42,765.86c-.77-1.62-5.66.12-7.34,2h6.4C255.26,767.2,255.7,766.46,255.42,765.86Z" transform="translate(1.39 -521.46)"/><path class="cls-34" d="M254.48,767.9h-6.4c-.49.57-.73,1.14-.48,1.66" transform="translate(1.39 -521.46)"/><path class="cls-34" d="M256.84,748.32c1.54,2,8.27-3.44,6.86-5.27S255.3,746.31,256.84,748.32Z" transform="translate(1.39 -521.46)"/><path class="cls-34" d="M222.83,755.31c1.45,2.08,8.41-3.08,7.08-5S221.37,753.24,222.83,755.31Z" transform="translate(1.39 -521.46)"/><path class="cls-34" d="M233.74,726.62c.85,2.38,8.93-.72,8.18-2.9S232.89,724.23,233.74,726.62Z" transform="translate(1.39 -521.46)"/><path class="cls-34" d="M218.79,736.42c1.56,2,8.25-3.5,6.84-5.32S217.24,734.42,218.79,736.42Z" transform="translate(1.39 -521.46)"/><path class="cls-34" d="M208,752.22c1.88,1.66,7.41-5,5.66-6.54S206.13,750.57,208,752.22Z" transform="translate(1.39 -521.46)"/><path class="cls-34" d="M201.62,766c1.51,2,8.32-3.32,6.92-5.17S200.11,763.92,201.62,766Z" transform="translate(1.39 -521.46)"/><path class="cls-34" d="M245.22,741.57c.84,2.37,8.92-.73,8.17-2.91S244.37,739.18,245.22,741.57Z" transform="translate(1.39 -521.46)"/><path class="cls-34" d="M227.85,764.48c-.75-2.17-9,.52-8.18,2.9a1,1,0,0,0,.44.52h3.45C225.88,767.24,228.27,765.71,227.85,764.48Z" transform="translate(1.39 -521.46)"/><path class="cls-34" d="M223.56,767.9h-3.45C220.81,768.38,222.16,768.3,223.56,767.9Z" transform="translate(1.39 -521.46)"/><path class="cls-34" d="M239.05,759.88c1.32,2.16,8.59-2.52,7.39-4.51S237.75,757.72,239.05,759.88Z" transform="translate(1.39 -521.46)"/><path class="cls-34" d="M228.68,741c.85,2.37,8.93-.73,8.18-2.91S227.83,738.6,228.68,741Z" transform="translate(1.39 -521.46)"/><path class="cls-34" d="M259.49,761.7c1.81,1.76,7.69-4.6,6-6.21S257.68,759.93,259.49,761.7Z" transform="translate(1.39 -521.46)"/><path class="cls-34" d="M248,729.29c.84,2.39,8.92-.73,8.17-2.9S247.1,726.91,248,729.29Z" transform="translate(1.39 -521.46)"/><path class="cls-36" d="M221.76,722.71s9.11-7.92,16-7.92a20.9,20.9,0,0,1,11,2.75" transform="translate(1.39 -521.46)"/></g><path class="cls-31" d="M160.42,753.42l16.63-30s14.47-19.72,3.89-15.25-11.15,9.31-13.38,10.5-5-8.38-7.16-4-1.1,16.08-1.1,16.08-12.83.34-14.24,5S149.12,749,149.12,749s1.75-2-3.64,12.78S160.42,753.42,160.42,753.42Z" transform="translate(1.39 -521.46)"/><path class="cls-32" d="M181.68,732s12.08-15.5,2.45-12.58-9.8,7-11.81,7.78-5.45-7.48-7.11-3.92.26,13.5.26,13.5-12.12-.75-13.09,3,4.94,11.6,4.94,11.6,1.49-1.56-2.42,10.51S168.39,756,168.39,756Z" transform="translate(1.39 -521.46)"/><path class="cls-33" d="M207.52,712.6c-24.06-9.94-51.59,26.27-54.68,55.3h105.6C248.26,745.82,228,721.06,207.52,712.6Z" transform="translate(1.39 -521.46)"/><path class="cls-33" d="M258.44,767.9H152.84" transform="translate(1.39 -521.46)"/><path class="cls-34" d="M159.57,746.14c-3.41,8.59-6.11,15.14-6.8,21.76h7.4C156.39,751.54,165.15,732.07,159.57,746.14Z" transform="translate(1.39 -521.46)"/><path class="cls-34" d="M160.17,767.9h-7.4" transform="translate(1.39 -521.46)"/><path class="cls-35" d="M258.44,767.9H152.84" transform="translate(1.39 -521.46)"/><path class="cls-35" d="M207.51,712.6c-24.06-9.94-51.59,26.28-54.67,55.3h105.6C248.26,745.82,228,721.06,207.51,712.6Z" transform="translate(1.39 -521.46)"/><path class="cls-34" d="M176.84,756.82c-1.89,2.42-10-4.15-8.28-6.36S178.7,754.42,176.84,756.82Z" transform="translate(1.39 -521.46)"/><path class="cls-34" d="M217.88,765.25c-1.75,2.52-10.15-3.71-8.55-6S219.62,762.75,217.88,765.25Z" transform="translate(1.39 -521.46)"/><path class="cls-34" d="M204.7,730.64c-1,2.87-10.77-.88-9.83-3.5S205.71,727.76,204.7,730.64Z" transform="translate(1.39 -521.46)"/><path class="cls-34" d="M222.74,742.47c-1.89,2.4-10-4.22-8.24-6.42S224.61,740.05,222.74,742.47Z" transform="translate(1.39 -521.46)"/><path class="cls-34" d="M235.72,761.53c-2.31,2-8.94-6.08-6.84-7.91S238,759.53,235.72,761.53Z" transform="translate(1.39 -521.46)"/><path class="cls-34" d="M190.86,748.67c-1,2.87-10.77-.88-9.83-3.51S191.87,745.79,190.86,748.67Z" transform="translate(1.39 -521.46)"/><path class="cls-34" d="M191,763.28c-.41.68,0,1.62.85,2.56h7C196.58,763.6,192,761.63,191,763.28Z" transform="translate(1.39 -521.46)"/><path class="cls-34" d="M210.81,748c-1,2.87-10.77-.88-9.84-3.5S211.83,745.09,210.81,748Z" transform="translate(1.39 -521.46)"/><path class="cls-34" d="M167.53,763.4c-.53.51-.42,1.42.06,2.44H173C171.08,763.88,168.56,762.39,167.53,763.4Z" transform="translate(1.39 -521.46)"/><path class="cls-34" d="M187.57,733.86c-1,2.87-10.77-.88-9.83-3.5S188.59,731,187.57,733.86Z" transform="translate(1.39 -521.46)"/><g id="Layer_15" data-name="Layer 15"><path class="cls-36" d="M194.94,718.23a24.62,24.62,0,0,0-9.4,4.48" transform="translate(1.39 -521.46)"/><path class="cls-36" d="M198.71,717.55a19.26,19.26,0,0,1,8.42,1.44" transform="translate(1.39 -521.46)"/></g><path class="cls-37" d="M1158,767.6c33.84,6.06,45.49-47.5,47.55-58.78a2,2,0,0,0,0-.34,1.77,1.77,0,0,0-1.79-1.74c-8.51.11-40.81,2.48-59.88,31.08C1121.84,771,1120.23,760.83,1158,767.6Z" transform="translate(1.39 -521.46)"/><path class="cls-38" d="M1162.51,740.35c7.19-13.13,38.65-30.27,38.65-30.27" transform="translate(1.39 -521.46)"/><path class="cls-39" d="M1159.76,728.84a113.37,113.37,0,0,1,44.07-22.08c-30.62.41-50.49,19.12-50.17,21S1159.76,728.84,1159.76,728.84Z" transform="translate(1.39 -521.46)"/><path class="cls-40" d="M1180.37,745.05c8.5-3.91,21.76-21.77,21.76-21.77s-5,16.89-10,24.28S1171.87,749,1180.37,745.05Z" transform="translate(1.39 -521.46)"/><path class="cls-41" d="M1158,767.6c33.84,6.06,45.49-47.5,47.55-58.78a2,2,0,0,0,0-.34,1.77,1.77,0,0,0-1.79-1.74c-8.51.11-40.81,2.48-59.88,31.08C1121.84,771,1120.23,760.83,1158,767.6Z" transform="translate(1.39 -521.46)"/><path class="cls-37" d="M1135.53,739.6c-31.81-12.23-59.9,2.74-67,7.08a1.57,1.57,0,0,0-.59,2.15,1.52,1.52,0,0,0,.3.37,139.61,139.61,0,0,0,25.45,19.21l48.75-.13C1168.24,745.47,1171.55,753.43,1135.53,739.6Z" transform="translate(1.39 -521.46)"/><path class="cls-38" d="M1124.41,759.33c-12.23-8.29-48-10.4-48-10.4" transform="translate(1.39 -521.46)"/><path class="cls-39" d="M1125.27,741.15a120.92,120.92,0,0,0-49.2,1.41c26.9-13.24,53.35-6.69,54-5S1125.27,741.15,1125.27,741.15Z" transform="translate(1.39 -521.46)"/><path class="cls-40" d="M1109.4,764.14c-9.24,1.4-30.21-5.54-30.21-5.54a168.46,168.46,0,0,0,14.38,9.81l18.59,0C1114,765.92,1113.75,763.48,1109.4,764.14Z" transform="translate(1.39 -521.46)"/><path class="cls-41" d="M1135.53,739.68c-31.81-12.22-59.9,2.74-67,7.08a1.58,1.58,0,0,0-.29,2.53,140.08,140.08,0,0,0,25.45,19.21l48.75-.13C1168.24,745.56,1171.55,753.51,1135.53,739.68Z" transform="translate(1.39 -521.46)"/><g id="back_berry" data-name="back berry"><path class="cls-42" d="M1190.93,740.18a29.93,29.93,0,1,0-52,28.09l47.65-.13A29.93,29.93,0,0,0,1190.93,740.18Z" transform="translate(1.39 -521.46)"/><path class="cls-42" d="M1186.56,768.14l-47.65.13" transform="translate(1.39 -521.46)"/><path class="cls-43" d="M1134.7,739.71c13.84-33.08,54.45-18.42,56.07,2.84C1168.93,728.84,1158.75,728.87,1134.7,739.71Z" transform="translate(1.39 -521.46)"/><path class="cls-44" d="M1190.93,740.18a29.93,29.93,0,1,0-52,28.09l47.65-.13A29.93,29.93,0,0,0,1190.93,740.18Z" transform="translate(1.39 -521.46)"/><path class="cls-44" d="M1186.56,768.14l-47.65.13" transform="translate(1.39 -521.46)"/><path class="cls-45" d="M1137.92,744.68s8.35,32.27,35.14,9.26C1157.82,759.38,1137.92,744.68,1137.92,744.68Z" transform="translate(1.39 -521.46)"/></g><g id="Layer_5-5" data-name="Layer 5"><path class="cls-46" d="M1150.43,735.26a.25.25,0,0,0-.31.19.24.24,0,0,0,0,.2,6.75,6.75,0,0,1,1.24,4c-.22,1.43-2.25,3.2-3.44,4.15a.26.26,0,0,0,0,.37.27.27,0,0,0,.22.11c1.23-.15,3.27-.21,4.43.79,1.32,1.15,2.4,4.4,2.85,5.92a.25.25,0,0,0,.31.19.27.27,0,0,0,.19-.17,11.15,11.15,0,0,1,3.39-4.66,46.4,46.4,0,0,1,7.49-4.08.25.25,0,0,0,.15-.34.24.24,0,0,0-.2-.16c-1.2-.27-3.4-.88-4.37-2-1.08-1.27-1.24-5-1.25-6.28a.27.27,0,0,0-.27-.26.23.23,0,0,0-.14,0,19.24,19.24,0,0,1-4.91,2.22A15.31,15.31,0,0,1,1150.43,735.26Z" transform="translate(1.39 -521.46)"/><circle class="cls-47" cx="1157.93" cy="219.7" r="4.4"/></g><g id="front_right_berry" data-name="front right berry"><path class="cls-42" d="M1217.06,760.52a31.34,31.34,0,0,0-60.8,7.7l62.44-.17A31.56,31.56,0,0,0,1217.06,760.52Z" transform="translate(1.39 -521.46)"/><path class="cls-43" d="M1170.66,744.44c14.2-2.65,36.12-1.26,42.47,23.63l5.6,0C1217.56,744.09,1188.32,732.8,1170.66,744.44Z" transform="translate(1.39 -521.46)"/><path class="cls-43" d="M1218.73,768.05l-5.6,0" transform="translate(1.39 -521.46)"/><path class="cls-45" d="M1162.17,752.59c-2.75,2.29-4.43,8.43-4.34,15.63l7.06,0A93.34,93.34,0,0,1,1162.17,752.59Z" transform="translate(1.39 -521.46)"/><path class="cls-44" d="M1217.1,760.63a31.35,31.35,0,0,0-60.8,7.59l62.43-.17A31.55,31.55,0,0,0,1217.1,760.63Z" transform="translate(1.39 -521.46)"/></g><g id="Layer_6-5" data-name="Layer 6"><path class="cls-46" d="M1190.08,765.67c2-.71,5.86-.3,7.64-.06a.44.44,0,0,0,.47-.4.51.51,0,0,0-.06-.25c-1-1.59-3.08-5.13-3.3-6.91s2.22-5.19,3.39-6.69a.43.43,0,0,0-.07-.61.45.45,0,0,0-.29-.1,42.22,42.22,0,0,1-7.85-.24c-2.2-.43-5.65-3.62-7-5a.43.43,0,0,0-.61,0,.42.42,0,0,0-.12.26,31.46,31.46,0,0,1-1.8,7.18c-.9,1.85-4.54,5.26-6.21,6.77a.44.44,0,0,0,0,.62.42.42,0,0,0,.31.15c1.67.06,4.72.39,6,2,.89,1.08,1.63,3.59,2.18,5.8h4.25A8.81,8.81,0,0,1,1190.08,765.67Z" transform="translate(1.39 -521.46)"/><path class="cls-46" d="M1186.94,768.14h-4.25" transform="translate(1.39 -521.46)"/><circle class="cls-47" cx="1188.36" cy="236.4" r="6.04"/></g><g id="back_left_berry" data-name="back left berry"><path class="cls-42" d="M1143.78,746.24a27.68,27.68,0,1,0-52.23,18.33,28.59,28.59,0,0,0,1.67,3.83l48.94-.14A27.58,27.58,0,0,0,1143.78,746.24Z" transform="translate(1.39 -521.46)"/><path class="cls-42" d="M1142.16,768.26l-48.94.14" transform="translate(1.39 -521.46)"/><path class="cls-43" d="M1097.46,737c22.68-4.35,33.23-1.88,48.19,19.24C1143.44,722.9,1108.38,723,1097.46,737Z" transform="translate(1.39 -521.46)"/><path class="cls-45" d="M1093.09,743.4c-3.59,1.27-4.25,14.77.56,25l10.69,0C1095.41,763.85,1091.91,755.36,1093.09,743.4Z" transform="translate(1.39 -521.46)"/><path class="cls-45" d="M1104.34,768.37l-10.69,0" transform="translate(1.39 -521.46)"/><path class="cls-44" d="M1144.09,746.36a27.67,27.67,0,1,0-52.22,18.33,27.33,27.33,0,0,0,1.61,3.71l49.06-.14A27.55,27.55,0,0,0,1144.09,746.36Z" transform="translate(1.39 -521.46)"/><path class="cls-44" d="M1142.54,768.26l-49.06.14" transform="translate(1.39 -521.46)"/></g><g id="Layer_7-2" data-name="Layer 7"><path class="cls-46" d="M1109.39,768.35l-4.88,0" transform="translate(1.39 -521.46)"/><path class="cls-46" d="M1110.63,767.56c1.13-.52,5.37-2,8-2.84a.69.69,0,0,0,.46-.45.71.71,0,0,0-.44-.91c-1.55-.53-3.44-1.32-3.65-1.93-.28-.78.39-4.6.77-6.6a.72.72,0,0,0-.93-.83c-1.82.63-5.26,1.66-6,1.35s-2.56-2.39-3.68-3.76a.73.73,0,0,0-.42-.25.73.73,0,0,0-.85.57,35.33,35.33,0,0,1-1.65,6.17c-.53,1.16-2.26,2.35-3.5,3.09a.72.72,0,0,0-.32.37.73.73,0,0,0,.44.93c1.83.68,4.76,2,5.26,2.92a8,8,0,0,1,.42,3l4.88,0A7.14,7.14,0,0,1,1110.63,767.56Z" transform="translate(1.39 -521.46)"/><circle class="cls-47" cx="1109.97" cy="240.21" r="4.4"/></g><g id="front_berry" data-name="front berry"><path class="cls-42" d="M1126.39,756.69a33.6,33.6,0,0,0-15.88,11.66l54-.15A33.78,33.78,0,0,0,1126.39,756.69Z" transform="translate(1.39 -521.46)"/><path class="cls-43" d="M1116.07,762.51c16.08-2.42,29.07-2.29,39.4,5.72l9.27,0C1152.53,750.82,1126.27,752,1116.07,762.51Z" transform="translate(1.39 -521.46)"/><path class="cls-44" d="M1126.39,756.69a33.6,33.6,0,0,0-15.88,11.66l54-.15A33.78,33.78,0,0,0,1126.39,756.69Z" transform="translate(1.39 -521.46)"/></g><path class="cls-48" d="M1190.77,742.55c3.8-.64,18.36,4.43,22.91,16.08" transform="translate(1.39 -521.46)"/><path class="cls-48" d="M1155,723.91c3.37-1.82,18.79-1.89,26.94,7.6" transform="translate(1.39 -521.46)"/><path class="cls-48" d="M1147.55,727a13.13,13.13,0,0,1,4.1-2" transform="translate(1.39 -521.46)"/><path class="cls-48" d="M1135.84,757.75c10.88-.24,14.66.75,21.66,7.75" transform="translate(1.39 -521.46)"/><path class="cls-48" d="M1111.7,731.07c8.35-1.38,16.45-.54,24.36,6.87" transform="translate(1.39 -521.46)"/></svg>