<svg id="Layer_15" data-name="Layer 15" xmlns="http://www.w3.org/2000/svg" viewBox="0 0 248.46 569.39"><defs><style>.cls-1,.cls-2{fill:#353535;}.cls-1{fill-opacity:0.79;}.cls-2{fill-opacity:0.17;}.cls-12,.cls-3,.cls-4,.cls-5,.cls-6{fill:#fff;}.cls-3{fill-opacity:0.35;}.cls-4{fill-opacity:0.2;}.cls-5{fill-opacity:0.15;}.cls-6{fill-opacity:0.26;}.cls-7{fill:#232323;opacity:0.67;}.cls-8{fill:#fcfcfc;opacity:0.38;}.cls-10,.cls-11,.cls-9{fill:none;}.cls-9{stroke:#494949;stroke-opacity:0.05;stroke-width:10px;}.cls-10,.cls-11,.cls-12,.cls-9{stroke-miterlimit:10;}.cls-10{stroke:#282828;stroke-opacity:0.1;stroke-width:4px;}.cls-11,.cls-12{stroke:#5b5b5b;stroke-width:3px;}.cls-12{fill-opacity:0.1;}</style></defs><path class="cls-1" d="M586.92,596.9c0-19.82,19.12-68.53,44.23-91.4H617.53c-30.61,10.58-67.53,69.5-68.1,86.65C556,597,586.92,596.9,586.92,596.9Z" transform="translate(-522.96 -31)"/><path class="cls-2" d="M576.17,33.09c-12,108.78.66,338.35,49.16,444.46H610.05c-21.92-50.05-86-248.26-67.76-444.46Z" transform="translate(-522.96 -31)"/><path class="cls-3" d="M719.83,33.37c12,108.78-.66,338.35-49.16,444.46H686c21.93-50.05,86-248.26,67.77-444.46Z" transform="translate(-522.96 -31)"/><path class="cls-4" d="M647,33.76V479h6.32c19.26-77.41,57.13-263.61,31.22-444.46Z" transform="translate(-522.96 -31)"/><path class="cls-5" d="M677.84,598.63c0-49.48-18.27-88.37-23.76-92.63h12.14c25.1,22.87,44.23,71.58,44.23,91.4Z" transform="translate(-522.96 -31)"/><path class="cls-6" d="M746.75,592.34c0-15.28-37.49-76.07-68.09-86.65L690,506c52.44,18,80.91,74.92,64.43,83.91Z" transform="translate(-522.96 -31)"/><path class="cls-7" d="M650.08,476.91s-28.53,1.41-28.3,14.75,9.37,13.84,9.37,13.84-20.15.5-27.42.33c-1.73-3.83-6-16.68.12-28.26C620,477,650.08,476.91,650.08,476.91Z" transform="translate(-522.96 -31)"/><path class="cls-8" d="M650,477s26.83,1.77,26.82,14.38S663,506,663,506h22.59c5-8,1.87-26.84,0-28.42C676.8,478,650,477,650,477Z" transform="translate(-522.96 -31)"/><path class="cls-9" d="M610.55,32.45c-25.91,180.85,12,367,31.23,444.46" transform="translate(-522.96 -31)"/><path class="cls-10" d="M641,506c-5.49,4.26-21.28,41.67-21.28,91.16" transform="translate(-522.96 -31)"/><line class="cls-11" x1="80.89" y1="446.57" x2="167.78" y2="446.57"/><line class="cls-11" x1="80.89" y1="474.81" x2="167.78" y2="474.86"/><path class="cls-12" d="M647.18,598.89c24,0,91.41,0,107.89-9S743.08,524,690.64,506c7.49-13.48,0-28.47,0-28.47s91.4-172.31,77.91-445H525.81c-13.48,272.71,77.92,445,77.92,445s-7.49,15,0,28.47c-52.44,18-80.91,74.92-64.43,83.91S623.21,598.89,647.18,598.89Z" transform="translate(-522.96 -31)"/></svg>