<?xml version="1.0" encoding="utf-8"?>
<!-- Generator: Adobe Illustrator 25.2.2, SVG Export Plug-In . SVG Version: 6.00 Build 0)  -->
<svg version="1.1" id="Layer_1" xmlns="http://www.w3.org/2000/svg" xmlns:xlink="http://www.w3.org/1999/xlink" x="0px" y="0px"
	 viewBox="0 0 248.5 569.4" style="enable-background:new 0 0 248.5 569.4;" xml:space="preserve">
<style type="text/css">
	.st0{fill:#353535;fill-opacity:0.79;}
	.st1{fill:#353535;fill-opacity:0.17;}
	.st2{fill:#FFFFFF;fill-opacity:0.35;}
	.st3{fill:#FFFFFF;fill-opacity:0.2;}
	.st4{fill:#FFFFFF;fill-opacity:0.15;}
	.st5{fill:#FFFFFF;fill-opacity:0.26;}
	.st6{opacity:0.67;fill:#232323;enable-background:new    ;}
	.st7{opacity:0.38;fill:#FCFCFC;enable-background:new    ;}
	.st8{fill:none;stroke:#494949;stroke-width:10;stroke-miterlimit:10;stroke-opacity:5.000000e-02;}
	.st9{fill:none;stroke:#282828;stroke-width:4;stroke-miterlimit:10;stroke-opacity:0.1;}
	.st10{fill:none;stroke:#5B5B5B;stroke-width:3;stroke-miterlimit:10;}
	.st11{fill:#FFFFFF;fill-opacity:0.1;stroke:#5B5B5B;stroke-width:3;stroke-miterlimit:10;}
</style>
<g id="Layer_15">
	<path class="st0" d="M64,565.9c0-19.8,19.1-68.5,44.2-91.4H94.6C64,485.1,27,544,26.5,561.2C33,566,64,565.9,64,565.9z"/>
	<path class="st1" d="M53.2,2.1c-12,108.8,0.7,338.4,49.2,444.5H87.1c-21.9-50-86-248.3-67.8-444.5L53.2,2.1z"/>
	<path class="st2" d="M196.9,2.4c12,108.8-0.7,338.4-49.2,444.5h15.3c21.9-50,86-248.3,67.8-444.5L196.9,2.4z"/>
	<path class="st3" d="M124,2.8V448h6.3c19.3-77.4,57.1-263.6,31.2-444.5L124,2.8z"/>
	<path class="st4" d="M154.9,567.6c0-49.5-18.3-88.4-23.8-92.6h12.1c25.1,22.9,44.2,71.6,44.2,91.4L154.9,567.6z"/>
	<path class="st5" d="M223.9,561.3c0-15.3-37.5-76.1-68.1-86.6l11.3,0.3c52.4,18,80.9,74.9,64.4,83.9L223.9,561.3z"/>
	<path class="st6" d="M127.1,445.9c0,0-28.5,1.4-28.3,14.8s9.4,13.8,9.4,13.8S88,475,80.8,474.8c-1.7-3.8-6-16.7,0.1-28.3
		C97,446,127.1,445.9,127.1,445.9z"/>
	<path class="st7" d="M127,446c0,0,26.8,1.8,26.8,14.4S140.1,475,140.1,475h22.6c5-8,1.9-26.8,0-28.4C153.9,447,127,446,127,446z"/>
	<path class="st8" d="M87.6,1.5c-25.9,180.9,12,367,31.2,444.5"/>
	<path class="st9" d="M118,475c-5.5,4.3-21.3,41.7-21.3,91.2"/>
	<line class="st10" x1="80.9" y1="446.6" x2="167.9" y2="446.6"/>
	<line class="st10" x1="80.9" y1="474.8" x2="167.9" y2="474.9"/>
	<path class="st11" d="M124.2,567.9c24,0,91.4,0,107.9-9s-12-65.9-64.4-83.9c7.5-13.5,0-28.5,0-28.5s91.4-172.3,77.9-445H2.8
		c-13.5,272.7,77.9,445,77.9,445s-7.5,15,0,28.5c-52.4,18-80.9,74.9-64.4,83.9S100.2,567.9,124.2,567.9z"/>
</g>
</svg>
