<svg xmlns="http://www.w3.org/2000/svg" viewBox="0 0 239.24 244.5"><defs><style>.cls-1{fill:#1d9ebb;}.cls-1,.cls-6{stroke:#003e4c;}.cls-1,.cls-10,.cls-6,.cls-9{stroke-miterlimit:10;stroke-width:3px;}.cls-2{fill:#b3f4ff;}.cls-3{fill:#5acfe2;}.cls-4{fill:#54b5d3;}.cls-5{fill:#97e9ff;}.cls-6,.cls-9{fill:none;}.cls-7{fill:#47acc4;}.cls-8{fill:#7dd9ef;}.cls-10,.cls-9{stroke:#fff;stroke-linecap:round;}.cls-10{fill:#fff;}.cls-11{fill:#013c49;opacity:0.31;}.cls-12{fill:#81e9ef;}.cls-13{fill:#aef0ff;}</style></defs><g id="Layer_12" data-name="Layer 12"><path class="cls-1" d="M284,325l43.3,5.81a4.2,4.2,0,0,0,3-.76l44.78-32.35a4.22,4.22,0,0,0,1.74-3.41v-67a4.22,4.22,0,0,0-3.87-4.21l-69.78-5.72a4.23,4.23,0,0,0-3.54,1.45l-43.14,50.07a4.23,4.23,0,0,0-.56,4.66l24.84,49.17A4.18,4.18,0,0,0,284,325Z" transform="translate(-139.09 -123.58)"/></g><g id="Layer_13" data-name="Layer 13"><path class="cls-2" d="M376.82,233.58c-9.5-1.4-21.66,5.38-26.57,9.47s-20,6.8-18.23,17.13-.43,33.94,0,39.32.16,17.56,1.79,22.21l1.63,4.64-6.51,4.71L321,330s3.77-2.55,5.67-13.15,1.83-15.33.7-21.83,3.76-32.22-4-36.82-8.78-4.54-16.77-4.74S277,252,277,252l-1-5.71s21.67,1.18,31.72,2.77,11.68,2.86,19.62,2.06,16.05-10.07,23.16-14.5,12.62-7.87,15-9.31.47-3.87.47-3.87h10.9Z" transform="translate(-139.09 -123.58)"/><path class="cls-3" d="M370.82,239.32c-4-2.23-13.09,2-17.06,7.12s-14.26,7.33-16.36,11.84-1.87,27.13,0,37.71-2.57,19.87,1.4,20.81,18.47-12.86,22.91-14,6.69-3.83,9.11-7.76,3.51-22.58,1.87-28.7S374.8,241.55,370.82,239.32Z" transform="translate(-139.09 -123.58)"/><path class="cls-4" d="M316.83,260.63c-4.44-3.44-33.65-2.18-36.47-2.35s0,60.39,0,60.39a152,152,0,0,0,15.9,1c7.95,0,15.35,6.25,19.48,5.1s3.89-7.33,6-13.13-3-23.09-3.74-29.63S321.27,264.06,316.83,260.63Z" transform="translate(-139.09 -123.58)"/><path class="cls-5" d="M358.2,225.17c-3.51-1.73-23.71-3-28.37-1.73s-35.21,19.61-35.21,19.61,13.93,2.66,20,2.92,2.15,1.66,15.24-1.4S361.71,226.9,358.2,225.17Z" transform="translate(-139.09 -123.58)"/></g><g id="Layer_16" data-name="Layer 16"><path class="cls-6" d="M284,325l43.3,5.81a4.2,4.2,0,0,0,3-.76l44.78-32.35a4.22,4.22,0,0,0,1.74-3.41v-67a4.22,4.22,0,0,0-3.87-4.21l-69.78-5.72a4.23,4.23,0,0,0-3.54,1.45l-43.14,50.07a4.23,4.23,0,0,0-.56,4.66l24.84,49.17A4.18,4.18,0,0,0,284,325Z" transform="translate(-139.09 -123.58)"/></g><g id="Layer_2" data-name="Layer 2"><path class="cls-1" d="M207.37,366.23l-63.5-24.77a5.18,5.18,0,0,1-3.28-4.82v-79a5.15,5.15,0,0,1,3-4.7l64.07-29a5.16,5.16,0,0,1,3.67-.22l66.78,20.83a5.16,5.16,0,0,1,3.63,4.93V328.6a5.17,5.17,0,0,1-2.91,4.65l-67.35,32.81A5.19,5.19,0,0,1,207.37,366.23Z" transform="translate(-139.09 -123.58)"/></g><g id="Layer_6" data-name="Layer 6"><path class="cls-7" d="M195.78,285c-5.15-5.36-18.12-13.18-26.77-13s-16.68-5.56-20.39-2.88-3.14,14-1.24,21S150.12,306,149.44,312l-2.06,17.92s-2.47,7.21,7.83,8.65,34.6,16.27,40.57,16.27,6.8-.62,6-8.24,2.27-30.89,0-37.48S200.93,290.33,195.78,285Z" transform="translate(-139.09 -123.58)"/><path class="cls-3" d="M274.25,258.41c-7-1-15.45,4.35-23.27,10s-29.34,11.42-32.54,17,1.74,19.43,0,30.07-4.33,23.27-2.68,27.6,0,9.27,3.29,10.5,4.2,2.2,8,0,23.27-13.18,29-17.71,11.53-4.53,16.47-6.8,5.36-10.29,3.71-18.33S281.25,259.44,274.25,258.41Z" transform="translate(-139.09 -123.58)"/><path class="cls-8" d="M202.6,231.64c5.88-2.06,2.56-4.33,7.6-4.33s17.3,5.56,23.48,6.39,26.15,8,27.39,10.56-1.24,1.79-3.3,5.5-16.47,7.42-23.89,11.95-10.66,3.93-16.68,6.7-9.68-1.55-16.27-1.55-34.81-8.86-36.45-11.54-6-5.86,1.23-7.46S196.72,233.7,202.6,231.64Z" transform="translate(-139.09 -123.58)"/></g><g id="Layer_4" data-name="Layer 4"><path class="cls-2" d="M141,258s27.38,8.17,32.5,9.71,25.58,7.24,29.28,11.86,4.54,41.6,5.24,51.61-.93,30.66-1.39,32.2-3.4,1.17-3.4,1.17l6.48,2.53,6.14-3s-2.59-2.09-3.52-7.18-1.12-43.91-.92-36.2.09-30.59.92-34.21-.92-1.23,5.09-6.93,28.65-14.64,37.43-19,27-9.55,27-9.55l-.7-4.32-3.72-2.15-40,20.18S212,277.38,209.66,277.54,171,264,171,264s-23.66-7.67-26.85-10.85L141,254.58Z" transform="translate(-139.09 -123.58)"/></g><g id="Layer_7" data-name="Layer 7"><path class="cls-6" d="M207.37,366.23l-63.5-24.77a5.18,5.18,0,0,1-3.28-4.82v-79a5.15,5.15,0,0,1,3-4.7l64.07-29a5.16,5.16,0,0,1,3.67-.22l66.78,20.83a5.16,5.16,0,0,1,3.63,4.93V328.6a5.17,5.17,0,0,1-2.91,4.65l-67.35,32.81A5.19,5.19,0,0,1,207.37,366.23Z" transform="translate(-139.09 -123.58)"/></g><g id="Layer_9" data-name="Layer 9"><path class="cls-9" d="M208.48,229.78c6.75-.82,9,1.4,13.25,3.3a45.51,45.51,0,0,0,13.8,4.12,44.33,44.33,0,0,1,10.86,3.09" transform="translate(-139.09 -123.58)"/><path class="cls-10" d="M249.33,241.52c3.6.83,6.08,2,7.21,3" transform="translate(-139.09 -123.58)"/><path class="cls-9" d="M273.74,260.63c2.31,11.74-.13,27.34,0,32.12S272.58,305,273,307.89" transform="translate(-139.09 -123.58)"/><path class="cls-9" d="M273.35,324.73c2.39-3.24,1.31-10.2,1.31-10.2" transform="translate(-139.09 -123.58)"/><path class="cls-9" d="M354.69,226.1c-5.84-.81-33.42-1.63-33.42-1.63" transform="translate(-139.09 -123.58)"/><path class="cls-9" d="M368,241.52c2.8,1.53,1.87,14.74,1.87,20.82v15.44c0,4.89,0,8.44-.94,12.84" transform="translate(-139.09 -123.58)"/><path class="cls-9" d="M368,295c-1.64,3.79-3,3.09-8.18,5.66" transform="translate(-139.09 -123.58)"/></g><g id="Layer_17" data-name="Layer 17"><path class="cls-11" d="M282.53,265.37c-21.13,10.05-22.5,4-37.46-1.87-10.17-4-69.1-25.23-69.1-25.23l39.26-17.59L281.77,251v21.81" transform="translate(-139.09 -123.58)"/><path class="cls-11" d="M333.81,227.31a27.29,27.29,0,0,1-1.09,7.64c-1.17,3.76-26.93,13.55-30.62,17.1s-16.15,14.63-19.57,25.2L281.77,251l52-23.73" transform="translate(-139.09 -123.58)"/></g><g id="Layer_11" data-name="Layer 11"><path class="cls-1" d="M263.59,259.85l-59.93-23.38a4.87,4.87,0,0,1-3.1-4.54V157.35a4.88,4.88,0,0,1,2.87-4.45l60.46-27.38a4.86,4.86,0,0,1,3.46-.21l63,19.66a4.87,4.87,0,0,1,3.43,4.65v74.72a4.87,4.87,0,0,1-2.74,4.38l-63.57,31A4.88,4.88,0,0,1,263.59,259.85Z" transform="translate(-139.09 -123.58)"/><path class="cls-4" d="M252.66,183.16c-4.86-5-17.11-12.44-25.27-12.24s-15.75-5.25-19.25-2.72-3,13.24-1.16,19.82,2.58,15,1.94,20.61L207,225.54s-2.34,6.8,7.38,8.16,32.66,15.36,38.3,15.36,6.41-.58,5.63-7.78,2.14-29.15,0-35.37S257.51,188.22,252.66,183.16Z" transform="translate(-139.09 -123.58)"/><path class="cls-12" d="M326.71,158.09c-6.6-1-14.57,4.1-22,9.44s-27.69,10.77-30.71,16,1.64,18.34,0,28.38-4.08,22-2.53,26,0,8.75,3.11,9.91,4,2.07,7.58,0,22-12.44,27.41-16.71,10.88-4.28,15.55-6.42,5-9.72,3.5-17.3S333.32,159.06,326.71,158.09Z" transform="translate(-139.09 -123.58)"/><path class="cls-13" d="M259.09,132.82c5.55-1.94,2.42-4.08,7.17-4.08s16.33,5.25,22.16,6,24.69,7.51,25.85,10-1.16,1.7-3.11,5.2-15.55,7-22.54,11.27-10.06,3.71-15.75,6.33-9.14-1.47-15.36-1.47-32.85-8.36-34.4-10.89-5.64-5.53,1.17-7S253.54,134.76,259.09,132.82Z" transform="translate(-139.09 -123.58)"/><path class="cls-2" d="M200.9,157.67l30.68,9.16c4.84,1.45,24.14,6.84,27.63,11.2s4.28,39.26,5,48.71-.88,28.94-1.31,30.4-3.21,1.1-3.21,1.1l6.12,2.39,5.79-2.83s-2.45-2-3.32-6.77-1.06-41.44-.88-34.17.09-28.88.88-32.29-.88-1.16,4.8-6.54,27-13.81,35.33-17.89,25.45-9,25.45-9l-.66-4.07-3.51-2-37.71,19s-24,11.92-26.17,12.07-36.5-12.8-36.5-12.8-22.33-7.24-25.35-10.23l-3,1.36Z" transform="translate(-139.09 -123.58)"/><path class="cls-6" d="M263.59,259.85l-59.93-23.38a4.87,4.87,0,0,1-3.1-4.54V157.35a4.88,4.88,0,0,1,2.87-4.45l60.46-27.38a4.86,4.86,0,0,1,3.46-.21l63,19.66a4.87,4.87,0,0,1,3.43,4.65v74.72a4.87,4.87,0,0,1-2.74,4.38l-63.57,31A4.88,4.88,0,0,1,263.59,259.85Z" transform="translate(-139.09 -123.58)"/><path class="cls-9" d="M264.69,132.35c6.1-.73,8.16,1.22,12,2.89a41.69,41.69,0,0,0,12.47,3.61,41.12,41.12,0,0,1,9.81,2.71" transform="translate(-139.09 -123.58)"/><path class="cls-10" d="M303.46,143.74c3.32.62,5.6,1.5,6.64,2.3" transform="translate(-139.09 -123.58)"/><path class="cls-9" d="M326.23,160.18c2.19,11.08-.12,25.8,0,30.32s-1.09,11.52-.73,14.29" transform="translate(-139.09 -123.58)"/><path class="cls-9" d="M325.86,220.68c2.26-3.06,1.24-9.62,1.24-9.62" transform="translate(-139.09 -123.58)"/></g></svg>