<svg xmlns="http://www.w3.org/2000/svg" viewBox="0 0 431.97 439.87"><defs><style>.cls-1{fill:#473929;}.cls-1,.cls-6,.cls-7{stroke:#332007;stroke-width:2px;}.cls-1,.cls-5,.cls-6,.cls-7{stroke-miterlimit:10;}.cls-2{fill:#332007;}.cls-3{fill:#2d1c07;}.cls-4{fill:#564334;}.cls-5,.cls-6,.cls-7{fill:none;}.cls-5{stroke:#564334;stroke-width:4px;}.cls-5,.cls-6{stroke-linecap:round;}</style></defs><g id="Layer_24" data-name="Layer 24"><path class="cls-1" d="M79.86,23.67c11.26-3.89,163.94-1.78,201.91-5s201.54,5.8,206.79,10,9.44,81.69,6.05,85.79-326.67-.72-339.53-4.81-77.67,4.83-82.94,2.54S68.6,27.56,79.86,23.67Z" transform="translate(-65.03 2)"/><path class="cls-1" d="M483.42,114.25c-13,32-3.47,83.93-3.47,83.93s-403.55-2.6-407.88-3.46-7-33.77-5.69-52,13.48-30.85,13.48-30.85,51.71-6,75.22-2.31S387.29,109.85,483.42,114.25Z" transform="translate(-65.03 2)"/><path class="cls-1" d="M487.7,198.18c4.38,2.6,4.27,87.64,0,90.59-6,1.21-13-.73-13-.73L349.46,281s-157.89,1.19-216.77,2.92c-46.77-2.59-52.83-5.51-52.83-5.51s-4.33-80.09,0-83.62S483.31,195.58,487.7,198.18Z" transform="translate(-65.03 2)"/><path class="cls-1" d="M483.42,358s-7-66.69-8.69-69.94S389.58,282.4,349.46,281s-184.73,3.79-216.77,2.92-54.42-8.43-60.55-6.38-6.14,42.76,0,70a46.94,46.94,0,0,0,7.72,15.55l243.35-.34L411.67,358Z" transform="translate(-65.03 2)"/><path class="cls-1" d="M79.86,433.91c-5.2-9.7-.87-27-4.33-40.88s4.33-30,4.33-30,217.37.53,243.35-.34,60.88-2.54,88.46-4.74,72.51-3,76,0-3.52,12.12,0,43.07,1.78,35.28-26.8,35.28-228.62,0-271.92-5.2S85.06,443.61,79.86,433.91Z" transform="translate(-65.03 2)"/><polygon class="cls-1" points="335.99 1 335.99 22.78 303.64 21.27 303.3 1 335.99 1"/><polygon class="cls-1" points="71.04 1 71.04 22.78 105.22 22.64 107.14 1 71.04 1"/><path class="cls-2" d="M149.89-1s-5.47,2.73-6.14,10.89,3.07,10.85,3.07,10.85l-10.75,0V-1Z" transform="translate(-65.03 2)"/><path class="cls-2" d="M379.51-1s-2.86,5.32-2.3,10.89,1.15,9.79,1.15,9.79l-9.69-.41L368.33-1Z" transform="translate(-65.03 2)"/></g><g id="Layer_25" data-name="Layer 25"><path class="cls-3" d="M310,194.45c-21.44,1.13-206.29,9.29-232.07,14.74a141.66,141.66,0,0,1,1.92-14.41S331.45,193.32,310,194.45Z" transform="translate(-65.03 2)"/><path class="cls-3" d="M69.29,129.64s62.53-12,100.63-11.13,120.38-6.85,120.38-6.85-112.62,1.56-136.85-2.29-75.51,3.46-75.51,3.46Z" transform="translate(-65.03 2)"/><path class="cls-3" d="M74.64,379.29c53.72-12.24,229.61-16.23,229.61-16.23H79.86S74.62,372.47,74.64,379.29Z" transform="translate(-65.03 2)"/><path class="cls-4" d="M374.92,19.82s86,13,100.7,20.75,13.73,74.58,13.73,74.58.13.76,5.26-.74c2.66-24.48-2.64-83-6.05-85.79S374.92,19.82,374.92,19.82Z" transform="translate(-65.03 2)"/><path class="cls-4" d="M476.68,152S473,180,463.5,186.92s-57.5,8.84-57.5,8.84,67.89.69,73.55,0C475.62,185.19,476.68,152,476.68,152Z" transform="translate(-65.03 2)"/><path class="cls-4" d="M448.62,198s20.94,1.94,27.87,15.8,10.39,38.1,13.14,66.1c3.31-22.8-2-81.69-1.93-81.69Z" transform="translate(-65.03 2)"/><path class="cls-4" d="M457.46,356a21.15,21.15,0,0,1,17.3,12.76C480,380.91,489,416.52,489,416.52s-1.65-21.84-2.32-32.62,2.7-22.86,1-25.92S457.46,356,457.46,356Z" transform="translate(-65.03 2)"/><path class="cls-3" d="M317.05,280.82s-130.17,10.89-170,12.62-55.07,1.73-79,0c.56-4.33-1.38-13.63,4.61-15.91s35.43,6.38,60.54,6.38S317.05,280.82,317.05,280.82Z" transform="translate(-65.03 2)"/></g><g id="Layer_27" data-name="Layer 27"><path class="cls-5" d="M76.19,308.49c44.34,3.22,77.92,2.32,119.21,5.37s129.91-11.67,143.68-13.41,29.25,1.74,29.25,1.74" transform="translate(-65.03 2)"/><path class="cls-5" d="M72.07,340.41s20.06,11.14,53.62,7.67,88.6-3.84,88.6-3.84" transform="translate(-65.03 2)"/><path class="cls-5" d="M261.64,336.83s83.33,1,111.36,7.41,104.08-5.32,104.08-5.32" transform="translate(-65.03 2)"/><path class="cls-5" d="M77.76,397.83s60.83-1.25,86.65-3,54.94-12.77,87.27-14.18,93.42,10.71,93.42,10.71" transform="translate(-65.03 2)"/><path class="cls-5" d="M234.1,420.83s-57.95-5-90.92-2.93-63.72,11.74-63.72,11.74" transform="translate(-65.03 2)"/><path class="cls-5" d="M310.47,411.39c1.93-.09,51.83,8.57,80.23,8.57s73.95-15.67,96.34-14.33" transform="translate(-65.03 2)"/><path class="cls-5" d="M80.33,245.51S99,257.15,130,255.42s67.11,2.6,108.41,5.2,60.23-4.33,60.23-4.33" transform="translate(-65.03 2)"/><path class="cls-5" d="M487.91,286s-48.16-19.31-80.86-17.58-69.15,0-69.15,0" transform="translate(-65.03 2)"/><path class="cls-5" d="M193.34,221.71c29.58-.06,70,9.46,87.23,6.87s49.9.86,78.3,3.46,79.74-5.17,79.74-5.17" transform="translate(-65.03 2)"/><path class="cls-5" d="M79.46,146.83S132.57,142,161,138.51s71.41,1.73,92.92,2.6S334.46,131,334.46,131" transform="translate(-65.03 2)"/><path class="cls-5" d="M81.53,175.42s57.06-12.66,81.16-8.33,91.66,8.33,91.66,8.33" transform="translate(-65.03 2)"/><path class="cls-5" d="M475.79,149.93s-33.8,5.31-62.89,4.74-43.48,7-75,10.59-42.71-5.1-42.71-5.1" transform="translate(-65.03 2)"/><path class="cls-5" d="M72.07,86.16s38.13.39,58.78,2.12S247,78.76,263.36,78.76s42.87,4.76,42.87,4.76" transform="translate(-65.03 2)"/><path class="cls-5" d="M494.67,92.69s-48,1.66-68.69,7.72-70.92,0-70.92,0" transform="translate(-65.03 2)"/><path class="cls-5" d="M111.92,38.06c.86-.87,92.93,7.79,121.32,7.79s37.34-7.92,60.4-7.86a284.36,284.36,0,0,1,44.26,3.93" transform="translate(-65.03 2)"/></g><g id="Layer_26" data-name="Layer 26"><path class="cls-6" d="M74.64,307.1c44.62,3.23,78.43,2.33,120,5.38s130.75-11.68,144.61-13.41,29.44,1.73,29.44,1.73" transform="translate(-65.03 2)"/><path class="cls-6" d="M70.49,339s20.19,11.14,54,7.68,89.17-3.84,89.17-3.84" transform="translate(-65.03 2)"/><path class="cls-6" d="M261.29,335.44s83.87,1,112.08,7.42,104.76-5.33,104.76-5.33" transform="translate(-65.03 2)"/><path class="cls-6" d="M76.22,396.45s61.23-1.25,87.21-3,55.29-12.76,87.83-14.17,94,10.71,94,10.71" transform="translate(-65.03 2)"/><path class="cls-6" d="M233.57,419.44s-58.32-5-91.51-2.92-64.12,11.73-64.12,11.73" transform="translate(-65.03 2)"/><path class="cls-6" d="M310.44,410c1.94-.09,52.17,8.57,80.75,8.57s74.43-15.68,97-14.33" transform="translate(-65.03 2)"/><path class="cls-6" d="M78.8,244.13s18.81,11.64,50,9.91,67.55,2.6,109.12,5.19,60.62-4.33,60.62-4.33" transform="translate(-65.03 2)"/><path class="cls-6" d="M489,284.61S440.55,265.3,407.64,267s-69.6,0-69.6,0" transform="translate(-65.03 2)"/><path class="cls-6" d="M192.55,220.32c29.77-.06,70.47,9.47,87.79,6.87s50.23.87,78.81,3.47,80.26-5.17,80.26-5.17" transform="translate(-65.03 2)"/><path class="cls-6" d="M77.94,145.45s53.45-4.86,82-8.32,71.88,1.73,93.53,2.6,81.1-10.09,81.1-10.09" transform="translate(-65.03 2)"/><path class="cls-6" d="M80,174s57.44-12.66,81.69-8.33S254,174,254,174" transform="translate(-65.03 2)"/><path class="cls-6" d="M476.82,148.55s-34,5.31-63.29,4.74-43.77,7-75.49,10.59-43-5.1-43-5.1" transform="translate(-65.03 2)"/><path class="cls-6" d="M70.49,84.78s38.38.39,59.16,2.12S246.57,77.37,263,77.37s43.15,4.77,43.15,4.77" transform="translate(-65.03 2)"/><path class="cls-6" d="M495.83,91.31S447.48,93,426.69,99s-71.37,0-71.37,0" transform="translate(-65.03 2)"/><path class="cls-6" d="M110.6,36.67c.87-.86,93.53,7.8,122.11,7.8s37.58-7.92,60.79-7.86A286.4,286.4,0,0,1,338,40.54" transform="translate(-65.03 2)"/></g><g id="Layer_28" data-name="Layer 28"><path class="cls-7" d="M80,23.39c11.25-3.89,163.93-1.78,201.91-5s201.54,5.8,206.79,10,9.44,81.69,6,85.79c-5.29.91-145.58-5.15-339.53-4.81-34.68-4.67-77.66,4.83-82.93,2.54S68.77,27.27,80,23.39Z" transform="translate(-65.03 2)"/><path class="cls-7" d="M483.58,114c-13,32-3.46,83.93-3.46,83.93s-403.56-2.6-407.89-3.47-7-33.76-5.68-52S80,111.62,80,111.62s51.71-6,75.21-2.3S387.46,109.56,483.58,114Z" transform="translate(-65.03 2)"/><path class="cls-7" d="M487.86,197.9c4.38,2.59,4.28,87.64,0,90.58-6,1.21-13-.73-13-.73l-125.27-7s-157.89,1.19-216.78,2.92C86.09,281,80,278.11,80,278.11S75.7,198,80,194.5,483.48,195.3,487.86,197.9Z" transform="translate(-65.03 2)"/><path class="cls-7" d="M483.58,357.7c-1-11.43-7-66.69-8.68-69.95s-85.15-5.64-125.27-7-184.74,3.79-216.78,2.92-54.41-8.43-60.54-6.38-6.14,42.75,0,70A47.07,47.07,0,0,0,80,362.78l243.34-.34,88.47-4.74S472.49,354.41,483.58,357.7Z" transform="translate(-65.03 2)"/><path class="cls-7" d="M80,433.62c-5.2-9.7-.87-27-4.33-40.87s4.33-30,4.33-30,217.36.52,243.34-.34,60.88-2.55,88.47-4.74,72.51-3,76,0-3.51,12.12,0,43.07,1.78,35.28-26.79,35.28-228.63,0-271.93-5.2S85.22,443.33,80,433.62Z" transform="translate(-65.03 2)"/></g></svg>