<svg id="Layer_12" data-name="Layer 12" xmlns="http://www.w3.org/2000/svg" viewBox="0 0 155.19 129"><defs><style>.cls-1{fill:#489e10;}.cls-1,.cls-3,.cls-5,.cls-6{stroke:#388407;stroke-miterlimit:10;}.cls-1,.cls-5,.cls-6{stroke-width:2px;}.cls-2{fill:#337508;}.cls-3,.cls-5,.cls-6{fill:none;}.cls-3{stroke-width:4px;}.cls-4{fill:#6bc134;}.cls-5{stroke-linecap:round;}</style></defs><path class="cls-1" d="M20.27,51.42c-47.35,54.52,151.78,79.92,129.92,65.05S67.63-3.1,20.27,51.42Z" transform="translate(2 7)"/><path class="cls-2" d="M151.84,118.25C118.3,96.24,42.42,37.41,36.1,39S26,44.35,25.48,46.11C41.23,43.59,138.83,121.17,151.84,118.25Z" transform="translate(2 7)"/><path class="cls-3" d="M29.36,49.3C-.28,33.6,0,0,0,0V-7" transform="translate(2 7)"/><path class="cls-4" d="M151.84,118.71C112.19,113,49.68,55.43,20.27,51.42c4.93-5.54.35.56,5.21-5.31C45,47.4,126.69,113.79,151.84,118.71Z" transform="translate(2 7)"/><path class="cls-5" d="M25.48,46.11c20.29-.27,84.3,58.1,126.36,72.6" transform="translate(2 7)"/><path class="cls-5" d="M21.13,84.37c-.25-.12-.86-32.95,15.25-35.21,2.71-11.37,33.1-8.72,33.1-8.72" transform="translate(2 7)"/><path class="cls-5" d="M38.94,96.42S37.27,61.33,53.62,58.84c3.08-10.52,32.58-8,32.58-8" transform="translate(2 7)"/><path class="cls-5" d="M58.35,104.57S54.27,72.48,69.48,69.32c3-13.56,31.86-5.29,31.86-5.29" transform="translate(2 7)"/><path class="cls-5" d="M75.11,109.81s-5.66-28.65,8.81-30.58c2.53-11.08,29.45-2.72,29.45-2.72" transform="translate(2 7)"/><path class="cls-5" d="M90.69,113.7s-5.46-20.77,5.77-25.93c7-11,25.64-1.46,25.64-1.46" transform="translate(2 7)"/><path class="cls-5" d="M106.39,116.83s-9-19,3.19-20.41c.54-9.69,21.24,0,21.24,0" transform="translate(2 7)"/><path class="cls-5" d="M123.51,119.36s-9.14-12.18,0-14.79c0-7.93,14.42,0,14.42,0" transform="translate(2 7)"/><path class="cls-6" d="M20.59,51.76c-47.36,54.52,151.77,79.92,129.92,65.05S67.94-2.76,20.59,51.76Z" transform="translate(2 7)"/></svg>