<svg id="Layer_13" data-name="Layer 13" xmlns="http://www.w3.org/2000/svg" viewBox="0 0 1367.02 100.85"><defs><style>.cls-1{fill:#489e10;}.cls-1,.cls-10,.cls-4,.cls-5,.cls-6{stroke:#388407;}.cls-1,.cls-10,.cls-4,.cls-5,.cls-6,.cls-8,.cls-9{stroke-miterlimit:10;}.cls-1,.cls-4,.cls-5,.cls-6,.cls-8,.cls-9{stroke-width:2px;}.cls-2{fill:#337508;}.cls-3{fill:#6bc134;}.cls-10,.cls-4,.cls-5,.cls-8,.cls-9{fill:none;}.cls-4,.cls-8{stroke-linecap:round;}.cls-6{fill:#5faf2b;}.cls-7{fill:#397c0e;}.cls-8,.cls-9{stroke:#40910c;}.cls-10{stroke-width:4px;}</style></defs><path class="cls-1" d="M116.47.07" transform="translate(0 1.07)"/><path class="cls-1" d="M19.74.83a.53.53,0,0,0,0,.13H55.22Z" transform="translate(0 1.07)"/><path class="cls-1" d="M19.73,1a43.37,43.37,0,0,0,.07,5.31c3.47,49.79,99.8,3,98.65-5.09L55.22,1Z" transform="translate(0 1.07)"/><polygon class="cls-2" points="19.73 1.9 19.73 1.9 19.72 1.9 19.73 1.9"/><path class="cls-2" d="M117.49,1.17,77.46,1C96.32,2.43,113.46,3.47,117.49,1.17Z" transform="translate(0 1.07)"/><polygon class="cls-2" points="19.73 1.9 19.73 1.9 19.72 1.9 19.73 1.9"/><path class="cls-2" d="M19.73.83,73.18.71" transform="translate(0 1.07)"/><path class="cls-2" d="M73.18.71,76.42,1h41.4" transform="translate(0 1.07)"/><path class="cls-3" d="M19.73.83,55.21,1H69.79" transform="translate(0 1.07)"/><path class="cls-3" d="M69.79,1H55.21L70.5,1Z" transform="translate(0 1.07)"/><path class="cls-3" d="M19.73.83h0l0,.12H55.21Z" transform="translate(0 1.07)"/><path class="cls-3" d="M70.5,1,55.21,1H19.74c.5,5.46-.26-.13.06,5.31,16.41-8.35,75.2,5.6,98-5.1h-.13C110.07,3.8,90.36,2.49,70.5,1Z" transform="translate(0 1.07)"/><path class="cls-3" d="M118.29,1h0" transform="translate(0 1.07)"/><path class="cls-4" d="M19.72.84" transform="translate(0 1.07)"/><path class="cls-4" d="M36.64,27.55C36.45,27.57,19.16,8.54,26,1" transform="translate(0 1.07)"/><path class="cls-4" d="M51.45,28.75S32.16,8.78,39,1" transform="translate(0 1.07)"/><path class="cls-4" d="M65.11,26.8S47.05,8.79,53,1" transform="translate(0 1.07)"/><path class="cls-4" d="M76,23.93S58.8,7.71,65,1" transform="translate(0 1.07)"/><path class="cls-4" d="M85.65,20.62S72.61,9.06,75.59,1.46" transform="translate(0 1.07)"/><path class="cls-4" d="M95,16.77S81.69,7.55,87,2" transform="translate(0 1.07)"/><path class="cls-4" d="M104.71,12S94.12,7.44,97.34,2.3" transform="translate(0 1.07)"/><path class="cls-5" d="M20.07.83l98.69.35" transform="translate(0 1.07)"/><path class="cls-5" d="M20.07.83a.53.53,0,0,0,0,.13H55.22Z" transform="translate(0 1.07)"/><path class="cls-5" d="M20.12,6.38" transform="translate(0 1.07)"/><path class="cls-5" d="M55.22,1H20.06" transform="translate(0 1.07)"/><path class="cls-6" d="M1295.87,0" transform="translate(0 1.07)"/><path class="cls-6" d="M1295.87,0c-29.85,28.86-58.54,68.24-71.53,77.31C1203.45,91.93,1320.8,96.86,1366,55.68V-.07Z" transform="translate(0 1.07)"/><path class="cls-6" d="M1366-.07V55.68" transform="translate(0 1.07)"/><path class="cls-7" d="M1331.05,0l21.41,0" transform="translate(0 1.07)"/><path class="cls-7" d="M1331.05,0c-34,24.52-82.59,62.12-109,79.87,9.63,5.89,88.57-55.73,130.43-79.9Z" transform="translate(0 1.07)"/><path class="cls-3" d="M1366-.07V4.08" transform="translate(0 1.07)"/><path class="cls-3" d="M1354,0c-39.09,22.46-110.31,78.72-132.09,80.65,37.35-.45,106.25-61.15,144.15-76.52V-.07Z" transform="translate(0 1.07)"/><path class="cls-3" d="M1354,0" transform="translate(0 1.07)"/><path class="cls-8" d="M1221.87,80.6" transform="translate(0 1.07)"/><path class="cls-8" d="M1368.14,53.65" transform="translate(0 1.07)"/><path class="cls-8" d="M1345.68,69.23s13.76-56.35-2.2-63.95" transform="translate(0 1.07)"/><path class="cls-8" d="M1322.91,78.17s15.21-51,.65-59.41c1.56-22.58-31-15.5-31-15.5" transform="translate(0 1.07)"/><path class="cls-8" d="M1303.88,83s15.65-45.08,1.43-51.36c1.19-18.46-29.38-10.82-29.38-10.82" transform="translate(0 1.07)"/><path class="cls-8" d="M1286.51,85.86s12.74-32.38,3-43.16c-3.43-19.23-25.88-8-25.88-8" transform="translate(0 1.07)"/><path class="cls-8" d="M1269.28,87.49s15.78-28.65,3.72-33.68c2.77-15.78-21.85-4.64-21.85-4.64" transform="translate(0 1.07)"/><path class="cls-8" d="M1250.8,87.85s13.58-17.7,5.07-23.91c2.75-12.8-14.83-3.14-14.83-3.14" transform="translate(0 1.07)"/><path class="cls-9" d="M1295.93,0" transform="translate(0 1.07)"/><path class="cls-9" d="M1366-.07V55.75" transform="translate(0 1.07)"/><path class="cls-9" d="M1295.93,0c-30,28.9-59,68.67-72,77.79-21,14.63,97.23,19.54,142.12-22.08V-.07Z" transform="translate(0 1.07)"/><path class="cls-1" d="M1.11,71.28V18.06" transform="translate(0 1.07)"/><path class="cls-1" d="M117.76,94.26C97.9,80.75,46-6.92,1.11,18.06V71.28C43,95.63,132.82,104.5,117.76,94.26Z" transform="translate(0 1.07)"/><path class="cls-2" d="M119.4,96C85.86,74,10,15.2,3.66,16.76a22.42,22.42,0,0,0-2.55.8v8.25C29.46,37.64,107.85,98.64,119.4,96Z" transform="translate(0 1.07)"/><path class="cls-2" d="M1.11,25.81V17.56" transform="translate(0 1.07)"/><path class="cls-10" d="M19.36-3.12" transform="translate(0 1.07)"/><path class="cls-3" d="M1.11,33.37V26.31" transform="translate(0 1.07)"/><path class="cls-3" d="M1.11,26.31v7.06C33.38,47.55,85,91.57,119.4,96.49,96.89,92.09,29.11,38.44,1.11,26.31Z" transform="translate(0 1.07)"/><path class="cls-4" d="M119.4,96.49" transform="translate(0 1.07)"/><path class="cls-4" d="M3.94,26.94C6.66,15.58,37,18.23,37,18.23" transform="translate(0 1.07)"/><path class="cls-4" d="M6.51,74.21S4.83,39.12,21.18,36.62c3.08-10.51,32.58-8,32.58-8" transform="translate(0 1.07)"/><path class="cls-4" d="M25.92,82.36S21.83,50.27,37,47.11c3-13.57,31.87-5.29,31.87-5.29" transform="translate(0 1.07)"/><path class="cls-4" d="M42.67,87.59S37,58.94,51.48,57C54,45.93,80.94,54.3,80.94,54.3" transform="translate(0 1.07)"/><path class="cls-4" d="M58.26,91.48S52.8,70.71,64,65.56c7-11,25.64-1.46,25.64-1.46" transform="translate(0 1.07)"/><path class="cls-4" d="M74,94.62s-9-19,3.18-20.41c.55-9.69,21.24,0,21.24,0" transform="translate(0 1.07)"/><path class="cls-4" d="M91.08,97.15s-9.14-12.19,0-14.79c0-7.93,14.41,0,14.41,0" transform="translate(0 1.07)"/><path class="cls-5" d="M1.11,71.44V18.58" transform="translate(0 1.07)"/><path class="cls-5" d="M118.07,94.6C98.17,81.05,46-7,1.11,18.58V71.44C42.82,95.92,133.17,104.87,118.07,94.6Z" transform="translate(0 1.07)"/><path class="cls-5" d="M20.41,10.78A48.66,48.66,0,0,1,19.72.84" transform="translate(0 1.07)"/><path class="cls-4" d="M1,26c18,4,75.71,55.58,117.77,70.07" transform="translate(0 1.07)"/><path class="cls-8" d="M1352,0c-13,3-110.72,82.08-129.36,80" transform="translate(0 1.07)"/></svg>