<svg xmlns="http://www.w3.org/2000/svg" viewBox="0 0 234.15 213.43"><defs><style>.cls-1,.cls-6{fill:#ed912e;}.cls-1,.cls-9{stroke:#602700;}.cls-1,.cls-8,.cls-9{stroke-miterlimit:10;stroke-width:3px;}.cls-2{fill:#e57b33;}.cls-3{fill:#e8b331;}.cls-4{fill:#e25d34;}.cls-5{fill:#b0a416;}.cls-7{fill:#602700;}.cls-8,.cls-9{fill:none;}.cls-8{stroke:#ffc6b0;stroke-linecap:round;}</style></defs><g id="Layer_2" data-name="Layer 2"><path class="cls-1" d="M127.91,215.69c3.73-34,57-114.6,133.84-73.09,42.78,18,110.49,88.52,91.66,156.75S188,339.61,154.05,307.78,124.19,249.65,127.91,215.69Z" transform="translate(-123.99 -129.5)"/></g><g id="Layer_3" data-name="Layer 3"><path class="cls-2" d="M134.89,284.31c41.86-79.67,115-105,209.79-58.28-14.48-27.41-39.27-61.25-82.93-83.43s-77.88-5-90.18,5S136,181,130.25,205C124,222.73,122.62,265.29,134.89,284.31Z" transform="translate(-123.99 -129.5)"/><path class="cls-3" d="M162.91,314.65c111.38,3.24,135.41-1.32,193.47-32.63,1.81,8.84-5.55,27-10.2,32.43s-57.43,25.86-87.85,26.37-75.43-16.37-75.43-16.37" transform="translate(-123.99 -129.5)"/></g><g id="Layer_5" data-name="Layer 5"><path class="cls-4" d="M125.44,230.16c40.39-64.11,85-76,85-76s34.49-9.6,96.73,20.34c-40.28-36.54-67.54-42.65-81.84-43.3s-41.89-1.39-70.12,31-29.74,67.91-29.74,67.91" transform="translate(-123.99 -129.5)"/><path class="cls-5" d="M354.52,294.87c-49.23,30-78.13,38.32-146.38,37.92,50,13.5,101,9.6,125.08-6.08,15.58-8.19,21.3-31.84,21.3-31.84" transform="translate(-123.99 -129.5)"/></g><g id="Layer_6" data-name="Layer 6"><path class="cls-6" d="M160.37,174.49c3.77.71,5.54,23.11,2.83,30.58S147.53,234,143.65,233.83s-1.77-27.79.37-35.42S156.6,173.77,160.37,174.49Z" transform="translate(-123.99 -129.5)"/><path class="cls-7" d="M151,192.12c.9,2.5-1.65,18.68-3.21,19.91s-3.71-4.68-3.71-4.68-5.52-4.48-5.47-6,7.61-5,7.61-5S150.12,189.63,151,192.12Z" transform="translate(-123.99 -129.5)"/><path class="cls-8" d="M188.53,143.66c10.34-4.93,31.33-16,71.19,2.88" transform="translate(-123.99 -129.5)"/><path class="cls-8" d="M265.33,149.75c9.85,3.39,28.31,18.45,30.37,21.84" transform="translate(-123.99 -129.5)"/></g><g id="Layer_4" data-name="Layer 4"><path class="cls-9" d="M127.91,215.69c3.73-34,57-114.6,133.84-73.09,42.78,18,110.49,88.52,91.66,156.75S188,339.61,154.05,307.78,124.19,249.65,127.91,215.69Z" transform="translate(-123.99 -129.5)"/></g></svg>