<svg xmlns="http://www.w3.org/2000/svg" viewBox="0 0 177.84 248.91"><defs><style>.cls-1{fill:#d8d8d8;}.cls-2{fill:#e2e2e2;}.cls-3{fill:#329bd6;}.cls-4{fill:#b7b7b7;}.cls-5{fill:#757576;}.cls-6{fill:#eaeaea;}.cls-7{fill:#32afd6;}.cls-8{fill:#228bba;}.cls-9{fill:#37a3d2;}.cls-10{fill:#f8fcfe;}.cls-11{fill:#c4e9f6;}.cls-11,.cls-12{opacity:0.7;}.cls-12{fill:#afe1ef;}.cls-13{fill:#90bcdd;}.cls-14{fill:none;stroke:#17365f;stroke-miterlimit:10;stroke-width:3px;}</style></defs><g id="Layer_3" data-name="Layer 3"><polygon class="cls-1" points="176.34 57.59 134.94 85.75 1.5 78.61 1.5 236.01 134.94 247.35 176.34 209.53 176.34 57.59"/><polygon class="cls-2" points="134.94 85.75 134.94 247.35 176.34 209.53 176.34 57.59 134.94 85.75"/><polygon class="cls-3" points="134.94 86.17 158.12 35.55 158.12 9.15 24.68 1.59 24.68 27.99 1.5 78.61 134.94 86.17"/><polygon class="cls-4" points="157.63 34.78 176.34 57.59 134.94 86.17 157.63 34.78"/><polyline class="cls-5" points="176.34 57.59 151.18 49.38 157.63 34.78 176.34 57.59"/><polyline class="cls-6" points="24.68 27.99 158.12 35.55 158.12 9.15 24.68 1.59 24.68 27.99"/></g><g id="Layer_4" data-name="Layer 4"><path class="cls-7" d="M167.16,267.15c16-3.2,25.13-20.12,40.91-19.21s56.75,22,65.41,26.14-16.42-45.34-16.42-45.34h-89.9v38.41" transform="translate(-165.66 -131.85)"/><path class="cls-8" d="M167.16,258.46c13,3.43,25.94-23.32,56.68-9.6s50.65,32.69,76.76,28.8V218l-133.44-7.56v48" transform="translate(-165.66 -131.85)"/><path class="cls-7" d="M167.16,345.34s11.64-7.78,30.16-7.78,51.21,23.32,69.27,25.15a177.71,177.71,0,0,0,34,0V379.2L167.16,367.86V345.34" transform="translate(-165.66 -131.85)"/><path class="cls-8" d="M167.14,349.22a52,52,0,0,1,31.55-6.86c18.52,1.83,43.21,17.61,60.82,20.58s41.09-2.51,41.09-2.51V379.2L167.16,367.86l0-18.64" transform="translate(-165.66 -131.85)"/><path class="cls-9" d="M342,248.4c-10.71,6.17-17.79-1.37-27.62,6.63s-13.78,22.63-13.78,22.63V218L342,189.44v59" transform="translate(-165.66 -131.85)"/><path class="cls-9" d="M300.6,360.43s10.35.45,18.58-5.49,11.43-18.75,16-21.49,6.82,0,6.82,0v7.93L300.6,379.2Z" transform="translate(-165.66 -131.85)"/><path class="cls-8" d="M205.17,316.79a5,5,0,0,1-2,.86,8.78,8.78,0,0,1-2.8.1,10.24,10.24,0,0,1-3.49-.92,3.25,3.25,0,0,1-1.76-2.07c-1-3.67-1.9-6.64-2.57-8.91s-1.2-4.26-1.56-6l-.3,0q-.22,3.56-.36,6.48c-.09,1.95-.16,3.85-.2,5.7s-.12,3.73-.21,5.62.21,5.55-.36,6.26a5.71,5.71,0,0,1-2,.29,14.68,14.68,0,0,1-2.48-.06,8.58,8.58,0,0,1-4-1.28,3.61,3.61,0,0,1-1.39-3.23q1.08-15.27,2.17-30.55a5.1,5.1,0,0,1,2.08-1.5,8.83,8.83,0,0,1,4.48-.48,10.59,10.59,0,0,1,4.87,1.45,6.62,6.62,0,0,1,2.54,3.49c.33,1,.7,2.15,1.09,3.44s.79,2.63,1.18,4,.77,2.74,1.14,4.1l1,3.66.29,0q1.49-5,3-9.6c1-3.1,1.89-5.68,2.71-7.76a8.29,8.29,0,0,1,2.28-.61,12.57,12.57,0,0,1,3.09-.05,11.32,11.32,0,0,1,4.69,1.33,3.91,3.91,0,0,1,2.08,2.74c.14.82.29,2.1.44,3.81s.31,3.64.47,5.78.33,4.41.49,6.8.31,4.69.45,6.89.26,4.23.35,6.06.15,3.24.17,4.22a6.59,6.59,0,0,1-2.1.66,10.93,10.93,0,0,1-2.79,0,8.65,8.65,0,0,1-3.75-1.2,3.79,3.79,0,0,1-1.6-3.3c-.16-4.45-.26-8.46-.26-12s0-6.52-.13-8.93l-.3,0q-.62,2.32-1.79,5.8T205.17,316.79Z" transform="translate(-165.66 -131.85)"/><path class="cls-8" d="M226.83,290a5.12,5.12,0,0,1,1.56-3.8,4.85,4.85,0,0,1,4-1.24,5.56,5.56,0,0,1,3.94,2,5.9,5.9,0,0,1,1.44,4.08,5.11,5.11,0,0,1-1.56,3.81,4.78,4.78,0,0,1-4,1.23,5.65,5.65,0,0,1-3.94-2A5.9,5.9,0,0,1,226.83,290Zm9.88,39.25c-.43,0-1.07.08-1.91.13a15.67,15.67,0,0,1-2.56-.06,15.22,15.22,0,0,1-2.32-.44,4.26,4.26,0,0,1-1.72-.93,4.07,4.07,0,0,1-1.07-1.63,7.07,7.07,0,0,1-.34-2.53c.15-10,.22-15,.38-25l1.91-.15a13.7,13.7,0,0,1,2.56,0,13.24,13.24,0,0,1,2.32.41,4.11,4.11,0,0,1,1.72.91,3.83,3.83,0,0,1,1.07,1.61,6.94,6.94,0,0,1,.34,2.54C236.94,314.2,236.87,319.23,236.71,329.28Z" transform="translate(-165.66 -131.85)"/><path class="cls-8" d="M253.23,331.09c-.43,0-1.07.08-1.91.13a13.71,13.71,0,0,1-2.56-.06,13,13,0,0,1-2.32-.44,4.37,4.37,0,0,1-1.73-.93,4.2,4.2,0,0,1-1.06-1.64,7.22,7.22,0,0,1-.34-2.55l.54-35.91,1.92-.17a15.66,15.66,0,0,1,2.56,0,14.49,14.49,0,0,1,2.32.4,4.18,4.18,0,0,1,1.72.91,4,4,0,0,1,1.06,1.62,7.22,7.22,0,0,1,.35,2.56Q253.51,313.06,253.23,331.09Z" transform="translate(-165.66 -131.85)"/><path class="cls-8" d="M287.53,329.36a7.49,7.49,0,0,1-1.69,4.36,4.33,4.33,0,0,1-3.87,1.15,6.36,6.36,0,0,1-3.34-1.34,15.62,15.62,0,0,1-3.12-3.64c-2.28-3.37-3.42-5.05-5.71-8.4-.06,4.56-.1,6.84-.17,11.4l-1.91.14a14.63,14.63,0,0,1-2.56-.07,13,13,0,0,1-2.32-.44,4.26,4.26,0,0,1-1.73-.94,4.13,4.13,0,0,1-1.06-1.64,7.11,7.11,0,0,1-.34-2.57l.54-36.11a18.26,18.26,0,0,1,1.92-.22,14.6,14.6,0,0,1,2.56,0,14.29,14.29,0,0,1,2.32.4,4.3,4.3,0,0,1,1.72.91,4,4,0,0,1,1.07,1.64,7.3,7.3,0,0,1,.34,2.57l-.25,16.53c4.11-4,6.17-6,10.28-10A8.27,8.27,0,0,1,285.1,305a4.86,4.86,0,0,1,1.79,3.84,4.56,4.56,0,0,1-.32,1.7,5.51,5.51,0,0,1-.93,1.52,12.1,12.1,0,0,1-1.61,1.57c-.66.55-1.43,1.18-2.3,1.88l-3.46,2.8C282,322.7,283.82,324.91,287.53,329.36Z" transform="translate(-165.66 -131.85)"/></g><g id="Layer_6" data-name="Layer 6"><polygon class="cls-10" points="132.2 86.02 132.1 247.11 134.94 247.35 134.94 86.17 132.2 86.02"/><polygon class="cls-11" points="153.85 35.31 157.31 35.51 134.94 86.17 132.2 86.02 153.85 35.31"/><polygon class="cls-12" points="174.72 57.06 136.33 83.03 134.94 86.17 176.34 57.59 174.72 57.06"/><polygon class="cls-13" points="132.16 146.15 134.94 145.81 134.94 86.17 132.2 86.02 132.16 146.15"/><polygon class="cls-13" points="132.1 229.17 134.94 228.58 134.94 247.35 132.1 247.11 132.1 229.17"/><polygon class="cls-13" points="132.89 86.02 2.19 78.61 2.19 78.61 132.79 88.51 132.89 86.02"/><polygon class="cls-3" points="138.2 14.36 138.2 28.07 149.4 21.21 138.2 14.36"/></g><g id="Layer_2" data-name="Layer 2"><polygon class="cls-14" points="134.94 247.35 176.34 209.53 176.34 57.59 158.12 35.55 158.12 9.15 24.68 1.59 24.68 27.99 1.5 78.61 1.5 236.01 134.94 247.35"/></g></svg>