<svg xmlns="http://www.w3.org/2000/svg" viewBox="0 0 225.64 190.77"><defs><style>.cls-1{fill:#ce6b19;}.cls-1,.cls-7{stroke:#492300;stroke-miterlimit:10;stroke-width:3px;}.cls-2{fill:#ea781b;}.cls-3{fill:#ad5310;}.cls-4{fill:#ffdaa9;}.cls-5{fill:#ef840f;}.cls-6{fill:#eda411;}.cls-7{fill:none;}</style></defs><g id="Layer_2" data-name="Layer 2"><path class="cls-1" d="M333.67,189.54c-22.65-21.48-62.88-23-111.7-9.37s-73.72,45.68-79.67,55.45-15.23,28.12-6.64,52.34,41.4,73.42,107,71.08c40.62,0,91.39-30.47,104.67-75.38S356.32,211,333.67,189.54Z" transform="translate(-130.68 -169.85)"/></g><g id="Layer_7" data-name="Layer 7"><path class="cls-2" d="M308.53,335.88c19.87-24.09,31.29-78.52,29-88.66s6.34-45.87,6.34-45.87,14.76,23.87,11,47.65-3.55,19.62-11.43,45.3c-11.22,24.41-34.86,41.58-34.86,41.58" transform="translate(-130.68 -169.85)"/><path class="cls-3" d="M235.82,359.09c-38.84-15.48-64-34.48-68.52-53.56s-32.8-21.17-32.8-21.17,13.17,32.89,25.38,41.6c7.42,6,26.49,22.16,38.68,26s37.26,7.12,37.26,7.12" transform="translate(-130.68 -169.85)"/></g><g id="Layer_3" data-name="Layer 3"><path class="cls-2" d="M213.33,183.11c-46.11,14.84-81.15,55.83-80.79,82.45.35,25.52,7.49,39.19,55.57,45.44s119.41-25.78,139.51-47.65c14.19-13.67,28-49.6,10.64-69.12C317.77,168.45,270.87,162.8,213.33,183.11Z" transform="translate(-130.68 -169.85)"/><path class="cls-4" d="M214.72,186c-44,14.12-77.44,53.11-77.09,78.43.33,24.27,7.14,37.28,53,43.22s114-24.52,133.13-45.32c13.54-13,26.71-47.18,10.16-65.76C314.39,172.05,269.63,166.68,214.72,186Z" transform="translate(-130.68 -169.85)"/></g><g id="Layer_5" data-name="Layer 5"><path class="cls-5" d="M235.25,249c-2.05,0-43.64,52.43-42.47,53.9s14.54,1.24,19,.58,16-2.05,18.75-4.39S237.3,249,235.25,249Z" transform="translate(-130.68 -169.85)"/><path class="cls-5" d="M240.82,247.24c-2.64,1-4.12,48.92-2.64,50.68s15.82-2.49,20.95-4.4,17.42-8.2,17.42-10S243.45,246.22,240.82,247.24Z" transform="translate(-130.68 -169.85)"/><path class="cls-5" d="M245.8,244.9c1.32-1.76,64.59,9.56,66.78,11.42s-6.3,10.55-10,13.77-16.11,9.67-20.21,9.67S244.48,246.66,245.8,244.9Z" transform="translate(-130.68 -169.85)"/><path class="cls-5" d="M248.43,240.46c.59-1.54,79.12-17.43,81.43-15.23s-1.29,12-3.51,15.52-6.74,11.28-9.08,12S247.85,242,248.43,240.46Z" transform="translate(-130.68 -169.85)"/><path class="cls-5" d="M249.61,237c0-1.45,72.49-39.4,75.27-38.37s5.72,6.44,6.45,9.81,1.46,10.55,0,11.86S249.61,238.44,249.61,237Z" transform="translate(-130.68 -169.85)"/><path class="cls-5" d="M245.8,235.53c-1.47-2.05,46.79-51.31,48.88-52.31s11.9.31,15.27,1.78,10.25,6,9.37,8.64S247.26,237.57,245.8,235.53Z" transform="translate(-130.68 -169.85)"/><path class="cls-5" d="M242,233.48c-2.54-.59,4.69-49.95,6.44-51.56s10.11-3.37,17.58-3.37,18.75,1,19.62,3.37S244.53,234.06,242,233.48Z" transform="translate(-130.68 -169.85)"/><path class="cls-5" d="M238.18,184.27c-2.93-1.05-15.08,2.49-20.21,4.39s-16.11,7.32-16.11,10,32.39,37.64,34.86,36.91S241.11,185.32,238.18,184.27Z" transform="translate(-130.68 -169.85)"/><path class="cls-5" d="M232,238.75c1.76-1.76-36.61-35.44-39.25-36s-10,3.51-15.82,8.93-13.32,11-11.71,13.33S230.27,240.51,232,238.75Z" transform="translate(-130.68 -169.85)"/><path class="cls-5" d="M228.22,241.68c0-1.91-67.95-11.14-70.88-9.67s-8.4,9.12-9.67,11.42-4.34,13.39-2.31,14.75S228.21,243.58,228.22,241.68Z" transform="translate(-130.68 -169.85)"/><path class="cls-5" d="M228.22,245.78c-1.31-1.07-83.33,18.63-84.94,19.78s-.88,7.75,0,10.68,7.39,10.21,9.85,10.21S229.54,246.84,228.22,245.78Z" transform="translate(-130.68 -169.85)"/><path class="cls-5" d="M230.27,249c-1.46-1-72.64,41.3-72.64,43.06s9.75,6.74,12.45,7.32,12.89,2.93,15.67,2.05S231.74,250,230.27,249Z" transform="translate(-130.68 -169.85)"/></g><g id="Layer_6" data-name="Layer 6"><polygon class="cls-6" points="111.6 124.45 110.58 95.36 112.72 109.91 115.07 106.1 111.6 124.45"/><polygon class="cls-6" points="167.84 88.42 120.58 77.37 130.54 85.11 128.33 80.81 167.84 88.42"/><polygon class="cls-6" points="151.9 105.45 132.87 88.42 150.27 99.98 148.67 95.36 154.97 104.63 151.9 105.45"/><polygon class="cls-6" points="192.06 58.74 129.76 69.88 146.95 73.58 137.77 70.07 192.06 58.74"/><polygon class="cls-6" points="184.25 79.13 148.67 70.66 178.97 75.89 175.65 71.51 184.25 79.13"/><polygon class="cls-6" points="136.01 60.11 174.87 41.17 167.84 49.76 167.84 46.83 136.01 60.11"/><path class="cls-6" d="M327,217.84c-.58.4-25,6.07-25,6.07l20.7-7.42-6.64-2.35L327,215.51Z" transform="translate(-130.68 -169.85)"/><polygon class="cls-6" points="163.35 16.37 128.33 55.17 140.5 47.99 137.38 47.99 163.35 16.37"/><polygon class="cls-6" points="173.11 18.71 147.14 44.29 169.99 25.55 169.4 28.75 176.24 18.71 173.11 18.71"/><polygon class="cls-6" points="99.63 88.42 77.82 130.41 77.82 115.96 79.38 120.84 99.63 88.42"/><polygon class="cls-6" points="85.24 128.48 94.81 106.65 88.72 124.45 93.44 122.4 85.24 128.48"/><polygon class="cls-6" points="149.68 13.02 115.07 56.99 142.46 15.2 134.84 18.71 148.67 11.29 149.68 13.02"/><polygon class="cls-6" points="115.07 46.44 120.58 18.71 118.93 36.17 122.88 34.14 115.07 46.44"/><polygon class="cls-6" points="74.5 28.75 92.47 49.17 82.9 34.14 88.72 35.77 74.5 28.75"/><polygon class="cls-6" points="88.72 22.81 96.18 28.75 103.99 60.89 98.52 25.16 88.72 22.81"/><polygon class="cls-6" points="94.03 65.69 61.03 35.77 65.91 46.44 66.89 44.29 94.03 65.69"/><polygon class="cls-6" points="75.67 58.74 41.89 52.49 54.6 49.17 52.63 50.94 75.67 58.74"/><polygon class="cls-6" points="19.43 82.95 73.33 73.58 28.61 78.27 35.25 73.58 19.43 82.95"/><polygon class="cls-6" points="29.2 67.23 46.38 70.66 42.87 67.23 57.12 68.94 32.91 63.63 29.2 67.23"/><polygon class="cls-6" points="22.36 112.83 74.5 86.86 26.95 107.76 30.17 102.93 22.36 111.08 22.36 112.83"/><polygon class="cls-6" points="36.62 98.19 59.66 88.42 39.74 92.39 44.43 93.3 36.62 98.19"/><polygon class="cls-6" points="90.08 88.42 53.02 129.43 57.12 114.01 57.12 119.67 90.08 88.42"/><polygon class="cls-6" points="66.3 102.93 32.13 121.62 45.01 120.06 43.16 117.56 66.3 102.93"/><path class="cls-6" d="M268.06,282.69c-.78-.2-24.56-29.95-24.56-29.95l14.41,23.76-9.48-7.68,12,13.3Z" transform="translate(-130.68 -169.85)"/></g><g id="Layer_4" data-name="Layer 4"><path class="cls-7" d="M333.67,189.54c-22.65-21.48-62.88-23-111.7-9.37s-73.72,45.68-79.67,55.45-15.23,28.12-6.64,52.34,41.4,73.42,107,71.08c40.62,0,91.39-30.47,104.67-75.38S356.32,211,333.67,189.54Z" transform="translate(-130.68 -169.85)"/></g></svg>