<svg xmlns="http://www.w3.org/2000/svg" viewBox="0 0 262.73 190.64"><defs><style>.cls-1{fill:#ffe817;stroke:#3e5e00;}.cls-1,.cls-8{stroke-miterlimit:10;stroke-width:3px;}.cls-2{fill:#ceb20d;}.cls-3{fill:#99990a;}.cls-4{fill:#6b7c08;}.cls-5{fill:#ffffca;}.cls-6{fill:#b79a0d;}.cls-7{fill:#563e28;}.cls-8{fill:none;stroke:#394700;}</style></defs><g id="Layer_2" data-name="Layer 2"><path class="cls-1" d="M250,156.3l22.53,7.18,116.94,132c-81.33,81.9-192.86,39.79-233.89,15.59l-24.5-14.94Z" transform="translate(-128.83 -154.56)"/></g><g id="Layer_3" data-name="Layer 3"><polygon class="cls-2" points="121.2 1.73 2.28 141.61 26.78 156.56 143.72 8.92 121.2 1.73"/></g><g id="Layer_5" data-name="Layer 5"><path class="cls-3" d="M136,289.53a13.45,13.45,0,0,0,4,2.26,11.06,11.06,0,0,0,4.39,0,11.81,11.81,0,0,0,1.38,4.48c1.13,1.75,1.89,1.22,4.24,3.07s3.53,2.72,5.66,3.19a14,14,0,0,1,4.4,2.17s11.24,9.36,14,9.62,5.16-3.16,5.16-3.16,2,4.05,4,4.78,20.8,10.27,24.93,9.77,9-4.63,9-4.63-1,3.38.26,3.51,7.39-3.26,7.39-3.26-2.26,5.51-1,8.64c5.89,2.64,21.3,4.52,23.68,4.52s4.89-3.64,4.89-3.64a16.67,16.67,0,0,0,3.88,4c2,1.25,22.2,2.87,27.44,2s20.3-3.89,23.06-3.39,1.13-5.76,1.13-5.76,3,1.46,4.35,1.46,1-5.85,1-5.85,5.39,5.64,6.64,6,1.5.25,4.76-.63,5.64-5.76,5.64-5.76,12.53.49,15.54-1.64,8.62-3.53,12.78-6.26,12.45-8.4,16-10.53l11.16-6.6c-110.9,99.33-253.63-4-253.63-4l3.73-4.38" transform="translate(-128.83 -154.56)"/><path class="cls-4" d="M134.83,291.79s1.79,3.93,3.67,4.44,4.76-2.22,4.76-2.22-2.13,3.47-1,5.22,5.42,1.15,7.77,3,2.64,3.29,4.76,3.76l4.15.92s13.14,10.09,15.9,10.36,5-3,5-3-.29,4.28,1.76,5,23.93,10.53,28.07,10,5-5.27,5-5.27,0,5.14,1.25,5.27,6.27-5.52,6.27-5.52-3.51,6.65-2.26,9.78c5.89,2.63,24.94,4.51,27.32,4.51s4-5,4-5-.25,3.76,1.75,5,26.09,2.87,31.33,2,20.05-4.26,22.81-3.76,4.26-5.76,4.26-5.76,1.38,2.51,2.75,2.51,0-7.27,0-7.27,2.51,7.14,3.76,7.52,7.52-1.88,10.78-2.76,2.51-5,2.51-5,10.52.12,13.53-2,8.62-3.53,12.78-6.26,12.45-8.4,16-10.53l11.16-6.6c-110.91,99.33-253.63-4-253.63-4l3.72-4.39" transform="translate(-128.83 -154.56)"/></g><g id="Layer_6" data-name="Layer 6"><path class="cls-5" d="M360.84,263.17s-78.49-87.82-89.51-89.5-28.2,31.2-58.44,65.13C221.2,225.3,244,183,236.74,183.2s-17.27,9-16.48,8.11l29.77-35,22.53,7.18,88.28,99.69" transform="translate(-128.83 -154.56)"/><polygon class="cls-5" points="57.54 143.16 108.16 69.23 78.34 122.36 102.9 98.05 71.07 133.89 57.54 143.16"/><path class="cls-5" d="M210.43,308l24.81-39.59s-7.27,13.53-5.51,13.28,34.58-60.4,34.58-60.4l-38.09,80,.5-15Z" transform="translate(-128.83 -154.56)"/><polygon class="cls-5" points="135.48 170.48 143.72 46.93 140.49 134.97 145.51 104.32 142 149.43 135.48 170.48"/><polygon class="cls-5" points="118.19 56.45 137.74 30.89 124.7 50.69 118.19 56.45"/><path class="cls-5" d="M370.32,294c-1.75-3-49.87-62.65-49.87-62.65l19.05,28.06L305.91,223.8l43.36,53.88Z" transform="translate(-128.83 -154.56)"/><path class="cls-5" d="M303.16,322.54c-.25-.75-5.52-47.12-5.52-47.12l5.52,14.11-5.52-37.66,11.78,52.38-5.89-4.52Z" transform="translate(-128.83 -154.56)"/><polygon class="cls-5" points="149.52 36.9 158.04 71.74 154.78 46.93 149.52 36.9"/><path class="cls-5" d="M231.23,320,247,278.68s-4,15.79-3.26,15.29,9.52-26.32,9.52-26.32l-10,38.6Z" transform="translate(-128.83 -154.56)"/><path class="cls-5" d="M327.58,312.72c0-1.51-9.52-41.86-9.52-41.86l9.52,27.32,3.76-6.39Z" transform="translate(-128.83 -154.56)"/><polygon class="cls-6" points="30.6 143.16 60.3 105.38 35.48 133.39 36.82 124.27 30.6 143.16"/><polygon class="cls-6" points="81.6 59.52 43.94 106.2 73 83.77 61.42 88.66 81.6 59.52"/><path class="cls-7" d="M282.36,326c1.54-.24,9.65-1.61,11.73-.66s4.7,3.64,3.36,5.12-12.08,2.84-14.52,1.8-5.23-3.94-4.45-5.07S280.82,326.27,282.36,326Z" transform="translate(-128.83 -154.56)"/><path class="cls-7" d="M148.57,289.53c0-2.33,3.68-2.26,6.21,0s3.1,7.22,0,7.22S148.57,291.86,148.57,289.53Z" transform="translate(-128.83 -154.56)"/><path class="cls-7" d="M234.66,325.05c2.33-.93,5.37,0,7.6,0s4.75,1.41,3.83,3.81-6,2-8.72,1S232.34,326,234.66,325.05Z" transform="translate(-128.83 -154.56)"/></g><g id="Layer_4" data-name="Layer 4"><path class="cls-8" d="M250,156.3l22.53,7.18,116.94,132c-81.33,81.9-192.86,39.79-233.89,15.59l-24.5-14.94Z" transform="translate(-128.83 -154.56)"/></g></svg>