<svg xmlns="http://www.w3.org/2000/svg" viewBox="0 0 300.57 172.88"><defs><style>.cls-1{fill:#3ea02a;}.cls-1,.cls-3{stroke:#093300;}.cls-1,.cls-3,.cls-5,.cls-8{stroke-miterlimit:10;stroke-width:3px;}.cls-2{fill:#3d6d31;}.cls-3,.cls-8{fill:none;}.cls-4{fill:#8c102e;}.cls-5{fill:#ef304c;stroke:#a51c37;}.cls-6{fill:#ff5582;}.cls-7{fill:#a51c37;}.cls-8{stroke:#680012;}</style></defs><g id="Layer_16" data-name="Layer 16"><path class="cls-1" d="M334.7,195.36c-9.4.6-5.1-22.44-5.1-22.44s4.39,3.43,15.77,19.77c-4.32-5.52,17.25-12.77,17.25-12.77s2,14.24-2,23.91c10.48,2,31.18,18.7,31.18,18.7s-20.8,10.35-24.07,20.39c8.6,5.55,14.73,16.34,14.73,16.34s-13.66,1.19-18-1.56S344.11,194.75,334.7,195.36Z" transform="translate(-94 -170.22)"/><path class="cls-2" d="M391.81,222.53s-19.44-4.07-25.85.24,2.84,18.49,5.29,14.47,20.56-14.71,20.56-14.71" transform="translate(-94 -170.22)"/><path class="cls-2" d="M362.62,179.92s-9.14,9.16-9.7,17.7c.56,4.13,1.78,12.22,6.62,6.45s3.08-24.15,3.08-24.15" transform="translate(-94 -170.22)"/><path class="cls-2" d="M381.36,258.76s-11-10.71-9.52-7.38-2.69,8.14-.55,8.14,10.07-.76,10.07-.76" transform="translate(-94 -170.22)"/><path class="cls-3" d="M334.7,195.36c-9.4.6-5.1-22.44-5.1-22.44s4.39,3.43,15.77,19.77c-4.32-5.52,17.25-12.77,17.25-12.77s2,14.24-2,23.91c10.48,2,31.18,18.7,31.18,18.7s-20.8,10.35-24.07,20.39c8.6,5.55,14.73,16.34,14.73,16.34s-13.66,1.19-18-1.56S344.11,194.75,334.7,195.36Z" transform="translate(-94 -170.22)"/><path class="cls-4" d="M370.63,240.05c3.92-13.51-6.86-24.66-6.86-24.66s-1.27-18-13.72-21.25a20.73,20.73,0,0,0-19.43-13c-2.84-4.27-11.76-5-20.37-1.29-12.37,0-27.22,7.14-34.54,18.12-10.13,4.21-19.78,11.2-21.45,21.82-8.21,4.33-13.76,15.49-14.42,26.2-2.22,2.72-4.16,11.16-1.09,16.23,0,5.3,6.09,14.22,15,16.14,3.37,5.31,12,10.86,25.07,9.17,8.19,5.5,31.34,8.92,43.63,4,9.17,2,25.56,0,32.73-8.45,4.89-1.38,11.4-5.47,12.91-13.67C373.59,265.84,376.11,250.19,370.63,240.05Z" transform="translate(-94 -170.22)"/><path class="cls-5" d="M354.64,283.13c-7.41,1.28-19.48,3.21-19.48-2.82s32.4-15.91,32.4-10.85S362,281.85,354.64,283.13Z" transform="translate(-94 -170.22)"/><path class="cls-5" d="M368.11,269.46c-7.3,5.06-30.69,4.34-34.3-10.37s30.4-21.34,35.57-19S375.42,264.4,368.11,269.46Z" transform="translate(-94 -170.22)"/><path class="cls-5" d="M311,180.42c-5.54,3.77-9.58,6.66-4.82,9.8s32.13-2.79,25.19-8.51S316.53,176.66,311,180.42Z" transform="translate(-94 -170.22)"/><path class="cls-5" d="M330.3,181.71c-8.88,1.9-15.46,15.74-9.59,18.87s30.07-.48,29-5.88S339.17,179.81,330.3,181.71Z" transform="translate(-94 -170.22)"/><path class="cls-5" d="M349.49,194.14c-6.6,0-26.61,3.71-24.44,16.73s33.09,9.52,36.92,4.52S356.08,194.14,349.49,194.14Z" transform="translate(-94 -170.22)"/><path class="cls-5" d="M362,215.39c9.91,4.16,10.16,23,6.85,24.66s-28.18,8.67-33-3.38S352,211.23,362,215.39Z" transform="translate(-94 -170.22)"/><ellipse class="cls-6" cx="360.21" cy="251.19" rx="9.02" ry="4.77" transform="translate(-133.05 -101.9) rotate(-10.28)"/><ellipse class="cls-6" cx="356.12" cy="223.4" rx="7.51" ry="5.39" transform="translate(-150.47 -27.41) rotate(-21.05)"/><ellipse class="cls-6" cx="351.36" cy="276.27" rx="4.65" ry="2.05" transform="translate(-162.49 -47.27) rotate(-18.12)"/><path class="cls-7" d="M371,229.11c-1,2-11.29,9.93-33.29,9.76,6.76,9,31.16,2.94,33,1.18S372,227.12,371,229.11Z" transform="translate(-94 -170.22)"/><path class="cls-7" d="M362.25,207.92s-16.24,8.77-33.44,8.14c4.17,2.61,9.14,3.34,14.73,3.2,10.84-6.65,18.62-3.16,19-3.87.6-1.16-.27-7.47-.27-7.47" transform="translate(-94 -170.22)"/><ellipse class="cls-6" cx="345.89" cy="202.66" rx="8.97" ry="4.42" transform="translate(-124.62 -105.24) rotate(-10.28)"/><ellipse class="cls-6" cx="332.66" cy="188.01" rx="5.67" ry="3.63" transform="translate(-141.47 -21.12) rotate(-23.63)"/><ellipse class="cls-6" cx="317.14" cy="182.56" rx="5.72" ry="2.42" transform="translate(-140.59 -27.8) rotate(-23.63)"/><path class="cls-7" d="M373.3,254.7s-10.57,12.37-37.2,9.37c8.32,11,26.82,9.08,32,5.39s5.19-14.76,5.19-14.76" transform="translate(-94 -170.22)"/><path class="cls-7" d="M366.52,273.39C364,276.27,347,282.6,336.1,282.7c3.35,3.15,12.33,1.89,19.1.43s11.32-9.74,11.32-9.74" transform="translate(-94 -170.22)"/><path class="cls-7" d="M344.91,187.21c1,2.92-14.15,13.8-21.34,14.17s4.9.36,4.9.36,12.33-9.1,21.58-7.6c-.55-2.64-5.14-6.93-5.14-6.93" transform="translate(-94 -170.22)"/><path class="cls-7" d="M328.81,180.58s-13.36,10.5-18.37,10.5,7.83.27,11-1.35c1.31-2.52,9.22-8.58,9.22-8.58Z" transform="translate(-94 -170.22)"/><path class="cls-5" d="M310.25,179.86c-8.65.72-24,4.44-34.54,18.12,22.82,3.15,34.54-18.12,34.54-18.12" transform="translate(-94 -170.22)"/><path class="cls-5" d="M316.06,187.93c-7.28-5.21-36.3,7.58-36.3,18.52s28.81,2,35-3.09S323.34,193.13,316.06,187.93Z" transform="translate(-94 -170.22)"/><path class="cls-5" d="M286.69,220.25c-2.17-8.59,26.79-23.49,34.6-20.15s8.37,7.32,5.14,12.34S288.86,228.85,286.69,220.25Z" transform="translate(-94 -170.22)"/><path class="cls-5" d="M355.2,283.13c-2.28,3.87-17.54,11.71-32.73,8.45,4.21-13.73,32.73-8.45,32.73-8.45" transform="translate(-94 -170.22)"/><path class="cls-5" d="M343.84,262.3c3.45,6.62,1.76,12.84-2.79,18.27s-27.32,3.08-29-4.35S340.4,255.68,343.84,262.3Z" transform="translate(-94 -170.22)"/><path class="cls-5" d="M343.1,239.62c4.77,10.77-1.37,20.32-6.92,22.27s-29.15,8.12-32.9-4.4S338.33,228.85,343.1,239.62Z" transform="translate(-94 -170.22)"/><path class="cls-5" d="M328.16,216.47c-10.33-4-32.87,8.58-31,18.89s34,6.77,38.09.55S338.5,220.43,328.16,216.47Z" transform="translate(-94 -170.22)"/><ellipse class="cls-6" cx="315.75" cy="206.15" rx="7.83" ry="3.81" transform="translate(-125.72 -110.56) rotate(-10.28)"/><ellipse class="cls-6" cx="307.43" cy="193.42" rx="8.74" ry="4.12" transform="translate(-131.8 -89.68) rotate(-14.07)"/><ellipse class="cls-6" cx="298.7" cy="185.1" rx="5.91" ry="1.46" transform="translate(-136.75 -68.16) rotate(-18.12)"/><ellipse class="cls-6" cx="323.08" cy="225.52" rx="8.43" ry="5.4" transform="translate(-139.14 -84.91) rotate(-14.07)"/><ellipse class="cls-6" cx="333.54" cy="246.81" rx="7.35" ry="3.53" transform="translate(-164.96 -15.84) rotate(-23.63)"/><ellipse class="cls-6" cx="336.1" cy="268.81" rx="5.63" ry="2.82" transform="translate(-160.93 -52.38) rotate(-18.12)"/><path class="cls-7" d="M344.42,275.24a54.61,54.61,0,0,1-23.13,5.2c3.21,4.85,19,1.69,19,1.69Z" transform="translate(-94 -170.22)"/><path class="cls-7" d="M346.64,283.14s-6.57,4.1-22.72,8.72c15.12,2.06,29-6.05,30.14-7.39S346.64,283.14,346.64,283.14Z" transform="translate(-94 -170.22)"/><path class="cls-7" d="M344.42,246.93c-1.74,5.22-13.15,13.51-34,15.3,1.54,5.68,20.49,3.14,27.25-1S346.16,241.72,344.42,246.93Z" transform="translate(-94 -170.22)"/><path class="cls-7" d="M337,226.76c-.12,4.14-10.29,10.55-31.19,14.51a46.54,46.54,0,0,0,27.76-3.78C337.66,235.29,337.09,222.63,337,226.76Z" transform="translate(-94 -170.22)"/><path class="cls-7" d="M328.14,206.15c-4.22,3.63-12.39,8.47-34.31,16.52,3.22.73,15.46-2.86,15.46-2.86s11.43-4.17,13.79-4.76S330.14,207,328.14,206.15Z" transform="translate(-94 -170.22)"/><path class="cls-7" d="M318.94,191.08c1.08,4.1-26.46,19.77-26.46,19.77l14.95-8.55s6.73-2.68,11.44-3.11C321.42,195.89,317.87,187,318.94,191.08Z" transform="translate(-94 -170.22)"/><path class="cls-5" d="M275.71,198c3.57-.17,5.53-1.55,5.11,4.68s-9,17.24-26.56,17.14C255.47,207,275.71,198,275.71,198" transform="translate(-94 -170.22)"/><path class="cls-5" d="M281.88,207.92c7.35,1.3,9,6.32,6.51,10.41s-22.87,17.3-27.34,12S274.54,206.62,281.88,207.92Z" transform="translate(-94 -170.22)"/><path class="cls-5" d="M292,221.87c6.34,2.43,12.82,8.84,6.52,14.67s-29.35,12.25-32.14,4.85S285.67,219.44,292,221.87Z" transform="translate(-94 -170.22)"/><path class="cls-5" d="M322.47,291.58c1.45-2.47,4.36-7-1.18-11.14s-31.48-3.33-42.45,7.1C289.81,295.62,321,294.05,322.47,291.58Z" transform="translate(-94 -170.22)"/><path class="cls-5" d="M308.48,261.21c7.9,3.9,8.84,7.44,5.3,13.39s-29.76,8.71-33.29,1.67S300.58,257.3,308.48,261.21Z" transform="translate(-94 -170.22)"/><path class="cls-5" d="M301.1,238.51c6.33,3,9.15,5.5,7.38,15.26s-30.89,15.42-37,6.13S294.78,235.49,301.1,238.51Z" transform="translate(-94 -170.22)"/><ellipse class="cls-6" cx="287.55" cy="228.87" rx="7.28" ry="3.82" transform="translate(-161.63 -35.78) rotate(-23.63)"/><ellipse class="cls-6" cx="277.9" cy="214.62" rx="6.79" ry="2.79" transform="translate(-164.08 -2.51) rotate(-30)"/><ellipse class="cls-6" cx="271.46" cy="205.28" rx="8.43" ry="2.2" transform="translate(-158.16 -21.4) rotate(-27.55)"/><ellipse class="cls-6" cx="295.45" cy="246.93" rx="8.63" ry="5.02" transform="translate(-156.14 -66.11) rotate(-18.12)"/><ellipse class="cls-6" cx="305.42" cy="266.6" rx="5.53" ry="2.79" transform="translate(-128.74 -124.19) rotate(-8.16)"/><path class="cls-7" d="M322.47,282.13c-2.52-.68-9.18,7.75-38.85,7.79,7,4.67,35.88,5,38.85,1.66S325,282.82,322.47,282.13Z" transform="translate(-94 -170.22)"/><path class="cls-7" d="M315.15,268.06s-10.44,8.21-31.15,11c2.57,1.53,24.29,1.06,28-2.8A10.51,10.51,0,0,0,315.15,268.06Z" transform="translate(-94 -170.22)"/><path class="cls-7" d="M308.7,245.86c-.37,6.29-11.65,13-28.94,17.66,15.69,3.57,27.28-5.9,28-7.83S309.06,239.57,308.7,245.86Z" transform="translate(-94 -170.22)"/><path class="cls-7" d="M299.11,226.7s-9.87,14.79-21.21,17c1.83,1.57,16.14-3.07,20.63-7.13S299.11,226.7,299.11,226.7Z" transform="translate(-94 -170.22)"/><path class="cls-7" d="M289,212.89c-1.41,3.39-22.63,17.85-18.33,17.16s17.76-11.16,17.76-11.16S290.22,217.31,289,212.89Z" transform="translate(-94 -170.22)"/><path class="cls-5" d="M251.38,266.6c-2.7-5.21-12.63-4.37-12.63-4.37s3.21,14,15,16.14C259,277.39,254.08,271.8,251.38,266.6Z" transform="translate(-94 -170.22)"/><path class="cls-7" d="M251.38,268.81c-4.68,1.47-6.5.72-10.36-.75s4.78,10.23,11.75,8.93S258.54,271,251.38,268.81Z" transform="translate(-94 -170.22)"/><path class="cls-5" d="M278.84,287.54c5.72-4,3.79-7.84,1.65-11.27s-30.94-5.36-26.72,2.1S272.21,288.92,278.84,287.54Z" transform="translate(-94 -170.22)"/><path class="cls-5" d="M239.84,246s2.43-20.13,14.42-26.2c0,0,8.93,1.4,6.7,9.31S239.84,246,239.84,246" transform="translate(-94 -170.22)"/><path class="cls-5" d="M267.57,243c3.43-5.45-.47-9-4.47-11.46s-23.35,10.29-20.93,17.64S264.13,248.47,267.57,243Z" transform="translate(-94 -170.22)"/><path class="cls-5" d="M274.92,259.9c5.21,3.62,8,9,6,14.05S253,277.76,252,270,269.7,256.28,274.92,259.9Z" transform="translate(-94 -170.22)"/><path class="cls-5" d="M269.24,241.88c7.16,1.1,11.55,14.22,6.47,17.93s-27.21,12-30,2.05S262.07,240.79,269.24,241.88Z" transform="translate(-94 -170.22)"/><ellipse class="cls-6" cx="264.59" cy="250.72" rx="9.01" ry="5.23" transform="translate(-172.31 -43.15) rotate(-23.63)"/><ellipse class="cls-6" cx="258.41" cy="238.12" rx="6.88" ry="3.29" transform="translate(-178.44 -9.11) rotate(-30)"/><ellipse class="cls-6" cx="251.38" cy="227.97" rx="7.79" ry="2.35" transform="translate(-179.81 96.07) rotate(-48.69)"/><ellipse class="cls-6" cx="272.54" cy="267.09" rx="5.58" ry="2.46" transform="translate(-150.76 -95.95) rotate(-14.07)"/><path class="cls-7" d="M281.55,279.83s-7.2,4.83-26.12.76c-.55,1.54,14.62,9.29,23.41,7A7.16,7.16,0,0,0,281.55,279.83Z" transform="translate(-94 -170.22)"/><path class="cls-7" d="M280.88,268.81s-8.34,7.46-27.53,3.71c0,4.47,23.56,4.73,26.41,2.72S280.88,268.81,280.88,268.81Z" transform="translate(-94 -170.22)"/><path class="cls-7" d="M277.51,251.38c-2.59,3.73-12,11.88-27.79,14.57,9.38,3.47,26.39-5.82,27.09-7.29A10.81,10.81,0,0,0,277.51,251.38Z" transform="translate(-94 -170.22)"/><path class="cls-8" d="M370.63,240.05c3.92-13.51-6.86-24.66-6.86-24.66s-1.27-18-13.72-21.25a20.73,20.73,0,0,0-19.43-13c-2.84-4.27-11.76-5-20.37-1.29-12.37,0-27.22,7.14-34.54,18.12-10.13,4.21-19.78,11.2-21.45,21.82-8.21,4.33-13.76,15.49-14.42,26.2-2.22,2.72-4.16,11.16-1.09,16.23,0,5.3,6.09,14.22,15,16.14,3.37,5.31,12,10.86,25.07,9.17,8.19,5.5,31.34,8.92,43.63,4,9.17,2,25.56,0,32.73-8.45,4.89-1.38,11.4-5.47,12.91-13.67C373.59,265.84,376.11,250.19,370.63,240.05Z" transform="translate(-94 -170.22)"/></g><g id="Layer_14" data-name="Layer 14"><path class="cls-1" d="M175.75,205.25c13,.84,7.06-31,7.06-31S176.74,179,161,201.57c6-7.64-23.86-17.66-23.86-17.66s-2.75,19.69,2.75,33.07c-14.49,2.79-43.13,25.86-43.13,25.86s28.77,14.33,33.29,28.21c-11.89,7.68-20.37,22.6-20.37,22.6s18.9,1.65,24.89-2.15S162.74,204.42,175.75,205.25Z" transform="translate(-94 -170.22)"/><path class="cls-2" d="M96.76,242.84s26.88-5.62,35.76.33-3.93,25.58-7.31,20-28.45-20.34-28.45-20.34" transform="translate(-94 -170.22)"/><path class="cls-2" d="M137.14,183.91s12.64,12.67,13.41,24.48c-.77,5.7-2.46,16.9-9.15,8.92s-4.26-33.4-4.26-33.4" transform="translate(-94 -170.22)"/><path class="cls-2" d="M111.21,293s15.19-14.81,13.17-10.22,3.73,11.27.77,11.27S111.21,293,111.21,293" transform="translate(-94 -170.22)"/></g><g id="Layer_15" data-name="Layer 15"><path class="cls-3" d="M175.75,205.25c13,.84,7.06-31,7.06-31S176.74,179,161,201.57c6-7.64-23.86-17.66-23.86-17.66s-2.75,19.69,2.75,33.07c-14.49,2.79-43.13,25.86-43.13,25.86s28.77,14.33,33.29,28.21c-11.89,7.68-20.37,22.6-20.37,22.6s18.9,1.65,24.89-2.15S162.74,204.42,175.75,205.25Z" transform="translate(-94 -170.22)"/></g><g id="Layer_2" data-name="Layer 2"><path class="cls-4" d="M126.06,267.08c-5.43-18.68,9.48-34.11,9.48-34.11s1.77-24.93,19-29.39c2.79-7.88,12.13-17.88,26.87-18,3.93-5.9,16.27-6.91,28.19-1.78,17.1,0,37.64,9.88,47.77,25.07,14,5.82,27.35,15.49,29.67,30.18,11.36,6,19,21.43,19.94,36.24,3.07,3.77,5.76,15.44,1.51,22.45,0,7.33-8.43,19.67-20.77,22.33-4.66,7.34-16.67,15-34.68,12.68-11.34,7.61-43.35,12.34-60.36,5.59-12.67,2.75-35.35,0-45.26-11.69-6.77-1.9-15.77-7.57-17.87-18.91C122,302.76,118.48,281.1,126.06,267.08Z" transform="translate(-94 -170.22)"/></g><g id="Layer_3" data-name="Layer 3"><path class="cls-5" d="M148.18,326.67c10.25,1.76,26.94,4.43,26.94-3.9s-44.81-22-44.81-15S137.94,324.9,148.18,326.67Z" transform="translate(-94 -170.22)"/><path class="cls-5" d="M129.54,307.76c10.1,7,42.45,6,47.45-14.34s-42.05-29.53-49.21-26.34S119.43,300.75,129.54,307.76Z" transform="translate(-94 -170.22)"/><path class="cls-5" d="M208.56,184.6c7.66,5.21,13.24,9.21,6.66,13.54s-44.44-3.85-34.84-11.76S200.89,179.39,208.56,184.6Z" transform="translate(-94 -170.22)"/><path class="cls-5" d="M181.85,186.38c12.27,2.63,21.37,21.77,13.26,26.1s-41.59-.66-40.14-8.13S169.58,183.74,181.85,186.38Z" transform="translate(-94 -170.22)"/><path class="cls-5" d="M155.3,203.58c9.13,0,36.81,5.13,33.81,23.14S143.34,239.89,138,233,146.18,203.58,155.3,203.58Z" transform="translate(-94 -170.22)"/><path class="cls-5" d="M138.07,233c-13.72,5.75-14.06,31.75-9.48,34.11s39,12,45.59-4.68S151.79,227.21,138.07,233Z" transform="translate(-94 -170.22)"/></g><g id="Layer_4" data-name="Layer 4"><ellipse class="cls-6" cx="140.47" cy="282.48" rx="6.59" ry="12.47" transform="translate(-256.55 200.06) rotate(-79.72)"/><ellipse class="cls-6" cx="146.13" cy="244.05" rx="7.46" ry="10.38" transform="translate(-228.12 122.56) rotate(-68.95)"/><ellipse class="cls-6" cx="152.72" cy="317.17" rx="2.83" ry="6.43" transform="translate(-290.22 193.47) rotate(-71.88)"/><path class="cls-7" d="M125.61,252c1.38,2.75,15.62,13.73,46.06,13.49-9.35,12.42-43.11,4.07-45.61,1.64S124.24,249.19,125.61,252Z" transform="translate(-94 -170.22)"/><path class="cls-7" d="M137.65,222.63s22.47,12.14,46.25,11.26c-5.77,3.61-12.64,4.62-20.38,4.43-15-9.2-25.75-4.37-26.25-5.35-.82-1.61.38-10.34.38-10.34" transform="translate(-94 -170.22)"/><ellipse class="cls-6" cx="160.28" cy="215.36" rx="6.11" ry="12.41" transform="translate(-174.23 164.42) rotate(-79.72)"/><ellipse class="cls-6" cx="178.58" cy="195.1" rx="5.02" ry="7.85" transform="translate(-165.74 110.29) rotate(-66.37)"/><ellipse class="cls-6" cx="200.05" cy="187.56" rx="3.34" ry="7.91" transform="translate(-145.97 125.44) rotate(-66.37)"/><path class="cls-7" d="M122.36,287.34s14.62,17.11,51.47,13c-11.51,15.2-37.11,12.56-44.29,7.45s-7.18-20.42-7.18-20.42" transform="translate(-94 -170.22)"/><path class="cls-7" d="M131.75,313.2c3.49,4,27,12.73,42.08,12.88-4.65,4.35-17.07,2.61-26.42.59s-15.66-13.47-15.66-13.47" transform="translate(-94 -170.22)"/><path class="cls-7" d="M161.64,194c-1.36,4.05,19.57,19.1,29.51,19.61s-6.77.5-6.77.5-17.06-12.59-29.85-10.51c.76-3.65,7.11-9.6,7.11-9.6" transform="translate(-94 -170.22)"/><path class="cls-7" d="M183.9,184.81s18.49,14.54,25.42,14.54-10.84.36-15.17-1.88C192.34,194,181.4,185.6,181.4,185.6Z" transform="translate(-94 -170.22)"/></g><g id="Layer_6" data-name="Layer 6"><path class="cls-5" d="M209.59,183.82c11.95,1,33.18,6.13,47.77,25.07-31.57,4.35-47.77-25.07-47.77-25.07" transform="translate(-94 -170.22)"/><path class="cls-5" d="M201.54,195c10.07-7.21,50.22,10.49,50.22,25.63s-39.85,2.8-48.45-4.28S191.47,202.18,201.54,195Z" transform="translate(-94 -170.22)"/><path class="cls-5" d="M242.17,239.7c3-11.89-37.07-32.51-47.86-27.88s-11.57,10.12-7.11,17.07S239.17,251.58,242.17,239.7Z" transform="translate(-94 -170.22)"/><path class="cls-5" d="M147.41,326.67c3.14,5.36,24.26,16.2,45.26,11.69-5.82-19-45.26-11.69-45.26-11.69" transform="translate(-94 -170.22)"/><path class="cls-5" d="M163.11,297.86c-4.76,9.15-2.44,17.76,3.87,25.27s37.79,4.25,40.15-6S167.87,288.7,163.11,297.86Z" transform="translate(-94 -170.22)"/><path class="cls-5" d="M164.14,266.49c-6.6,14.89,1.9,28.09,9.58,30.8s40.32,11.23,45.51-6.09S170.74,251.59,164.14,266.49Z" transform="translate(-94 -170.22)"/><path class="cls-5" d="M184.8,234.46c14.3-5.48,45.47,11.87,42.89,26.13s-47.05,9.37-52.69.76S170.5,239.94,184.8,234.46Z" transform="translate(-94 -170.22)"/></g><g id="Layer_10" data-name="Layer 10"><ellipse class="cls-6" cx="201.97" cy="220.18" rx="5.27" ry="10.83" transform="translate(-144.72 209.4) rotate(-79.72)"/><ellipse class="cls-6" cx="213.48" cy="202.57" rx="5.7" ry="12.09" transform="translate(-128.91 190.18) rotate(-75.93)"/><ellipse class="cls-6" cx="225.55" cy="191.07" rx="2.01" ry="8.17" transform="translate(-120.19 175.81) rotate(-71.88)"/><ellipse class="cls-6" cx="191.83" cy="246.99" rx="7.47" ry="11.66" transform="translate(-188.39 202.79) rotate(-75.93)"/><ellipse class="cls-6" cx="177.37" cy="276.43" rx="4.89" ry="10.16" transform="translate(-240.98 157.91) rotate(-66.37)"/><ellipse class="cls-6" cx="173.83" cy="306.86" rx="3.91" ry="7.78" transform="translate(-265.87 206.43) rotate(-71.88)"/><path class="cls-7" d="M162.32,315.76a75.51,75.51,0,0,0,32,7.19c-4.44,6.7-26.33,2.34-26.33,2.34Z" transform="translate(-94 -170.22)"/><path class="cls-7" d="M159.24,326.69s9.09,5.67,31.44,12.05c-20.92,2.86-40.13-8.37-41.7-10.22S159.24,326.69,159.24,326.69Z" transform="translate(-94 -170.22)"/><path class="cls-7" d="M162.32,276.6c2.41,7.21,18.19,18.68,47,21.16-2.13,7.85-28.34,4.35-37.69-1.43S159.91,269.38,162.32,276.6Z" transform="translate(-94 -170.22)"/><path class="cls-7" d="M172.62,248.7c.16,5.72,14.23,14.58,43.14,20.07-16.56,3.22-32.7-2.19-38.39-5.23S172.45,243,172.62,248.7Z" transform="translate(-94 -170.22)"/><path class="cls-7" d="M184.83,220.18c5.85,5,17.14,11.72,47.47,22.86-4.46,1-21.39-4-21.39-4s-15.82-5.76-19.08-6.58S182.07,221.38,184.83,220.18Z" transform="translate(-94 -170.22)"/><path class="cls-7" d="M197.56,199.35c-1.49,5.65,36.6,27.34,36.6,27.34l-20.68-11.83s-9.3-3.7-15.83-4.3C194.12,206,199,193.69,197.56,199.35Z" transform="translate(-94 -170.22)"/></g><g id="Layer_7" data-name="Layer 7"><path class="cls-5" d="M257.36,208.89c-4.94-.24-7.66-2.15-7.07,6.47S262.71,239.2,287,239.07c-1.68-17.68-29.67-30.18-29.67-30.18" transform="translate(-94 -170.22)"/><path class="cls-5" d="M248.82,222.63c-10.17,1.8-12.48,8.75-9,14.41s31.65,23.93,37.82,16.59S259,220.83,248.82,222.63Z" transform="translate(-94 -170.22)"/><path class="cls-5" d="M234.81,241.93c-8.78,3.36-17.73,12.23-9,20.29s40.6,16.95,44.46,6.71S243.59,238.56,234.81,241.93Z" transform="translate(-94 -170.22)"/><path class="cls-5" d="M192.67,338.36c-2-3.42-6-9.62,1.64-15.41s43.54-4.61,58.72,9.82C237.85,343.94,194.66,341.78,192.67,338.36Z" transform="translate(-94 -170.22)"/><path class="cls-5" d="M212,296.34c-10.93,5.41-12.22,10.29-7.33,18.53s41.17,12.05,46.06,2.3S223,290.94,212,296.34Z" transform="translate(-94 -170.22)"/><path class="cls-5" d="M222.23,265c-8.75,4.18-12.65,7.6-10.21,21.1s42.74,21.34,51.22,8.49S231,260.77,222.23,265Z" transform="translate(-94 -170.22)"/></g><g id="Layer_11" data-name="Layer 11"><ellipse class="cls-6" cx="240.98" cy="251.62" rx="5.28" ry="10.06" transform="translate(-180.13 201.33) rotate(-66.37)"/><ellipse class="cls-6" cx="254.32" cy="231.9" rx="3.86" ry="9.39" transform="translate(-167.67 165.98) rotate(-60)"/><ellipse class="cls-6" cx="263.24" cy="218.98" rx="3.04" ry="11.66" transform="translate(-146.66 180.88) rotate(-62.45)"/><ellipse class="cls-6" cx="230.05" cy="276.6" rx="6.95" ry="11.94" transform="translate(-198.37 239.02) rotate(-71.88)"/><ellipse class="cls-6" cx="216.25" cy="303.8" rx="3.86" ry="7.65" transform="translate(-209.16 304.54) rotate(-81.84)"/><path class="cls-7" d="M192.67,325.29c3.49-1,12.71,10.72,53.74,10.78-9.64,6.46-49.63,6.86-53.74,2.29S189.18,326.23,192.67,325.29Z" transform="translate(-94 -170.22)"/><path class="cls-7" d="M202.8,305.83s14.45,11.34,43.09,15.16c-3.56,2.11-33.6,1.47-38.76-3.88A14.52,14.52,0,0,1,202.8,305.83Z" transform="translate(-94 -170.22)"/><path class="cls-7" d="M211.73,275.12c.5,8.69,16.11,17.93,40,24.43-21.71,4.93-37.73-8.17-38.74-10.83S211.23,266.42,211.73,275.12Z" transform="translate(-94 -170.22)"/><path class="cls-7" d="M225,248.61s13.65,20.46,29.33,23.47c-2.52,2.18-22.32-4.24-28.53-9.86S225,248.61,225,248.61Z" transform="translate(-94 -170.22)"/><path class="cls-7" d="M239,229.51c1.95,4.69,31.3,24.69,25.36,23.74s-24.58-15.44-24.58-15.44S237.28,235.63,239,229.51Z" transform="translate(-94 -170.22)"/></g><g id="Layer_9" data-name="Layer 9"><path class="cls-5" d="M291,303.8c3.73-7.2,17.47-6,17.47-6s-4.44,19.41-20.77,22.33C280.46,318.73,287.28,311,291,303.8Z" transform="translate(-94 -170.22)"/><path class="cls-5" d="M307,275.31l-10.47,4.44c.14-.29-.34,16.15,12,18,3.89-11.23-1.51-22.45-1.51-22.45" transform="translate(-94 -170.22)"/></g><g id="Layer_13" data-name="Layer 13"><ellipse class="cls-6" cx="211.75" cy="117.69" rx="2.57" ry="5.17"/><path class="cls-7" d="M291,306.86c6.47,2,9,1,14.32-1s-6.6,14.14-16.26,12.34S281.11,309.92,291,306.86Z" transform="translate(-94 -170.22)"/></g><g id="Layer_8" data-name="Layer 8"><path class="cls-5" d="M253,332.77c-7.91-5.54-5.24-10.85-2.28-15.6s42.79-7.4,37,2.92S262.2,334.68,253,332.77Z" transform="translate(-94 -170.22)"/><path class="cls-5" d="M307,275.31s-3.35-27.85-19.94-36.24c0,0-12.36,1.93-9.27,12.88S307,275.31,307,275.31" transform="translate(-94 -170.22)"/><path class="cls-5" d="M268.62,271.2c-4.75-7.53.65-12.46,6.18-15.86s32.29,14.24,28.95,24.41S273.37,278.73,268.62,271.2Z" transform="translate(-94 -170.22)"/><path class="cls-5" d="M258.45,294.54c-7.21,5-11.06,12.4-8.24,19.43s38.62,5.27,39.9-5.41S265.67,289.53,258.45,294.54Z" transform="translate(-94 -170.22)"/><path class="cls-5" d="M266.31,269.62c-9.9,1.51-16,19.66-8.95,24.79s37.64,16.65,41.5,2.83S276.22,268.1,266.31,269.62Z" transform="translate(-94 -170.22)"/></g><g id="Layer_12" data-name="Layer 12"><ellipse class="cls-6" cx="272.73" cy="281.84" rx="7.24" ry="12.46" transform="translate(-188.79 248.52) rotate(-66.37)"/><ellipse class="cls-6" cx="281.29" cy="264.41" rx="4.55" ry="9.52" transform="matrix(0.5, -0.87, 0.87, 0.5, -182.35, 205.59)"/><ellipse class="cls-6" cx="291.02" cy="250.37" rx="3.25" ry="10.78" transform="translate(-186.86 84.21) rotate(-41.31)"/><ellipse class="cls-6" cx="261.75" cy="304.48" rx="3.4" ry="7.72" transform="translate(-191.23 314.13) rotate(-75.93)"/><path class="cls-7" d="M249.28,322.11s10,6.67,36.14,1.05c.75,2.13-20.24,12.85-32.39,9.61A9.89,9.89,0,0,1,249.28,322.11Z" transform="translate(-94 -170.22)"/><path class="cls-7" d="M250.21,306.86s11.54,10.31,38.08,5.14c0,6.17-32.59,6.53-36.53,3.76S250.21,306.86,250.21,306.86Z" transform="translate(-94 -170.22)"/><path class="cls-7" d="M254.87,282.74c3.58,5.17,16.55,16.44,38.44,20.16-13,4.81-36.5-8-37.47-10.08S253.64,286.37,254.87,282.74Z" transform="translate(-94 -170.22)"/></g><g id="Layer_5" data-name="Layer 5"><path class="cls-8" d="M126.06,267.08c-5.43-18.68,9.48-34.11,9.48-34.11s1.77-24.93,19-29.39c2.79-7.88,12.13-17.88,26.87-18,3.93-5.9,16.27-6.91,28.19-1.78,17.1,0,37.64,9.88,47.77,25.07,14,5.82,27.35,15.49,29.67,30.18,11.36,6,19,21.43,19.94,36.24,3.07,3.77,5.76,15.44,1.51,22.45,0,7.33-8.43,19.67-20.77,22.33-4.66,7.34-16.67,15-34.68,12.68-11.34,7.61-43.35,12.34-60.36,5.59-12.67,2.75-35.35,0-45.26-11.69-6.77-1.9-15.77-7.57-17.87-18.91C122,302.76,118.48,281.1,126.06,267.08Z" transform="translate(-94 -170.22)"/></g></svg>