<svg xmlns="http://www.w3.org/2000/svg" viewBox="0 0 224.01 171.78"><defs><style>.cls-1{fill:#009640;}.cls-1,.cls-5{stroke:#541211;}.cls-1,.cls-3,.cls-4,.cls-5,.cls-6{stroke-miterlimit:10;}.cls-1,.cls-3,.cls-5,.cls-6{stroke-width:3px;}.cls-2{fill:#1c693b;}.cls-3{fill:#c52126;stroke:#361f0f;}.cls-4{fill:#911a1d;stroke:#911a1d;}.cls-5,.cls-6{fill:none;}.cls-6{stroke:#eebbba;stroke-linecap:round;}</style></defs><g id="Layer_13" data-name="Layer 13"><path class="cls-1" d="M321,194.26s-19-26-5.13-20.1,14.7,12.26,17.63,13.83,6.63-11,9.44-5.22,1.45,21.2,1.45,21.2,16.91.45,18.77,6.51-5.35,17.58-5.35,17.58-2.32-2.67,4.8,16.83-19.72-11.07-19.72-11.07Z" transform="translate(-141.3 -171.79)"/><path class="cls-2" d="M314.9,205.53S299,185.11,311.67,189s12.92,9.17,15.57,10.26,7.17-9.86,9.36-5.18-.34,17.8-.34,17.8,16-1,17.24,4S347,231.11,347,231.11,345,229,350.19,245s-17.78-7.76-17.78-7.76Z" transform="translate(-141.3 -171.79)"/><path class="cls-3" d="M207.3,297.31c-13.4-24.24,29.62-99.14,73.56-117.29s96.68,80.54,60.22,108.9S220.7,321.54,207.3,297.31Z" transform="translate(-141.3 -171.79)"/><path class="cls-4" d="M344,224.23c-9-22.57,10.1,20.35-6.74,41.66s-100.9,49.3-130.93,29.63c17.92,32.9,127.75,9.79,139.83-13.53S353,246.79,344,224.23Z" transform="translate(-141.3 -171.79)"/><path class="cls-5" d="M207.3,297.3c-13.4-24.23,29.62-99.13,73.56-117.28s96.69,80.54,60.23,108.9S220.7,321.53,207.3,297.3Z" transform="translate(-141.3 -171.79)"/><path class="cls-4" d="M217.8,289.18c1.81,3.59,13.95-2.89,12.3-6.17S216,285.58,217.8,289.18Z" transform="translate(-141.3 -171.79)"/><path class="cls-4" d="M252.22,288.73c1.35,3.79,14.2-1.16,13-4.61S250.87,284.94,252.22,288.73Z" transform="translate(-141.3 -171.79)"/><path class="cls-4" d="M306.59,272.06c1.72,3.64,14-2.56,12.43-5.88S304.87,268.43,306.59,272.06Z" transform="translate(-141.3 -171.79)"/><path class="cls-4" d="M321.28,238.3c2.45,3.19,13.15-5.47,10.91-8.38S318.83,235.11,321.28,238.3Z" transform="translate(-141.3 -171.79)"/><path class="cls-4" d="M267.21,249.41c2.31,3.3,13.37-4.89,11.26-7.89S264.9,246.12,267.21,249.41Z" transform="translate(-141.3 -171.79)"/><path class="cls-4" d="M284.56,203.81c1.35,3.78,14.2-1.16,13-4.62S283.21,200,284.56,203.81Z" transform="translate(-141.3 -171.79)"/><path class="cls-4" d="M260.8,219.38c2.47,3.17,13.11-5.56,10.86-8.46S258.33,216.2,260.8,219.38Z" transform="translate(-141.3 -171.79)"/><path class="cls-4" d="M243.7,244.5c3,2.63,11.78-8,9-10.4S240.66,241.87,243.7,244.5Z" transform="translate(-141.3 -171.79)"/><path class="cls-4" d="M233.5,266.32c2.4,3.22,13.22-5.27,11-8.22S231.09,263.1,233.5,266.32Z" transform="translate(-141.3 -171.79)"/><path class="cls-4" d="M302.8,227.56c1.35,3.78,14.19-1.16,13-4.62S301.45,223.77,302.8,227.56Z" transform="translate(-141.3 -171.79)"/><path class="cls-4" d="M262.19,268.6c1.35,3.79,14.19-1.15,13-4.61S260.84,264.81,262.19,268.6Z" transform="translate(-141.3 -171.79)"/><path class="cls-4" d="M281.39,284.3c1.6,3.68,14.07-2.15,12.61-5.51S279.78,280.61,281.39,284.3Z" transform="translate(-141.3 -171.79)"/><path class="cls-4" d="M293,256.67c2.09,3.44,13.66-4,11.75-7.16S290.94,253.24,293,256.67Z" transform="translate(-141.3 -171.79)"/><path class="cls-4" d="M276.52,226.64c1.35,3.78,14.19-1.16,13-4.62S275.17,222.85,276.52,226.64Z" transform="translate(-141.3 -171.79)"/><path class="cls-4" d="M325.49,259.56c2.88,2.8,12.22-7.3,9.59-9.86S322.61,256.75,325.49,259.56Z" transform="translate(-141.3 -171.79)"/><path class="cls-4" d="M307.14,208.05c1.35,3.79,14.19-1.16,13-4.62S305.79,204.26,307.14,208.05Z" transform="translate(-141.3 -171.79)"/><path class="cls-6" d="M265.51,197.58S280,185,291,185s17.47,4.37,17.47,4.37" transform="translate(-141.3 -171.79)"/></g><g id="Layer_11" data-name="Layer 11"><path class="cls-1" d="M194.44,198.67s23-31.35,6.19-24.25-17.73,14.8-21.27,16.7-8-13.32-11.38-6.3-1.76,25.56-1.76,25.56-20.39.55-22.63,7.87,6.45,21.2,6.45,21.2,2.79-3.22-5.79,20.31S168,246.41,168,246.41Z" transform="translate(-141.3 -171.79)"/><path class="cls-2" d="M201.8,212.27s19.21-24.63,3.9-20-15.59,11.06-18.78,12.38-8.66-11.9-11.3-6.24.41,21.46.41,21.46-19.27-1.19-20.8,4.81,7.84,18.44,7.84,18.44,2.38-2.49-3.84,16.7,21.44-9.36,21.44-9.36Z" transform="translate(-141.3 -171.79)"/><path class="cls-3" d="M331.62,323c16.16-29.23-35.74-119.6-88.75-141.49s-116.64,97.16-72.65,131.38S315.45,352.23,331.62,323Z" transform="translate(-141.3 -171.79)"/><path class="cls-4" d="M166.65,234.83c10.81-27.23-12.18,24.55,8.13,50.26s121.73,59.48,158,35.74c-21.62,39.7-154.12,11.82-168.69-16.31S155.84,262.05,166.65,234.83Z" transform="translate(-141.3 -171.79)"/><path class="cls-5" d="M331.61,323c16.17-29.23-35.73-119.6-88.75-141.49s-116.63,97.16-72.65,131.37S315.45,352.22,331.61,323Z" transform="translate(-141.3 -171.79)"/><path class="cls-4" d="M318.94,313.19c-2.17,4.33-16.82-3.49-14.83-7.45S321.12,308.85,318.94,313.19Z" transform="translate(-141.3 -171.79)"/><path class="cls-4" d="M277.42,312.65c-1.63,4.57-17.12-1.4-15.64-5.57S279.05,308.08,277.42,312.65Z" transform="translate(-141.3 -171.79)"/><path class="cls-4" d="M211.83,292.54c-2.07,4.38-16.9-3.1-15-7.1S213.91,288.15,211.83,292.54Z" transform="translate(-141.3 -171.79)"/><path class="cls-4" d="M194.11,251.81c-3,3.84-15.86-6.6-13.17-10.11S197.06,248,194.11,251.81Z" transform="translate(-141.3 -171.79)"/><path class="cls-4" d="M259.34,265.21c-2.78,4-16.13-5.9-13.59-9.52S262.12,261.24,259.34,265.21Z" transform="translate(-141.3 -171.79)"/><path class="cls-4" d="M238.4,210.19c-1.62,4.57-17.12-1.39-15.63-5.56S240,205.62,238.4,210.19Z" transform="translate(-141.3 -171.79)"/><path class="cls-4" d="M267.07,229c-3,3.82-15.82-6.71-13.1-10.2S270.05,225.15,267.07,229Z" transform="translate(-141.3 -171.79)"/><path class="cls-4" d="M287.7,259.29c-3.67,3.17-14.21-9.66-10.86-12.56S291.37,256.11,287.7,259.29Z" transform="translate(-141.3 -171.79)"/><path class="cls-4" d="M300,285.61c-2.9,3.89-16-6.36-13.31-9.91S302.91,281.72,300,285.61Z" transform="translate(-141.3 -171.79)"/><path class="cls-4" d="M216.4,238.85c-1.62,4.57-17.12-1.4-15.64-5.57S218,234.28,216.4,238.85Z" transform="translate(-141.3 -171.79)"/><path class="cls-4" d="M265.4,288.36c-1.63,4.57-17.13-1.39-15.64-5.56S267,283.79,265.4,288.36Z" transform="translate(-141.3 -171.79)"/><path class="cls-4" d="M242.24,307.3c-1.94,4.44-17-2.59-15.22-6.64S244.18,302.85,242.24,307.3Z" transform="translate(-141.3 -171.79)"/><path class="cls-4" d="M228.18,274c-2.52,4.14-16.47-4.85-14.17-8.64S230.71,269.83,228.18,274Z" transform="translate(-141.3 -171.79)"/><path class="cls-4" d="M248.11,237.74c-1.63,4.57-17.13-1.4-15.64-5.57S249.73,233.17,248.11,237.74Z" transform="translate(-141.3 -171.79)"/><path class="cls-4" d="M189,277.45c-3.48,3.38-14.75-8.81-11.58-11.9S192.51,274.07,189,277.45Z" transform="translate(-141.3 -171.79)"/><path class="cls-4" d="M211.17,215.31c-1.63,4.57-17.13-1.39-15.64-5.57S212.79,210.74,211.17,215.31Z" transform="translate(-141.3 -171.79)"/></g><g id="Layer_15" data-name="Layer 15"><path class="cls-6" d="M222.88,190.46a39.33,39.33,0,0,0-14.95,7.12" transform="translate(-141.3 -171.79)"/><path class="cls-6" d="M228.88,189.38a30.56,30.56,0,0,1,13.38,2.3c33.26,13.74,66,58.18,76.82,91.78" transform="translate(-141.3 -171.79)"/></g></svg>