<svg xmlns="http://www.w3.org/2000/svg" viewBox="0 0 1369.57 254"><defs><style>.cls-1{fill:#473929;stroke-width:2px;}.cls-1,.cls-5{stroke:#332007;}.cls-1,.cls-2,.cls-3,.cls-4,.cls-5{stroke-miterlimit:10;}.cls-2,.cls-3,.cls-4,.cls-5{fill:none;}.cls-2,.cls-3{stroke:#564334;}.cls-2{stroke-width:8px;}.cls-3{stroke-width:6px;}.cls-4{stroke:#2d1c07;stroke-width:4px;}.cls-5{stroke-width:3px;}</style></defs><g id="Layer_2" data-name="Layer 2"><rect class="cls-1" x="2.25" y="1" width="1366" height="252"/></g><g id="Layer_23" data-name="Layer 23"><path class="cls-2" d="M-.65,560.73c84.18-5.46,259.91,15.85,356.68,1.09s192.62,12.75,248,7.28,71.21,7.51,134.86,7S966.71,559.7,1044,560.36s322.5,15.77,322.5,15.77" transform="translate(2.25 -515)"/><path class="cls-2" d="M-.65,621.64s47.75-20.89,134.22-11.22,297.26-1,375.86,18.16,293-14.49,385.29-4.94,178.11-25.94,245.21-21.3,226.6,36.76,226.6,36.76" transform="translate(2.25 -515)"/><path class="cls-2" d="M1366.53,710.56c-66.5-13.27-186.33,21-234.91,3.88s-141.94-25.19-171.26-18.26-121.71,14.54-203.52,14.38-150-23.14-253.39,0-357-21.27-409.22-8.53S-.65,714.44-.65,714.44" transform="translate(2.25 -515)"/><polyline class="cls-3" points="523.78 148.61 422.02 131.52 329.57 137.47"/><path class="cls-3" d="M603.33,667.67c61.16-1,129,21.29,181.57,16s115.38-16.51,145-8" transform="translate(2.25 -515)"/><path class="cls-3" d="M542.81,742.76c38.68-14.88,61.68-22.16,91.68-7.59s176-1.12,245.52,14,125.44-21.53,125.44-21.53" transform="translate(2.25 -515)"/><path class="cls-3" d="M998.39,757.41c35.1-17.87,67.31,1.41,114.2-8.23s225.32,8.23,225.32,8.23" transform="translate(2.25 -515)"/><path class="cls-3" d="M480,592.89c24.53,17,78,17.62,100.76,4.2s147.41,4,170.59-1.79" transform="translate(2.25 -515)"/><path class="cls-3" d="M929.89,587.83C977.49,572,1037,571,1082.77,578.77s98.52,2.43,98.52,2.43" transform="translate(2.25 -515)"/><path class="cls-3" d="M664.52,534.88c27,.72,26.71,14.49,66.84,14.16s116.21-6.26,138.67-9.85,89.79-2.46,89.79-2.46" transform="translate(2.25 -515)"/><path class="cls-3" d="M67.69,742.76s32-12.43,75.91-15.11,181.27,42.82,242.58,21.53S467,742.76,467,742.76" transform="translate(2.25 -515)"/><path class="cls-3" d="M13,640.74s33.93-2.89,80.74-7.4,157.52,34.54,185.66,33.95" transform="translate(2.25 -515)"/><path class="cls-3" d="M86.19,667.29c-22.7,9.61-86.85,9.86-86.85,9.86" transform="translate(2.25 -515)"/><path class="cls-3" d="M-.66,583.3s9.56,2.22,68.35-4.53,59,19.71,92.91,10.85S323,597.5,370.22,583.3" transform="translate(2.25 -515)"/><path class="cls-3" d="M1366,681.64s-28.38,5.1-84.94-18-139.67-13.29-139.67-13.29" transform="translate(2.25 -515)"/><path class="cls-3" d="M1366,549s-81.33-15.29-125.92-7.08" transform="translate(2.25 -515)"/><path class="cls-3" d="M0,532.44s113.88,14.16,152.19,4.29,189.11-4.29,189.11-4.29" transform="translate(2.25 -515)"/></g><g id="Layer_22" data-name="Layer 22"><path class="cls-4" d="M-1.18,556.43C83,551,258.73,572.28,355.5,557.51s192.62,12.75,248,7.29,71.21,7.5,134.85,7,227.82-16.44,305.15-15.77S1366,571.83,1366,571.83" transform="translate(2.25 -515)"/><path class="cls-4" d="M-1.18,617.33S46.57,596.45,133,606.11s297.26-1,375.86,18.16,293-14.48,385.29-4.93S1072.29,593.4,1139.4,598,1366,634.79,1366,634.79" transform="translate(2.25 -515)"/><path class="cls-4" d="M1366,706.25c-66.5-13.27-186.33,21-234.92,3.88s-141.93-25.19-171.26-18.25-121.7,14.54-203.51,14.37-150-23.14-253.4,0S145.89,685,93.7,697.72-1.18,710.13-1.18,710.13" transform="translate(2.25 -515)"/><polyline class="cls-5" points="523.78 144.3 422.03 127.21 329.58 133.16"/><path class="cls-5" d="M603.34,663.36c61.16-1,129,21.29,181.57,16s115.38-16.51,145-8" transform="translate(2.25 -515)"/><path class="cls-5" d="M542.82,738.45c38.68-14.88,61.68-22.16,91.68-7.59s176-1.12,245.52,14,125.44-21.53,125.44-21.53" transform="translate(2.25 -515)"/><path class="cls-5" d="M998.4,753.1c35.1-17.87,67.3,1.41,114.2-8.23s225.32,8.23,225.32,8.23" transform="translate(2.25 -515)"/><path class="cls-5" d="M480,588.58c24.53,17,78,17.62,100.76,4.2s147.41,4,170.59-1.79" transform="translate(2.25 -515)"/><path class="cls-5" d="M929.9,583.52c47.6-15.81,107.15-16.87,152.88-9.06s98.52,2.43,98.52,2.43" transform="translate(2.25 -515)"/><path class="cls-5" d="M664.53,530.57c27,.72,26.71,14.49,66.84,14.16s116.21-6.26,138.67-9.85,89.78-2.46,89.78-2.46" transform="translate(2.25 -515)"/><path class="cls-5" d="M67.7,738.45s32-12.43,75.91-15.11,181.27,42.82,242.58,21.53S467,738.45,467,738.45" transform="translate(2.25 -515)"/><path class="cls-5" d="M13,636.43s33.93-2.89,80.74-7.4,157.52,34.54,185.66,34" transform="translate(2.25 -515)"/><path class="cls-5" d="M86.2,663c-22.7,9.61-86.85,9.86-86.85,9.86" transform="translate(2.25 -515)"/><path class="cls-5" d="M-.65,579s9.56,2.22,68.35-4.53,59,19.71,92.91,10.85S323,593.19,370.23,579" transform="translate(2.25 -515)"/><path class="cls-5" d="M1366,677.33s-28.38,5.1-84.94-18S1141.39,646,1141.39,646" transform="translate(2.25 -515)"/><path class="cls-5" d="M1366,544.73s-81.33-15.29-125.92-7.08" transform="translate(2.25 -515)"/><path class="cls-5" d="M0,528.13s113.88,14.16,152.19,4.29,189.11-4.29,189.11-4.29" transform="translate(2.25 -515)"/></g></svg>