<svg id="Layer_1" data-name="Layer 1" xmlns="http://www.w3.org/2000/svg" viewBox="0 0 1366 255"><defs><style>.cls-1{fill:#473929;stroke-width:2px;}.cls-1,.cls-5{stroke:#332007;}.cls-1,.cls-2,.cls-3,.cls-4,.cls-5{stroke-miterlimit:10;}.cls-2,.cls-3,.cls-4,.cls-5{fill:none;}.cls-2,.cls-3{stroke:#564334;}.cls-2{stroke-width:8px;}.cls-3{stroke-width:6px;}.cls-4{stroke:#2d1c07;stroke-width:4px;}.cls-5{stroke-width:3px;}</style></defs><rect class="cls-1" x="-1" y="2" width="1366.29" height="254"/><path class="cls-2" d="M-1.65,47.09c84.2-5.51,260,16,356.76,1.09s192.65,12.86,248,7.34S674.38,63.09,738,62.61s227.87-16.56,305.21-15.89,322.57,15.89,322.57,15.89"/><path class="cls-2" d="M-1.65,108.48S46.11,87.42,132.6,97.17s297.32-1,375.94,18.3,293.05-14.6,385.37-5S1072.05,84.35,1139.17,89s226.65,37.06,226.65,37.06"/><path class="cls-2" d="M1365.82,198.1c-66.51-13.37-186.37,21.2-235,3.91s-142-25.39-171.29-18.4S837.83,198.27,756,198.1s-150-23.32-253.45,0-357.1-21.43-409.3-8.59S-1.65,202-1.65,202"/><polyline class="cls-3" points="520.64 150.78 418.86 133.56 326.39 139.55"/><path class="cls-3" d="M602.46,154.87c61.17-1,129,21.47,181.6,16.12s115.41-16.65,145-8.06"/><path class="cls-3" d="M541.92,230.56c38.69-15,61.7-22.34,91.7-7.66S809.69,221.78,879.19,237s125.47-21.7,125.47-21.7"/><path class="cls-3" d="M997.6,245.33c35.11-18,67.32,1.41,114.23-8.3s225.37,8.3,225.37,8.3"/><path class="cls-3" d="M479.06,79.5c24.54,17.14,78,17.76,100.78,4.23s147.45,4,170.63-1.8"/><path class="cls-3" d="M929.08,74.4c47.62-15.93,107.18-17,152.91-9.13s98.55,2.44,98.55,2.44"/><path class="cls-3" d="M663.66,21c27,.73,26.71,14.6,66.85,14.27S846.75,29,869.21,25.38,959,22.9,959,22.9"/><path class="cls-3" d="M66.71,230.56s32-12.53,75.92-15.23S323.94,258.49,385.26,237s80.83-6.47,80.83-6.47"/><path class="cls-3" d="M12,127.73s33.93-2.91,80.75-7.46,157.56,34.82,185.7,34.22"/><path class="cls-3" d="M85.21,154.49c-22.71,9.69-86.87,9.94-86.87,9.94"/><path class="cls-3" d="M-1.66,69.84s9.56,2.24,68.37-4.57,59,19.87,92.92,10.93S322,84.14,369.3,69.84"/><path class="cls-3" d="M1365.28,169s-28.39,5.13-85-18.18-139.7-13.4-139.7-13.4"/><path class="cls-3" d="M1365.28,35.3s-81.35-15.41-126-7.14"/><path class="cls-3" d="M-1,18.58s113.9,14.26,152.22,4.32,189.15-4.32,189.15-4.32"/><path class="cls-4" d="M-2.18,42.75c84.2-5.51,260,16,356.75,1.09S547.23,56.7,602.63,51.18s71.22,7.57,134.88,7.09,227.87-16.56,305.21-15.89,322.57,15.89,322.57,15.89"/><path class="cls-4" d="M-2.18,104.14S45.58,83.08,132.06,92.83s297.33-1,376,18.3,293-14.6,385.37-5S1071.52,80,1138.64,84.68s226.65,37.06,226.65,37.06"/><path class="cls-4" d="M1365.29,193.76c-66.52-13.37-186.37,21.2-235,3.91s-142-25.39-171.29-18.4S837.3,193.93,755.47,193.76s-150-23.32-253.45,0-357.1-21.43-409.3-8.59-94.9,12.5-94.9,12.5"/><polyline class="cls-5" points="520.65 146.44 418.87 129.22 326.4 135.21"/><path class="cls-5" d="M602.47,150.53c61.17-1,129,21.46,181.6,16.12s115.41-16.65,145-8.06"/><path class="cls-5" d="M541.93,226.22c38.69-15,61.7-22.34,91.7-7.66s176.07-1.12,245.57,14.12S1004.67,211,1004.67,211"/><path class="cls-5" d="M997.61,241c35.11-18,67.32,1.42,114.23-8.3s225.37,8.3,225.37,8.3"/><path class="cls-5" d="M479.07,75.16c24.54,17.13,78,17.75,100.78,4.23s147.45,4,170.63-1.81"/><path class="cls-5" d="M929.09,70.06c47.62-15.94,107.18-17,152.91-9.13s98.55,2.44,98.55,2.44"/><path class="cls-5" d="M663.67,16.68c27,.74,26.71,14.61,66.85,14.28S846.76,24.65,869.22,21,959,18.55,959,18.55"/><path class="cls-5" d="M66.72,226.22s32-12.53,75.92-15.24S324,254.15,385.27,232.68s80.83-6.46,80.83-6.46"/><path class="cls-5" d="M12,123.39s33.93-2.91,80.75-7.46,157.56,34.81,185.7,34.22"/><path class="cls-5" d="M85.22,150.15c-22.71,9.68-86.87,9.93-86.87,9.93"/><path class="cls-5" d="M-1.65,65.49s9.56,2.24,68.37-4.56,59,19.86,92.92,10.93S322,79.8,369.31,65.49"/><path class="cls-5" d="M1365.29,164.61s-28.39,5.14-85-18.17-139.7-13.4-139.7-13.4"/><path class="cls-5" d="M1365.29,31s-81.35-15.42-126-7.14"/><path class="cls-5" d="M-1,14.23S112.9,28.5,151.22,18.55s189.15-4.32,189.15-4.32"/></svg>