<svg xmlns="http://www.w3.org/2000/svg" viewBox="0 0 1370.06 407.37"><defs><style>.cls-1{fill:#473929;stroke-width:2px;}.cls-1,.cls-5{stroke:#332007;}.cls-1,.cls-2,.cls-3,.cls-4,.cls-5{stroke-miterlimit:10;}.cls-2,.cls-3,.cls-4,.cls-5{fill:none;}.cls-2,.cls-3{stroke:#564334;}.cls-2{stroke-width:8px;}.cls-3{stroke-width:6px;}.cls-4{stroke:#2d1c07;stroke-width:4px;}.cls-5{stroke-width:3px;}</style></defs><g id="Layer_34" data-name="Layer 34"><rect class="cls-1" x="2.01" y="1" width="1366.47" height="405.37"/></g><g id="og_light_indents" data-name="og light indents"><path class="cls-2" d="M-.65,561.09c84.21-5.51,260,16,356.8,1.09S548.84,575,604.24,569.52s71.23,7.57,134.9,7.09,227.9-16.56,305.25-15.89S1367,576.61,1367,576.61" transform="translate(2.26 -364)"/><path class="cls-2" d="M-.65,622.48s47.77-21.06,134.26-11.31,297.37-1,376,18.3,293.08-14.6,385.42-5,178.16-26.15,245.29-21.48S1367,640.08,1367,640.08" transform="translate(2.26 -364)"/><path class="cls-2" d="M1367,712.1c-66.52-13.37-186.4,21.2-235,3.91s-142-25.39-171.31-18.4S838.94,712.27,757.1,712.1s-150-23.32-253.48,0-357.15-21.43-409.36-8.59S-.65,716-.65,716" transform="translate(2.26 -364)"/><polyline class="cls-3" points="523.96 300.78 422.17 283.56 329.69 289.55"/><path class="cls-3" d="M603.54,668.87c61.18-1,129,21.47,181.63,16.12s115.42-16.65,145-8.06" transform="translate(2.26 -364)"/><path class="cls-3" d="M543,744.56c38.7-15,61.71-22.34,91.72-7.66S810.8,735.78,880.31,751s125.48-21.7,125.48-21.7" transform="translate(2.26 -364)"/><path class="cls-3" d="M998.73,759.33c35.11-18,67.33,1.41,114.24-8.3s225.4,8.3,225.4,8.3" transform="translate(2.26 -364)"/><path class="cls-3" d="M480.12,593.5c24.54,17.14,78,17.76,100.8,4.23s147.46,4,170.65-1.8" transform="translate(2.26 -364)"/><path class="cls-3" d="M930.2,588.4c47.62-15.93,107.2-17,152.94-9.13s98.55,2.44,98.55,2.44" transform="translate(2.26 -364)"/><path class="cls-3" d="M664.75,535c27,.73,26.72,14.6,66.86,14.27s116.25-6.31,138.72-9.92,89.81-2.48,89.81-2.48" transform="translate(2.26 -364)"/><path class="cls-3" d="M67.72,744.56s32-12.53,75.93-15.23S325,772.49,386.31,751s80.84-6.47,80.84-6.47" transform="translate(2.26 -364)"/><path class="cls-3" d="M13,641.73s33.94-2.91,80.76-7.46,157.58,34.82,185.73,34.22" transform="translate(2.26 -364)"/><path class="cls-3" d="M86.22,668.49c-22.71,9.69-86.88,9.94-86.88,9.94" transform="translate(2.26 -364)"/><path class="cls-3" d="M-.66,583.84s9.56,2.24,68.38-4.57,59,19.87,92.93,10.93,162.41,7.94,209.7-6.36" transform="translate(2.26 -364)"/><path class="cls-3" d="M1366.46,683s-28.39,5.13-85-18.18-139.72-13.4-139.72-13.4" transform="translate(2.26 -364)"/><path class="cls-3" d="M1366.46,549.3s-81.36-15.41-126-7.14" transform="translate(2.26 -364)"/><path class="cls-3" d="M0,532.58s113.92,14.26,152.24,4.32,189.18-4.32,189.18-4.32" transform="translate(2.26 -364)"/></g><g id="og_dark_indents" data-name="og dark indents"><path class="cls-4" d="M-1.18,556.75c84.21-5.51,260,16,356.8,1.09s192.68,12.86,248.09,7.34,71.23,7.57,134.9,7.09,227.89-16.56,305.25-15.89,322.61,15.89,322.61,15.89" transform="translate(2.26 -364)"/><path class="cls-4" d="M-1.18,618.14s47.77-21.06,134.26-11.31,297.37-1,376,18.3,293.09-14.6,385.43-5,178.16-26.15,245.29-21.48,226.68,37.06,226.68,37.06" transform="translate(2.26 -364)"/><path class="cls-4" d="M1366.47,707.76c-66.53-13.37-186.4,21.2-235,3.91s-142-25.39-171.32-18.4-121.74,14.66-203.58,14.49-150-23.32-253.48,0-357.15-21.43-409.36-8.59-94.91,12.5-94.91,12.5" transform="translate(2.26 -364)"/><polyline class="cls-5" points="523.97 296.44 422.18 279.21 329.7 285.21"/><path class="cls-5" d="M603.55,664.53c61.18-1,129,21.46,181.63,16.12s115.42-16.65,145-8.06" transform="translate(2.26 -364)"/><path class="cls-5" d="M543,740.22c38.7-15,61.71-22.34,91.72-7.66s176.09-1.12,245.6,14.12S1005.8,725,1005.8,725" transform="translate(2.26 -364)"/><path class="cls-5" d="M998.74,755c35.11-18,67.33,1.42,114.24-8.3s225.4,8.3,225.4,8.3" transform="translate(2.26 -364)"/><path class="cls-5" d="M480.13,589.16c24.54,17.13,78,17.75,100.8,4.23s147.46,4,170.65-1.81" transform="translate(2.26 -364)"/><path class="cls-5" d="M930.21,584.06c47.62-15.94,107.2-17,152.94-9.13s98.55,2.44,98.55,2.44" transform="translate(2.26 -364)"/><path class="cls-5" d="M664.76,530.68c27,.74,26.71,14.61,66.86,14.28s116.25-6.31,138.72-9.93,89.81-2.48,89.81-2.48" transform="translate(2.26 -364)"/><path class="cls-5" d="M67.73,740.22s32-12.53,75.93-15.24S325,768.15,386.32,746.68s80.84-6.46,80.84-6.46" transform="translate(2.26 -364)"/><path class="cls-5" d="M13,637.39s33.94-2.91,80.76-7.46,157.58,34.81,185.73,34.22" transform="translate(2.26 -364)"/><path class="cls-5" d="M86.23,664.15c-22.71,9.68-86.88,9.93-86.88,9.93" transform="translate(2.26 -364)"/><path class="cls-5" d="M-.65,579.49s9.56,2.24,68.38-4.56,59,19.86,92.93,10.93,162.41,7.94,209.7-6.37" transform="translate(2.26 -364)"/><path class="cls-5" d="M1366.47,678.61s-28.39,5.14-85-18.17S1141.78,647,1141.78,647" transform="translate(2.26 -364)"/><path class="cls-5" d="M1366.47,545s-81.36-15.42-126-7.14" transform="translate(2.26 -364)"/><path class="cls-5" d="M0,528.23s113.92,14.27,152.24,4.32,189.18-4.32,189.18-4.32" transform="translate(2.26 -364)"/></g><g id="Layer_36" data-name="Layer 36"><path class="cls-3" d="M452.2,454.14s115,5,147,17,175-10,188-12,38,3.5,38,3.5" transform="translate(2.26 -364)"/><path class="cls-3" d="M1002.09,478.64s111.79-27.5,160.95-24.5,73.7,7,98.43,17,68.51,7.5,68.51,7.5" transform="translate(2.26 -364)"/><path class="cls-3" d="M96.25,454.14s50.95,20,77.95,20,90.13-17,125.56-20,83.8,10,83.8,10" transform="translate(2.26 -364)"/><path class="cls-3" d="M741.38,387.64s125.82,22.5,175.82,22.5,118-15,150-19,63,2,63,2" transform="translate(2.26 -364)"/><path class="cls-3" d="M145.91,387.64s127.71,7.5,162.5,0,109.47,11,155.63,11.25,62.16-10.75,76.16-8.75" transform="translate(2.26 -364)"/><path class="cls-3" d="M1365.7,387.64a654.75,654.75,0,0,1-73.5,16.5c-38,6-81.62-3-110.81,0" transform="translate(2.26 -364)"/></g><g id="Layer_35" data-name="Layer 35"><path class="cls-4" d="M-1,475s42.51,4.26,129,14,218.37-14.34,297,5,377.65-9.82,470-.2,263.88-8.47,331-3.8,141,19.38,141,19.38" transform="translate(2.26 -364)"/><path class="cls-5" d="M452.5,450.5s115,5,147,17,175-10,188-12,38,3.5,38,3.5" transform="translate(2.26 -364)"/><path class="cls-5" d="M1002.39,475s111.79-27.5,160.95-24.5,73.7,7,98.43,17,68.51,7.5,68.51,7.5" transform="translate(2.26 -364)"/><path class="cls-5" d="M96.55,450.5s51,20,78,20,90.13-17,125.56-20,83.8,10,83.8,10" transform="translate(2.26 -364)"/><path class="cls-4" d="M-.65,410.75S169,410,254,416s294-5.49,344-5.25S884,434,933,434s188-16,225-17,208,11.71,208,11.71" transform="translate(2.26 -364)"/><path class="cls-5" d="M741.68,384S867.5,406.5,917.5,406.5s118-15,150-19,63,2,63,2" transform="translate(2.26 -364)"/><path class="cls-5" d="M146.21,384s127.71,7.5,162.5,0,109.47,11,155.63,11.25,62.16-10.75,76.16-8.75" transform="translate(2.26 -364)"/><path class="cls-5" d="M1366,384a654.75,654.75,0,0,1-73.5,16.5c-38,6-81.62-3-110.81,0" transform="translate(2.26 -364)"/></g></svg>