<svg xmlns="http://www.w3.org/2000/svg" xmlns:xlink="http://www.w3.org/1999/xlink" viewBox="0 0 1366 255"><defs><style>.cls-1{fill:#473929;stroke-width:2px;}.cls-1,.cls-7{stroke:#332007;}.cls-1,.cls-4,.cls-5,.cls-6,.cls-7{stroke-miterlimit:10;}.cls-2{fill:#5e462f;}.cls-3{fill:url(#linear-gradient);}.cls-4,.cls-5,.cls-6,.cls-7{fill:none;}.cls-4,.cls-5{stroke:#564334;}.cls-4{stroke-width:8px;}.cls-5{stroke-width:6px;}.cls-6{stroke:#2d1c07;stroke-width:4px;}.cls-7{stroke-width:3px;}.cls-8{fill:url(#linear-gradient-2);}</style><linearGradient id="linear-gradient" x1="-1" y1="129.5" x2="1367.39" y2="129.5" gradientUnits="userSpaceOnUse"><stop offset="0" stop-color="#473929"/><stop offset="1" stop-color="#5e4633"/></linearGradient><linearGradient id="linear-gradient-2" x1="-2.21" y1="128.98" x2="1366.18" y2="128.98" gradientUnits="userSpaceOnUse"><stop offset="0" stop-color="#4a3824"/><stop offset="1" stop-color="#5e4633" stop-opacity="0"/></linearGradient></defs><g id="Layer_1" data-name="Layer 1"><rect class="cls-1" x="-1" y="2" width="1366.29" height="254"/></g><g id="Layer_3" data-name="Layer 3"><rect class="cls-2" x="-2" y="3" width="1368.39" height="253"/></g><g id="Layer_4" data-name="Layer 4"><rect class="cls-3" x="-1" y="3" width="1368.39" height="253"/></g><g id="Layer_2" data-name="Layer 2"><path class="cls-4" d="M-1.76,47.32c84.19-5.51,260,16,356.75,1.1s192.66,12.85,248,7.34,71.22,7.56,134.88,7.08S965.79,46.28,1043.14,47,1365.7,62.84,1365.7,62.84"/><path class="cls-4" d="M1,108S46,87.66,132.48,97.4s297.33-1,375.94,18.3,293.05-14.59,385.38-5,178.14-26.15,245.25-21.47,226.65,37.05,226.65,37.05"/><path class="cls-4" d="M1365.7,198.34c-66.51-13.38-186.37,21.19-235,3.91s-142-25.39-171.3-18.41-121.73,14.66-203.55,14.5-150-23.33-253.45,0-357.1-21.44-409.31-8.6S-1.76,202.25-1.76,202.25"/><polyline class="cls-5" points="520.52 151.01 418.74 133.79 326.27 139.79"/><path class="cls-5" d="M602.34,155.1c61.17-1,129,21.47,181.61,16.12s115.41-16.64,145-8.06"/><path class="cls-5" d="M541.81,230.79c38.69-15,61.69-22.33,91.7-7.65S809.57,222,879.07,237.26s125.47-21.7,125.47-21.7"/><path class="cls-5" d="M997.48,245.56c35.11-18,67.32,1.42,114.23-8.3s225.37,8.3,225.37,8.3"/><path class="cls-5" d="M478.94,79.73C503.48,96.87,557,97.49,579.72,84s147.45,4,170.63-1.81"/><path class="cls-5" d="M929,74.63c47.61-15.93,107.18-17,152.91-9.13S1180.42,68,1180.42,68"/><path class="cls-5" d="M663.54,21.26c27,.73,26.72,14.61,66.86,14.28s116.23-6.32,138.7-9.93,89.8-2.48,89.8-2.48"/><path class="cls-5" d="M66.59,230.79s32-12.53,75.93-15.23,181.31,43.16,242.63,21.7S466,230.79,466,230.79"/><path class="cls-5" d="M11.84,128s33.93-2.92,80.75-7.46,157.56,34.81,185.7,34.22"/><path class="cls-5" d="M85.09,154.73c-22.7,9.68-86.86,9.93-86.86,9.93"/><path class="cls-5" d="M-1.77,70.07s9.55,2.24,68.36-4.57,59,19.87,92.93,10.94,162.38,7.94,209.66-6.37"/><path class="cls-5" d="M1365.16,169.19s-28.39,5.14-85-18.18-139.69-13.39-139.69-13.39"/><path class="cls-5" d="M1365.16,35.54s-81.35-15.42-125.94-7.14"/><path class="cls-5" d="M-1.13,18.81S112.78,33.08,151.1,23.13s189.14-4.32,189.14-4.32"/><path class="cls-6" d="M-2.3,43c84.2-5.51,260,16,356.76,1.1s192.66,12.85,248.05,7.34S673.73,59,737.39,58.5,965.26,41.94,1042.6,42.61,1365.17,58.5,1365.17,58.5"/><path class="cls-6" d="M-.3,104.37S47.47,83.32,134,93.06s297.32-1,375.94,18.31,293.05-14.6,385.37-5,178.14-26.15,245.26-21.47S1367.17,122,1367.17,122"/><path class="cls-6" d="M1365.17,194c-66.51-13.38-186.37,21.19-235,3.91s-142-25.39-171.3-18.41S837.18,194.16,755.35,194s-150-23.33-253.45,0-357.09-21.44-409.3-8.6S-2.3,197.91-2.3,197.91"/><polyline class="cls-7" points="520.53 146.67 418.75 129.45 326.28 135.44"/><path class="cls-7" d="M602.35,150.76c61.17-1,129,21.47,181.61,16.12s115.41-16.65,145-8.06"/><path class="cls-7" d="M541.82,226.45c38.69-15,61.69-22.34,91.7-7.66s176.06-1.12,245.56,14.13,125.47-21.7,125.47-21.7"/><path class="cls-7" d="M997.49,241.21c35.11-18,67.32,1.42,114.23-8.29s225.37,8.29,225.37,8.29"/><path class="cls-7" d="M479,75.39c24.54,17.14,78,17.76,100.78,4.23s147.45,4,170.63-1.81"/><path class="cls-7" d="M929,70.29c47.61-15.94,107.18-17,152.91-9.13s98.54,2.44,98.54,2.44"/><path class="cls-7" d="M663.55,16.91c27,.74,26.72,14.61,66.86,14.28s116.23-6.31,138.7-9.93,89.8-2.47,89.8-2.47"/><path class="cls-7" d="M66.6,226.45s32-12.53,75.93-15.23,181.31,43.16,242.63,21.7S466,226.45,466,226.45"/><path class="cls-7" d="M11.85,123.62s33.93-2.91,80.75-7.46S250.16,151,278.3,150.38"/><path class="cls-7" d="M85.1,150.38c-22.7,9.68-86.86,9.94-86.86,9.94"/><path class="cls-7" d="M-1.76,65.72S7.79,68,66.6,61.16s59,19.86,92.93,10.93S321.91,80,369.19,65.72"/><path class="cls-7" d="M1365.17,164.84s-28.39,5.14-85-18.17-139.69-13.4-139.69-13.4"/><path class="cls-7" d="M1365.17,31.19s-81.35-15.41-125.94-7.14"/><path class="cls-7" d="M-1.12,14.46s113.91,14.27,152.23,4.33,189.14-4.33,189.14-4.33"/></g><g id="Layer_5" data-name="Layer 5"><rect class="cls-8" x="-2.21" y="2.48" width="1368.39" height="253"/></g></svg>