<svg xmlns="http://www.w3.org/2000/svg" viewBox="0 0 259.5 274.43"><defs><style>.cls-1{fill:#e5e5e5;}.cls-1,.cls-10{stroke:#003e44;stroke-miterlimit:10;stroke-width:3px;}.cls-2{fill:#72d3ce;}.cls-3{fill:#17c9bc;}.cls-4{fill:#333;opacity:0.2;}.cls-5{fill:#fff;opacity:0.6;}.cls-6{fill:#4db5ad;}.cls-7{fill:#88eae7;}.cls-8{fill:#f4f4f4;}.cls-9{fill:#c3ede5;}.cls-10{fill:none;}</style></defs><g id="Layer_2" data-name="Layer 2"><path class="cls-1" d="M344,368.26c-19.56,37-150.91,34.82-172-3.29a4.17,4.17,0,0,1-.45-1.37c-4.4-30.39-14.44-160.64-15.75-177.79a4.09,4.09,0,0,0-1.66-3l-2.37-1.71a4.13,4.13,0,0,1-1.65-2.84l-2.4-21.17a4.06,4.06,0,0,0-2.79-3.42c-4.16-1.32-12.06-4.77-12.06-11.93,0-9.73,67.34-19.09,131-18.33s125.47,11.42,125.47,21.23c0,7.27-6.91,10.42-10.5,11.57a4,4,0,0,0-2.67,2.9L371,180.7a4.07,4.07,0,0,1-2.79,2.94h0a4.07,4.07,0,0,0-2.88,3.48c-2.07,20.43-15.41,150.85-21,180A3.85,3.85,0,0,1,344,368.26Z" transform="translate(-131.38 -121.89)"/></g><g id="Layer_5" data-name="Layer 5"><path class="cls-2" d="M159,226.16s21.47,7.44,26,24.82-6,31.59,1.87,44.69,32.92,27.31,40.78,38.9,2.61,26.19,12,34.42,35.19,7.85,47.34,10.1A34.93,34.93,0,0,1,306,389.64s-26.33,9.69-73.5,2.56S176.05,371.09,172,364.38c-2.71-7.81-13-138.22-13-138.22" transform="translate(-131.38 -121.89)"/><path class="cls-3" d="M220,280.55c19,4,57.3,5.67,80.05,0,12.7-3,17-1.87,0,7.1s-64,6.18-80.05,0S200.93,276.56,220,280.55Z" transform="translate(-131.38 -121.89)"/><path class="cls-2" d="M352.69,299.87c-10.22-4.24-17.95-11.78-20.2-22.22s3.5-18.68,3.74-28.9-19.14-17-23.53-23.69-3.3-11.72-5.15-19-32.91-11.47-32.91-11.47l93.59-11-2.88,3.48L352.69,299.87" transform="translate(-131.38 -121.89)"/></g><g id="Layer_10" data-name="Layer 10"><path class="cls-4" d="M370.75,177l-112,12.69-107.2-12.27,4,4.69.93,12.07S171.1,362.25,172,365c3.24,9.66,36.84,26.06,32.18,21.52s-14-10.93-18.65-31.5-19.45-136.92-14.21-153.75c36.28,5.24,81.71,3.75,89.8,3.75,51.29,0,102.74-10.85,102.74-10.85l2.39-9.2c6.22.33,4.49-8,4.49-8" transform="translate(-131.38 -121.89)"/><path class="cls-5" d="M360.92,221.07C348.7,295.38,339,348.26,329,364.22s-14,19.2-30.45,27.56C331,387.27,344,368.26,344,368.26l16.91-147.19" transform="translate(-131.38 -121.89)"/></g><g id="Layer_8" data-name="Layer 8"><path class="cls-2" d="M384.16,154.28l-121.54,6.48L143,152.53l4.35,3.26s2.2,22.49,4.73,25.87C162,190,191.85,197.87,257,197.87s107.17-10.75,112.71-15c0,0,6.9-22.52,7-24.91s7.45-3.67,7.45-3.67" transform="translate(-131.38 -121.89)"/><path class="cls-6" d="M143.58,152.53l117.55,6.94,123.61-5.19-8,2.75-1.28,5.3s-48.26,8.91-114.31,8.91-112.34-4.77-112.34-4.77l-1.06-9.36-4.15-4.58" transform="translate(-131.38 -121.89)"/><path class="cls-6" d="M365.35,187.12" transform="translate(-131.38 -121.89)"/></g><g id="Layer_6" data-name="Layer 6"><path class="cls-3" d="M213.19,272.68a7.41,7.41,0,0,1-1,0,12.46,12.46,0,0,1-1.37-.13,4.45,4.45,0,0,1-2.16-.85,3.48,3.48,0,0,1-.81-2.66c-.06-2.33-.05-3.77,0-6.75-.47-1.45-1-3.13-1.49-5s-1-3.78-1.52-5.67-1-3.7-1.4-5.34-.82-3-1.14-4.06a2.32,2.32,0,0,1,.91-.95,1.9,1.9,0,0,1,1.52-.06,4.06,4.06,0,0,1,1.86,1A6.89,6.89,0,0,1,208,245a92.76,92.76,0,0,1,2.43,9.1l.18,0c.3-1.08.56-2,.78-2.89s.42-1.66.62-2.43.4-1.54.6-2.27.41-1.52.64-2.27a3.34,3.34,0,0,1,1.17-.13,5.9,5.9,0,0,1,1.27.19,4,4,0,0,1,1.88,1.1,3.29,3.29,0,0,1,.86,2.3,5.63,5.63,0,0,1-.12,1.2,16.7,16.7,0,0,1-.68,2.24c-.36,1-.9,2.52-1.63,4.5s-1.75,4.71-3,7.88C213,267.92,213,270,213.19,272.68Z" transform="translate(-131.38 -121.89)"/><path class="cls-3" d="M219.65,259.58a28.62,28.62,0,0,1,.78-7.11,9,9,0,0,1,2-4,5,5,0,0,1,3-1.47,11.53,11.53,0,0,1,3.88.19,15.09,15.09,0,0,1,4,1.33,9.42,9.42,0,0,1,3.23,2.62,12.23,12.23,0,0,1,2.15,4.54,26.92,26.92,0,0,1,.76,6.83,27.81,27.81,0,0,1-.71,6.74,10.21,10.21,0,0,1-2,4.2,5.88,5.88,0,0,1-3,1.91,10,10,0,0,1-3.87.25,12.08,12.08,0,0,1-4-1.11,8.88,8.88,0,0,1-3.3-2.65,13.25,13.25,0,0,1-2.19-4.88A30,30,0,0,1,219.65,259.58Zm5.67,1.06c0,3.21.39,5.61,1.19,7.17a4,4,0,0,0,3.16,2.5,3,3,0,0,0,3.11-1.72q1.14-2,1.12-6.66a16,16,0,0,0-1.17-6.89,4.4,4.4,0,0,0-3.15-2.61,2.75,2.75,0,0,0-3.1,1.47Q225.33,255.82,225.32,260.64Z" transform="translate(-131.38 -121.89)"/><path class="cls-3" d="M259.22,272.66a3.71,3.71,0,0,1-.3,1.81,3.18,3.18,0,0,1-1,1,5.35,5.35,0,0,1-1,.52,10.1,10.1,0,0,1-1.34.42,14.15,14.15,0,0,1-1.54.25,12.56,12.56,0,0,1-1.62.08,12.72,12.72,0,0,1-4.1-.66,8.28,8.28,0,0,1-3.45-2.18,10.86,10.86,0,0,1-2.37-4.3,27,27,0,0,1,0-13.67,10.39,10.39,0,0,1,2.33-4.2,7.52,7.52,0,0,1,3.31-2,12.88,12.88,0,0,1,3.88-.5,9.52,9.52,0,0,1,4.61,1,3.26,3.26,0,0,1,1.73,3,4.69,4.69,0,0,1-1.27,3.28,10.23,10.23,0,0,0-1.89-1.34,5.33,5.33,0,0,0-2.56-.67,4.44,4.44,0,0,0-4,2.07c-1,1.46-1.47,3.62-1.45,6.45a17.15,17.15,0,0,0,.45,4,8.1,8.1,0,0,0,1.15,2.64,4.57,4.57,0,0,0,1.63,1.49,4.13,4.13,0,0,0,1.94.48,3.43,3.43,0,0,0,1.16-.16,2.38,2.38,0,0,0,.77-.39c0-1.67,0-2.57,0-4.4l-3.22,0a9.35,9.35,0,0,1-.36-1.44,10.34,10.34,0,0,1-.19-1.89,5,5,0,0,1,.48-2.58,1.42,1.42,0,0,1,1.27-.77c2,0,3.06,0,5.08,0a1.53,1.53,0,0,1,1.39.81,4.41,4.41,0,0,1,.5,2.3C259.19,267.14,259.19,269.29,259.22,272.66Z" transform="translate(-131.38 -121.89)"/><path class="cls-3" d="M278.41,266.38a17.6,17.6,0,0,1-.67,4.61,8.43,8.43,0,0,1-1.65,3.13,6.52,6.52,0,0,1-2.53,1.75,9.81,9.81,0,0,1-3.27.62,9.26,9.26,0,0,1-3.25-.41,5.79,5.79,0,0,1-2.45-1.59,7.48,7.48,0,0,1-1.55-3,16.5,16.5,0,0,1-.55-4.54c0-7.41,0-12.33,0-17.12l1.06-.19a10.05,10.05,0,0,1,1.4-.14,6.58,6.58,0,0,1,1.23.07,2.14,2.14,0,0,1,.9.37,1.6,1.6,0,0,1,.54.82,5.66,5.66,0,0,1,.17,1.56c0,4.79-.08,8.42-.13,14.34a6.46,6.46,0,0,0,.74,3.51,2.16,2.16,0,0,0,2,1.12,2.42,2.42,0,0,0,2-1.26,7,7,0,0,0,.83-3.57c.13-7.38.2-12.24.32-17,.23-.06.58-.13,1.07-.23A12.37,12.37,0,0,1,276,249a6.81,6.81,0,0,1,1.23,0,2.15,2.15,0,0,1,.89.34,1.44,1.44,0,0,1,.52.81,4.84,4.84,0,0,1,.13,1.56C278.65,256.65,278.57,260.36,278.41,266.38Z" transform="translate(-131.38 -121.89)"/><path class="cls-3" d="M287.18,267c-.19,3.79-.29,5.61-.47,8.06a7.77,7.77,0,0,1-1,.27,10.43,10.43,0,0,1-1.33.2,5.31,5.31,0,0,1-1.15,0,1.43,1.43,0,0,1-1.26-1.17,5.94,5.94,0,0,1-.09-1.58c.33-7.54.5-14.91.84-22.07a1.92,1.92,0,0,1,.41-1.22,3,3,0,0,1,1-.75,14.35,14.35,0,0,1,2.47-.93c.93-.27,1.92-.5,3-.71,2.83-.56,4.9-.57,6.2.55s1.81,3.26,1.57,6.68A18.32,18.32,0,0,1,296,260.2a13.8,13.8,0,0,1-2.48,4c.6,1.61,1.19,3.07,1.77,4.34a34.88,34.88,0,0,1,1.32,3.24,4.3,4.3,0,0,1-1.23,2.13,3.25,3.25,0,0,1-1.77.81,3.1,3.1,0,0,1-1.07,0,1.85,1.85,0,0,1-.76-.36,2.32,2.32,0,0,1-.56-.69,6.22,6.22,0,0,1-.46-1c-.81-2-1.22-3.26-2.06-5.83Zm2.2-7.1a2.64,2.64,0,0,0,1.84-1.32,6.64,6.64,0,0,0,.83-3.09,3.74,3.74,0,0,0-.57-2.67,2.36,2.36,0,0,0-2.29-.45,7.08,7.08,0,0,0-.73.18,6.33,6.33,0,0,0-.61.24c-.15,2.71-.22,4.29-.37,7.39C288.24,260.11,288.62,260.05,289.38,259.93Z" transform="translate(-131.38 -121.89)"/><path class="cls-3" d="M299.67,250.93a6.21,6.21,0,0,1-.28-1.32,7.47,7.47,0,0,1,0-1.71,4,4,0,0,1,.73-2.26,2.73,2.73,0,0,1,1.45-.92c5.3-1.36,7.93-2.12,13.15-3.31a2.77,2.77,0,0,1,.28,1,6,6,0,0,1,0,1.54,6.46,6.46,0,0,1-.76,2.7,2.37,2.37,0,0,1-1.44,1.16c-1.34.31-2,.47-3.34.8-.8,9.29-1.29,17.59-2,23.71a6.91,6.91,0,0,1-1,.38A11.22,11.22,0,0,1,305,273a6.64,6.64,0,0,1-1.18.09,1.41,1.41,0,0,1-.82-.28,1.31,1.31,0,0,1-.43-.81,6.39,6.39,0,0,1,0-1.67c.62-6.69,1-12.81,1.62-20.48Z" transform="translate(-131.38 -121.89)"/></g><g id="Layer_3" data-name="Layer 3"><path class="cls-7" d="M132.88,141.08c4.22-11.53,74.92-17.61,131-17.65s125.47,13.16,125.47,20.45S378.88,155,378.88,155s-46.14,7.32-113.85,7.32-113.07-5.4-120.09-8.64S134.69,149.93,132.88,141.08Z" transform="translate(-131.38 -121.89)"/><path class="cls-8" d="M375.2,145.31c0-9.15-85.29-15.33-111.85-15S149.44,133,149.44,143.63s88.85,12.16,113.91,12.16S375.2,154.47,375.2,145.31Z" transform="translate(-131.38 -121.89)"/></g><g id="Layer_11" data-name="Layer 11"><path class="cls-9" d="M388.89,144.68c-7.11-10.37-53.34-16.19-53.34-16.19,24.94,6.49,42.52,9.6,43.21,17.47s-33.31,12.86-33.31,12.86,25-2.26,32.94-3.79,10.5-10.35,10.5-10.35" transform="translate(-131.38 -121.89)"/></g><g id="Layer_4" data-name="Layer 4"><path class="cls-10" d="M344,368.26c-19.56,37-150.91,34.82-172-3.29a4.17,4.17,0,0,1-.45-1.37c-4.4-30.39-14.44-160.64-15.75-177.79a4.09,4.09,0,0,0-1.66-3l-2.37-1.71a4.13,4.13,0,0,1-1.65-2.84l-2.4-21.17a4.06,4.06,0,0,0-2.79-3.42c-4.16-1.32-12.06-4.77-12.06-11.93,0-9.73,67.34-19.09,131-18.33s125.47,11.42,125.47,21.23c0,7.27-6.91,10.42-10.5,11.57a4,4,0,0,0-2.67,2.9L371,180.7a4.07,4.07,0,0,1-2.79,2.94h0a4.07,4.07,0,0,0-2.88,3.48c-2.07,20.43-15.41,150.85-21,180A3.85,3.85,0,0,1,344,368.26Z" transform="translate(-131.38 -121.89)"/></g></svg>